<?xml version="1.0" encoding="UTF-8" standalone="no"?>
<!-- Created with Inkscape (http://www.inkscape.org/) -->

<svg
   width="90.921364mm"
   height="64.234886mm"
   viewBox="0 0 90.921363 64.234885"
   version="1.1"
   id="svg1847"
   xmlns="http://www.w3.org/2000/svg"
   xmlns:svg="http://www.w3.org/2000/svg">
  <defs
     id="defs1844" />
  <g
     id="layer7"
     style="display:inline"
     transform="translate(-223.54559,-261.20877)">
    <g
       id="g3590"
       transform="matrix(-0.139793,0,0,0.139793,334.695,228.637)">
      <path
         id="XMLID_357_"
         class="st11"
         d="M 189.9,689.5 H 176.1 V 242.9 c 0,-3.8 3.1,-6.9 6.9,-6.9 v 0 c 3.8,0 6.9,3.1 6.9,6.9 z"
         style="fill:#414042" />
      <path
         id="XMLID_356_"
         class="st12"
         d="M 189.9,689.5 H 176.1 V 242.9 c 0,-3.8 3.1,-6.9 6.9,-6.9 v 0 c 3.8,0 6.9,3.1 6.9,6.9 z"
         style="fill:none;stroke:#2a2a2a;stroke-width:6;stroke-linecap:round;stroke-linejoin:round;stroke-miterlimit:10" />
      <line
         id="XMLID_355_"
         class="st12"
         x1="218.2"
         y1="689.5"
         x2="147.7"
         y2="689.5"
         style="fill:none;stroke:#2a2a2a;stroke-width:6;stroke-linecap:round;stroke-linejoin:round;stroke-miterlimit:10" />
      <line
         id="XMLID_354_"
         class="st12"
         x1="235.10001"
         y1="689.5"
         x2="230.60001"
         y2="689.5"
         style="fill:none;stroke:#2a2a2a;stroke-width:6;stroke-linecap:round;stroke-linejoin:round;stroke-miterlimit:10" />
      <path
         id="XMLID_107_-5"
         class="st13"
         d="m 295.3,312.7 c -10.1,0.4 -20.1,1.2 -30.1,2.4 0,-10 0,-20.1 0,-30.1 10,-1.2 20,-2 30.1,-2.4 0,10 0,20.1 0,30.1 z"
         style="fill:#2a2a2a" />
      <path
         id="XMLID_106_-9"
         class="st13"
         d="m 295.3,372.9 c -10.1,0.4 -20.1,1.2 -30.1,2.4 0,-10 0,-20.1 0,-30.1 10,-1.2 20,-2 30.1,-2.4 0,10 0,20.1 0,30.1 z"
         style="fill:#2a2a2a" />
      <path
         id="XMLID_105_"
         class="st9"
         d="m 325.5,312.7 c -10.1,-0.4 -20.1,-0.4 -30.2,0 0,-10 0,-20.1 0,-30.1 10.1,-0.4 20.1,-0.4 30.2,0 0,10 0,20.1 0,30.1 z"
         style="fill:#ffffff" />
      <path
         id="XMLID_104_"
         class="st13"
         d="m 325.5,342.8 c -10.1,-0.4 -20.1,-0.4 -30.2,0 0,-10 0,-20.1 0,-30.1 10.1,-0.4 20.1,-0.4 30.2,0 0,10 0,20.1 0,30.1 z"
         style="fill:#2a2a2a" />
      <path
         id="XMLID_103_"
         class="st9"
         d="m 325.5,372.9 c -10.1,-0.4 -20.1,-0.4 -30.2,0 0,-10 0,-20.1 0,-30.1 10.1,-0.4 20.1,-0.4 30.2,0 0,10 0,20.1 0,30.1 z"
         style="fill:#ffffff" />
      <path
         id="XMLID_102_"
         class="st13"
         d="m 355.6,315.1 c -10,-1.2 -20,-2 -30.1,-2.4 0,-10 0,-20.1 0,-30.1 10.1,0.4 20.1,1.2 30.1,2.4 0,10 0,20 0,30.1 z"
         style="fill:#2a2a2a" />
      <path
         id="XMLID_101_"
         class="st9"
         d="m 355.6,345.2 c -10,-1.2 -20,-2 -30.1,-2.4 0,-10 0,-20.1 0,-30.1 10.1,0.4 20.1,1.2 30.1,2.4 0,10 0,20 0,30.1 z"
         style="fill:#ffffff" />
      <path
         id="XMLID_100_"
         class="st13"
         d="m 355.6,375.3 c -10,-1.2 -20,-2 -30.1,-2.4 0,-10 0,-20.1 0,-30.1 10.1,0.4 20.1,1.2 30.1,2.4 0,10 0,20.1 0,30.1 z"
         style="fill:#2a2a2a" />
      <path
         id="XMLID_99_"
         class="st9"
         d="m 295.3,342.8 c -10.1,0.4 -20.1,1.2 -30.1,2.4 0,-10 0,-20.1 0,-30.1 10,-1.2 20,-2 30.1,-2.4 0,10 0,20.1 0,30.1 z"
         style="fill:#ffffff" />
      <path
         id="XMLID_97_"
         class="st12"
         d="m 355.6,375.3 c -30,-3.6 -60.3,-3.6 -90.4,0 0,-30.1 0,-60.2 0,-90.3 30,-3.6 60.3,-3.6 90.4,0 0,30.1 0,60.2 0,90.3 z"
         style="fill:none;stroke:#2a2a2a;stroke-width:6;stroke-linecap:round;stroke-linejoin:round;stroke-miterlimit:10" />
      <path
         id="XMLID_96_"
         class="st14"
         d="m 265.2,284.9 c 9.1,-1.1 18.3,-1.8 27.4,-2.3 0,30.1 0,60.2 0,90.3 -9.2,0.4 -18.3,1.2 -27.4,2.3 0,-30 0,-60.1 0,-90.3 z"
         style="opacity:0.41;fill:#2a2a2a" />
      <path
         id="XMLID_82_-3"
         class="st13"
         d="m 220,286.9 c -10.1,0.4 -20.1,1.2 -30.1,2.4 0,-10 0,-20.1 0,-30.1 10,-1.2 20,-2 30.1,-2.4 0,10 0,20 0,30.1 z"
         style="fill:#2a2a2a" />
      <path
         id="XMLID_81_-4"
         class="st13"
         d="m 220,347.1 c -10.1,0.4 -20.1,1.2 -30.1,2.4 0,-10 0,-20.1 0,-30.1 10,-1.2 20,-2 30.1,-2.4 0,10 0,20.1 0,30.1 z"
         style="fill:#2a2a2a" />
      <path
         id="XMLID_80_-1"
         class="st9"
         d="m 250.2,286.9 c -10.1,-0.4 -20.1,-0.4 -30.2,0 0,-10 0,-20.1 0,-30.1 10.1,-0.4 20.1,-0.4 30.2,0 0,10 0,20 0,30.1 z"
         style="fill:#ffffff" />
      <path
         id="XMLID_79_-5"
         class="st13"
         d="m 250.2,317 c -10.1,-0.4 -20.1,-0.4 -30.2,0 0,-10 0,-20.1 0,-30.1 10.1,-0.4 20.1,-0.4 30.2,0 0,10 0,20.1 0,30.1 z"
         style="fill:#2a2a2a" />
      <path
         id="XMLID_78_"
         class="st9"
         d="m 250.2,347.1 c -10.1,-0.4 -20.1,-0.4 -30.2,0 0,-10 0,-20.1 0,-30.1 10.1,-0.4 20.1,-0.4 30.2,0 0,10 0,20.1 0,30.1 z"
         style="fill:#ffffff" />
      <path
         id="XMLID_77_-0"
         class="st13"
         d="m 280.3,289.2 c -10,-1.2 -20,-2 -30.1,-2.4 0,-10 0,-20.1 0,-30.1 10.1,0.4 20.1,1.2 30.1,2.4 0,10.1 0,20.1 0,30.1 z"
         style="fill:#2a2a2a" />
      <path
         id="XMLID_76_-8"
         class="st9"
         d="m 280.3,319.4 c -10,-1.2 -20,-2 -30.1,-2.4 0,-10 0,-20.1 0,-30.1 10.1,0.4 20.1,1.2 30.1,2.4 0,10 0,20 0,30.1 z"
         style="fill:#ffffff" />
      <path
         id="XMLID_75_-3"
         class="st13"
         d="m 280.3,349.5 c -10,-1.2 -20,-2 -30.1,-2.4 0,-10 0,-20.1 0,-30.1 10.1,0.4 20.1,1.2 30.1,2.4 0,10 0,20 0,30.1 z"
         style="fill:#2a2a2a" />
      <path
         id="XMLID_74_-5"
         class="st9"
         d="m 220,317 c -10.1,0.4 -20.1,1.2 -30.1,2.4 0,-10 0,-20.1 0,-30.1 10,-1.2 20,-2 30.1,-2.4 0,10 0,20.1 0,30.1 z"
         style="fill:#ffffff" />
      <path
         id="XMLID_72_-6"
         class="st12"
         d="m 280.3,349.5 c -30,-3.6 -60.3,-3.6 -90.4,0 0,-30.1 0,-60.2 0,-90.3 30,-3.6 60.3,-3.6 90.4,0 0,30 0,60.2 0,90.3 z"
         style="fill:none;stroke:#2a2a2a;stroke-width:6;stroke-linecap:round;stroke-linejoin:round;stroke-miterlimit:10" />
      <path
         class="st15"
         d="m 440.7,555.6 c -5.1,-0.4 -10.2,-0.8 -15.3,-1.2 2.6,-19.6 1.4,-39.3 -3.2,-58.1 3.6,-1 7.2,-2.1 10.8,-3.2 6.4,19.8 9.1,41 7.7,62.5 z"
         id="path66"
         style="fill:#aad543" />
      <path
         class="st15"
         d="m 440.7,555.6 c -5.1,-0.4 -10.2,-0.8 -15.3,-1.2 2.6,-19.6 1.4,-39.3 -3.2,-58.1 3.6,-1 7.2,-2.1 10.8,-3.2 6.4,19.8 9.1,41 7.7,62.5 z"
         id="path69"
         style="opacity:0.49;fill:#aad543" />
      <path
         class="st12"
         d="m 440.7,555.6 c -5.1,-0.4 -10.2,-0.8 -15.3,-1.2 2.6,-19.6 1.4,-39.3 -3.2,-58.1 3.6,-1 7.2,-2.1 10.8,-3.2 6.4,19.8 9.1,41 7.7,62.5 z"
         id="path72"
         style="fill:none;stroke:#2a2a2a;stroke-width:6;stroke-linecap:round;stroke-linejoin:round;stroke-miterlimit:10" />
      <path
         id="XMLID_62_-5"
         class="st9"
         d="M 676.2,649.7 532.6,634.5 C 510.1,632.3 493,613.4 493,590.8 l -2.3,-18.4 c -3.2,-27.1 -23.4,-36 -43.7,-36 -29,0 -33.5,19.7 -34.1,56.9 2.1,0.9 4.3,1 7.8,1.2 0.9,11.3 -3.8,21.5 -7.7,28.1 2.5,37.9 26,65.7 59.8,65.7 h 216.8 c 5.4,0 14.2,-0.8 21.7,-1.6 7.5,-0.8 11.3,-9.5 6.7,-15.5 -7.8,-10.1 -15.8,-16.9 -41.8,-21.5 z"
         style="fill:#ffffff" />
      <path
         id="XMLID_61_"
         class="st15"
         d="M 676.2,649.7 532.6,634.5 C 510.1,632.3 493,613.4 493,590.8 l -2.3,-18.4 c -3.2,-27.1 -23.4,-36 -43.7,-36 -29,0 -33.5,19.7 -34.1,56.9 2.1,0.9 4.3,1 7.8,1.2 0.9,11.3 -3.8,21.5 -7.7,28.1 2.5,37.9 26,65.7 59.8,65.7 h 216.8 c 5.4,0 14.2,-0.8 21.7,-1.6 7.5,-0.8 11.3,-9.5 6.7,-15.5 -7.8,-10.1 -15.8,-16.9 -41.8,-21.5 z"
         style="fill:#aad543" />
      <path
         id="XMLID_60_-9"
         class="st17"
         d="m 716.5,669.3 c 0,9.3 -19,10.4 -24.1,10.4 l -214.6,-3.6 c -21.3,0 -36,-5.6 -49.9,-22.6 -3.8,-4.7 -11.6,-19.6 -13.9,-28.1 3.8,42.3 32.2,63.1 58.7,63.1 h 216.8 c 5.4,0 12,-0.8 19.5,-1.6 6.7,-0.8 13.9,-9.2 7.5,-17.6 z"
         style="fill:#8ec42b" />
      <path
         id="XMLID_59_-9"
         class="st18"
         d="m 718.8,668.4 c -7.7,-10.1 -16.5,-14.1 -42.3,-18.6 -0.1,0 -0.2,0 -0.4,-0.1 L 532.7,634.5 c -22.4,-2.1 -39.5,-20.9 -39.6,-43.4 0,-0.2 0,-0.3 0,-0.5 l -2.3,-18.2 c -3.2,-27.1 -23.4,-36 -43.7,-36 -3.3,0 -6.3,0.3 -9,0.8 -5.7,1.1 -5.4,1.7 -11.1,4.5 -6.7,3.4 -12.3,25.6 -12.3,25.7 0.8,18.4 0.8,-17.3 19.7,-22.3 21.8,-5.8 41.9,1.8 45.6,27.8 0,0 2.5,24.3 3.4,30.4 3.3,22.2 21.5,37.9 43.9,40.1 L 668.4,660 c 0.1,0 -3.8,-4 -3.7,-4 25.8,4.6 52.5,7.5 54.1,20.1 0,0.2 -2.8,4.4 -2.7,4.6 1.2,1.2 1.1,1.5 2.7,-1.6 1.7,-3.2 2.4,-7.5 0,-10.7 z"
         style="fill:#c6e65b" />
      <path
         id="XMLID_58_-0"
         class="st12"
         d="M 676.2,649.7 532.6,634.5 C 510.1,632.3 493,613.4 493,590.8 l -2.3,-18.4 c -3.2,-27.1 -23.4,-36 -43.7,-36 -29,0 -33.5,19.7 -34.1,56.9 2.1,0.9 4.3,1 7.8,1.2 0.9,11.3 -3.8,21.5 -7.7,28.1 2.5,37.9 26,65.7 59.8,65.7 h 216.8 c 5.4,0 17.5,-1.1 23.7,-5.3 7.6,-5.2 7.8,-12.8 2.5,-18.1 -7.5,-7.5 -13.6,-10.6 -39.6,-15.2 z"
         style="fill:none;stroke:#2a2a2a;stroke-width:6;stroke-linecap:round;stroke-linejoin:round;stroke-miterlimit:10" />
      <path
         id="XMLID_57_"
         class="st13"
         d="m 412.9,593.4 c 0,0 6.9,3.9 30.2,-2.4 0.2,8.6 -12.8,29.6 -30,31.7 1,-1.8 7.1,-13.5 7.6,-21.7 0,-1.5 0.6,-5.4 0.1,-6.4 -5.2,0 -7.9,-1.2 -7.9,-1.2 z"
         style="fill:#2a2a2a" />
      <path
         id="XMLID_56_-76"
         class="st12"
         d="m 412.9,593.4 c 0,0 6.9,3.9 30.2,-2.4 0.2,8.6 -12.8,29.6 -30,31.7 1,-1.8 7.1,-13.5 7.6,-21.7 0,-1.5 0.6,-5.4 0.1,-6.4 -5.2,0 -7.9,-1.2 -7.9,-1.2 z"
         style="fill:none;stroke:#2a2a2a;stroke-width:6;stroke-linecap:round;stroke-linejoin:round;stroke-miterlimit:10" />
      <path
         id="XMLID_55_-3"
         class="st12"
         d="m 440.3,585.8 c 0.3,0.3 5.1,4.9 6.4,9.7"
         style="fill:none;stroke:#2a2a2a;stroke-width:6;stroke-linecap:round;stroke-linejoin:round;stroke-miterlimit:10" />
      <path
         id="XMLID_54_-7"
         class="st15"
         d="m 472.2,556.2 c -5.4,-0.4 -10.7,-0.9 -16.1,-1.3 3.4,-27.4 1.5,-54.9 -5.2,-81 3.8,-1.1 7.6,-2.2 11.4,-3.3 8.4,27.1 12,56.1 9.9,85.6 z"
         style="fill:#aad543" />
      <path
         id="XMLID_53_-6"
         class="st17"
         d="m 462.3,470.6 c -2.5,0.7 -4.9,1.4 -7.4,2.2 3.4,9.1 2.4,32.5 4.1,32.3 1.7,-0.2 5.2,-1.3 5.6,0.3 3.1,14.5 4.8,30.1 4.8,48.4 2.4,0.2 0.4,2.3 2.8,2.5 2.1,-29.6 -1.5,-58.6 -9.9,-85.7 z"
         style="fill:#8ec42b" />
      <path
         id="XMLID_52_-1"
         class="st12"
         d="m 457,546.2 c 2,-24.5 -0.1,-48.9 -6.1,-72.2 3.8,-1.1 7.6,-2.2 11.4,-3.3 8.5,27.1 12,56.1 9.9,85.6"
         style="fill:none;stroke:#2a2a2a;stroke-width:6;stroke-linecap:round;stroke-linejoin:round;stroke-miterlimit:10" />
      <circle
         id="XMLID_51_-5"
         class="st15"
         cx="422.5"
         cy="480.5"
         r="24.299999"
         style="fill:#aad543" />
      <circle
         id="XMLID_50_-0"
         class="st12"
         cx="422.5"
         cy="480.5"
         r="24.299999"
         style="fill:none;stroke:#2a2a2a;stroke-width:6;stroke-linecap:round;stroke-linejoin:round;stroke-miterlimit:10" />
      <circle
         id="XMLID_48_-6"
         class="st9"
         cx="419.89999"
         cy="484.39999"
         r="19.9"
         style="fill:#ffffff" />
      <circle
         id="XMLID_47_-5"
         class="st13"
         cx="414.60001"
         cy="487.29999"
         r="7.4000001"
         style="fill:#2a2a2a" />
      <circle
         id="XMLID_46_-0"
         class="st12"
         cx="419.89999"
         cy="484.39999"
         r="19.9"
         style="fill:none;stroke:#2a2a2a;stroke-width:6;stroke-linecap:round;stroke-linejoin:round;stroke-miterlimit:10" />
      <circle
         id="XMLID_43_-8"
         class="st15"
         cx="461.5"
         cy="463.60001"
         r="32.799999"
         style="fill:#aad543" />
      <circle
         id="XMLID_42_-1"
         class="st12"
         cx="461.5"
         cy="463.60001"
         r="32.799999"
         style="fill:none;stroke:#2a2a2a;stroke-width:6;stroke-linecap:round;stroke-linejoin:round;stroke-miterlimit:10" />
      <circle
         id="XMLID_40_-2"
         class="st9"
         cx="457.89999"
         cy="468.79999"
         r="26.9"
         style="fill:#ffffff" />
      <circle
         id="XMLID_39_-2"
         class="st13"
         cx="450.70001"
         cy="472.70001"
         r="9.8999996"
         style="fill:#2a2a2a" />
      <circle
         id="XMLID_38_-6"
         class="st12"
         cx="457.89999"
         cy="468.79999"
         r="26.9"
         style="fill:none;stroke:#2a2a2a;stroke-width:6;stroke-linecap:round;stroke-linejoin:round;stroke-miterlimit:10" />
      <path
         id="XMLID_35_-9"
         class="st19"
         d="M 612.2,624.5"
         style="fill:#e9342b" />
      <path
         id="XMLID_34_-10"
         class="st20"
         d="m 543.8,653.4 c -15.9,-2.2 -31.4,-28.1 -31.4,-62.5 0,-54.8 42.7,-95.3 95.3,-95.3 52.6,0 95.3,42.7 95.3,95.4 0,52.7 -42.7,95.3 -95.3,95.3 -26.3,0 -63.8,-12.1 -70,-51.4 -6.2,-39.3 18.3,-76.6 61.3,-79.1 27.9,-1.6 53.2,21.2 53.2,49.1 0,27.9 -23.3,48.7 -44.5,48.7 -21,0 -32.2,-13 -32.2,-28.6 0,-15.6 10.6,-26.2 26.2,-26.2 10.4,0 15.8,9.9 15.4,17.5"
         style="fill:#ee368c" />
      <path
         id="XMLID_33_-4"
         class="st21"
         d="m 586.7,648.3 c 0,0 41.6,12 65.2,-37.7 -6.4,19 -8.6,29.1 -26.5,38.5 -20.9,4.4 -19.1,6.6 -38.7,-0.8 z"
         style="fill:#e41b64" />
      <path
         id="XMLID_25_-27"
         class="st21"
         d="m 679.2,528.7 c 11.7,15.8 19.5,31.3 20.9,47.8 5.2,63.3 -56.4,106.8 -106.9,101.5 -21.5,-2.2 -34,-10.5 -49.3,-24.6 l -16.6,-11.3 c -5,-0.7 -1.8,-5.5 -6.3,-10.3 6,12.4 14.4,20.4 22.9,21.5 v 0 c 13.1,24.7 42.3,32.9 63.9,32.9 52.6,0 95.3,-42.7 95.3,-95.3 -0.1,-22.1 -7.3,-45.6 -23.9,-62.2 z"
         style="fill:#e41b64" />
      <path
         id="XMLID_24_-4"
         class="st22"
         d="m 517.8,599.6 c 0,-54.8 42.7,-95.3 95.3,-95.3 32.1,0 60.6,15.9 77.8,40.3 -16.3,-29.2 -47.5,-48.9 -83.3,-48.9 -52.6,0 -95.3,40.5 -95.3,95.3 0,21.8 6.2,40.1 14.8,51.2 -5.6,-11 -9.3,-25.8 -9.3,-42.6 z"
         style="opacity:0.39;fill:#fffffb" />
      <path
         id="XMLID_23_-0"
         class="st22"
         d="m 545.2,656 c -0.5,-0.8 -1,-1.7 -1.5,-2.6 l 0.5,-0.2 c -0.9,-2.9 -1.6,-5.9 -2.1,-9.1 -6.2,-39.3 18.3,-76.6 61.3,-79.1 18.9,-1.1 36.6,9 46,24.3 -7.2,-20.3 -28,-34.8 -50.5,-33.5 -43,2.4 -67.5,39.8 -61.3,79.1 1.1,7 3.2,13.2 6.1,18.6"
         style="opacity:0.39;fill:#fffffb" />
      <path
         id="XMLID_229_"
         class="st22"
         d="m 577.6,636.3 c -1.5,-3.5 -2.2,-7.3 -2.2,-11.3 0,-15.6 10.6,-26.2 26.2,-26.2 7.3,0 12.1,2.9 14.2,8.4 -2.4,-2 -7,-3.6 -10.8,-3.6 -20,0 -26.4,14.6 -26.4,30.3 0,1 0.2,1.5 0.3,2.4 z"
         style="opacity:0.39;fill:#fffffb" />
      <path
         id="XMLID_228_"
         class="st12"
         d="m 543.8,653.4 c -15.9,-2.2 -31.4,-28.1 -31.4,-62.5 0,-54.8 42.7,-95.3 95.3,-95.3 52.6,0 95.3,42.7 95.3,95.4 0,52.7 -42.7,95.3 -95.3,95.3 -26.3,0 -63.8,-12.1 -70,-51.4 -6.2,-39.3 18.3,-76.6 61.3,-79.1 27.9,-1.6 53.2,21.2 53.2,49.1 0,27.9 -23.3,48.7 -44.5,48.7 -21,0 -32.2,-13 -32.2,-28.6 0,-15.6 10.6,-27.3 26.2,-26.2 14.2,1 18.9,13.6 15.4,19.1"
         style="fill:none;stroke:#2a2a2a;stroke-width:6;stroke-linecap:round;stroke-linejoin:round;stroke-miterlimit:10" />
      <line
         id="XMLID_17_-3"
         class="st12"
         x1="790.59998"
         y1="689.5"
         x2="792.09998"
         y2="689.5"
         style="fill:none;stroke:#2a2a2a;stroke-width:6;stroke-linecap:round;stroke-linejoin:round;stroke-miterlimit:10" />
      <line
         id="XMLID_16_-2"
         class="st12"
         x1="754.20001"
         y1="689.5"
         x2="780"
         y2="689.5"
         style="fill:none;stroke:#2a2a2a;stroke-width:6;stroke-linecap:round;stroke-linejoin:round;stroke-miterlimit:10" />
      <line
         id="XMLID_15_-8"
         class="st12"
         x1="738.40002"
         y1="689.5"
         x2="745.09998"
         y2="689.5"
         style="fill:none;stroke:#2a2a2a;stroke-width:6;stroke-linecap:round;stroke-linejoin:round;stroke-miterlimit:10" />
      <line
         id="XMLID_14_-0"
         class="st12"
         x1="422.10001"
         y1="689.5"
         x2="729.40002"
         y2="689.5"
         style="fill:none;stroke:#2a2a2a;stroke-width:6;stroke-linecap:round;stroke-linejoin:round;stroke-miterlimit:10" />
      <line
         id="XMLID_13_-3"
         class="st12"
         x1="400.70001"
         y1="689.5"
         x2="408.60001"
         y2="689.5"
         style="fill:none;stroke:#2a2a2a;stroke-width:6;stroke-linecap:round;stroke-linejoin:round;stroke-miterlimit:10" />
      <line
         id="XMLID_12_-7"
         class="st12"
         x1="365"
         y1="689.5"
         x2="386.89999"
         y2="689.5"
         style="fill:none;stroke:#2a2a2a;stroke-width:6;stroke-linecap:round;stroke-linejoin:round;stroke-miterlimit:10" />
    </g>
  </g>
</svg>
