<?xml version="1.0" encoding="UTF-8" standalone="no"?>
<!-- Created with Inkscape (http://www.inkscape.org/) -->

<svg
   width="38.122993mm"
   height="41.927814mm"
   viewBox="0 0 38.122994 41.927815"
   version="1.1"
   id="svg2469"
   xmlns="http://www.w3.org/2000/svg"
   xmlns:svg="http://www.w3.org/2000/svg">
  <defs
     id="defs2466" />
  <g
     id="layer1"
     transform="translate(-51.865013,-3.1760191)"
     style="display:inline">
    <g
       id="g2536"
       transform="translate(37.717,-58.007)">
      <g
         id="g1415"
         style="display:inline">
        <g
           id="g1579"
           transform="matrix(0.130813,0,0,0.130813,-51.1854,7.56502)">
          <polygon
             id="XMLID_67_-5"
             class="st11"
             points="564.4,591.3 544,584.4 557.5,602.4 "
             style="fill:#f0406f" />
          <polygon
             id="XMLID_114_-4"
             class="st2"
             points="564.4,591.3 544,584.4 557.5,602.4 "
             style="fill:none;stroke:#3d0938;stroke-width:4;stroke-linecap:round;stroke-linejoin:round;stroke-miterlimit:10" />
          <polygon
             id="XMLID_66_-2"
             class="st11"
             points="576.3,584.7 553.4,565.9 564.4,591.3 "
             style="fill:#f0406f" />
          <polygon
             id="XMLID_115_-2"
             class="st2"
             points="576.3,584.7 553.4,565.9 564.4,591.3 "
             style="fill:none;stroke:#3d0938;stroke-width:4;stroke-linecap:round;stroke-linejoin:round;stroke-miterlimit:10" />
          <path
             id="XMLID_64_-1"
             class="st12"
             d="m 743.5,604.9 c -9.5,1.2 -30.8,2.2 -55.2,-6.6 -33.1,-11.9 -50,-9.9 -57.3,-7.7 0,0 0,0 0,0 -2.5,0.7 -5,1.6 -7.5,2.7 -21.6,10.1 -30.9,35.9 -20.7,57.4 6.4,13.7 19.1,22.4 33,24.4 0,0 0,0 0,0 0,0 0.4,0.1 1.2,0.1 0.2,0 0.4,0 0.6,0.1 5.2,0.6 20.8,1.9 31.4,-1.4 11,-5.2 -5,-10.7 -5,-10.7 0,0 12.5,3.5 21.9,-1.3 13.8,-7.1 -1.6,-12.1 -1.6,-12.1 0,0 13.6,4.1 23.6,-5.1 6.3,-5.8 0.8,-7.8 -4.2,-8.5 7,0.1 18.6,-0.9 22.5,-8.2 2.8,-5.2 -3.5,-6.4 -8.2,-6.6 5.9,-0.2 16.4,-1.4 22.4,-6 2.8,-2.2 4.7,-4.1 6,-5.7 1.6,-2 -0.2,-5.1 -2.9,-4.8 z"
             style="fill:#d4907f" />
          <path
             id="XMLID_62_-7"
             class="st2"
             d="m 743.5,604.9 c -9.5,1.2 -30.8,2.2 -55.2,-6.6 -33.1,-11.9 -50,-9.9 -57.3,-7.7 0,0 0,0 0,0 -2.5,0.7 -5,1.6 -7.5,2.7 -21.6,10.1 -30.9,35.9 -20.7,57.4 6.4,13.7 19.1,22.4 33,24.4 0,0 0,0 0,0 0,0 0.4,0.1 1.2,0.1 0.2,0 0.4,0 0.6,0.1 5.2,0.6 20.8,1.9 31.4,-1.4 11,-5.2 -5,-10.7 -5,-10.7 0,0 12.5,3.5 21.9,-1.3 13.8,-7.1 -1.6,-12.1 -1.6,-12.1 0,0 13.6,4.1 23.6,-5.1 6.3,-5.8 0.8,-7.8 -4.2,-8.5 7,0.1 18.6,-0.9 22.5,-8.2 2.8,-5.2 -6.1,-6.5 -10.7,-6.7 5.9,-0.2 18.9,-1.3 24.9,-5.9 2.8,-2.2 4.7,-4.1 6,-5.7 1.6,-2 -0.2,-5.1 -2.9,-4.8 z"
             style="fill:none;stroke:#3d0938;stroke-width:4;stroke-linecap:round;stroke-linejoin:round;stroke-miterlimit:10" />
          <path
             id="XMLID_98_-2"
             class="st13"
             d="m 678.9,682.6 c 0,0 20.8,4.8 50.6,23.1 29.9,18.2 42.3,13.9 42.3,13.9"
             style="fill:none;stroke:#3d0938;stroke-width:5;stroke-linecap:round;stroke-linejoin:round;stroke-miterlimit:10" />
          <path
             id="XMLID_107_-41"
             class="st13"
             d="m 736.6,727.9 c 0,0 -13.7,-0.5 -27.3,-18.2 -13.6,-17.7 -19,-26.2 -24.7,-26.6"
             style="fill:none;stroke:#3d0938;stroke-width:5;stroke-linecap:round;stroke-linejoin:round;stroke-miterlimit:10" />
          <path
             id="XMLID_65_-6"
             class="st11"
             d="m 787.4,647.7 c 0.9,-1 1.7,-2.7 1.4,-4.4 -0.1,-0.4 -0.4,-1.5 -1.4,-2.2 -1,-0.8 -2.4,-1.1 -3.9,-0.8 3,-0.7 4.9,-3.4 4.5,-6 0,0 0,0 0,0 0,0 0,0 0,0 -0.5,-2.6 -3.3,-4.5 -6.3,-4.1 1.5,-0.2 2.7,-1 3.4,-2.1 0.6,-1 0.6,-2.1 0.5,-2.6 -0.2,-1.7 -1.6,-3 -2.8,-3.6 -2.6,-1.3 -5.9,0.1 -8.7,1.3 -5.5,2.3 -8.9,5.8 -11.3,8.3 -1.8,1.9 -4.3,4.7 -6.6,8.6 0,0 0,0 0,0 0,0 0,0 0,0 3.5,2.8 6.8,4.6 9.1,5.7 3.1,1.5 7.5,3.5 13.5,3.8 3,0.1 6.6,0.2 8.6,-1.9 z"
             style="fill:#f0406f" />
          <path
             id="XMLID_109_-5"
             class="st14"
             d="m 786.9,643.3 c -0.1,-0.4 -0.4,-1.5 -1.4,-2.2 -0.2,-0.1 -0.4,-0.2 -0.6,-0.4 -0.3,0.7 -0.7,1.2 -1.1,1.7 -2,2.1 -5.6,2 -8.6,1.9 -6,-0.3 -10.4,-2.3 -13.5,-3.8 -1.6,-0.7 -3.5,-1.8 -5.7,-3.2 -0.6,0.9 -1.2,1.8 -1.8,2.8 0,0 0,0 0,0 0,0 0,0 0,0 3.5,2.8 6.8,4.6 9.1,5.7 3.1,1.5 7.5,3.5 13.5,3.8 3,0.1 6.6,0.2 8.6,-1.9 1.1,-1 1.9,-2.7 1.5,-4.4 z"
             style="fill:#db2c62" />
          <path
             id="XMLID_167_"
             class="st14"
             d="m 781.6,622.9 c -0.7,1.1 -1.9,1.9 -3.4,2.1 2.2,-0.3 4.3,0.7 5.4,2.2 0.2,-0.7 0.1,-1.3 0.1,-1.6 -0.2,-1.3 -1,-2.4 -1.9,-3.1 -0.1,0.1 -0.1,0.2 -0.2,0.4 z"
             style="fill:#db2c62" />
          <path
             id="XMLID_100_-7"
             class="st15"
             d="m 754.3,640 c 0.3,0.2 0.6,0.4 0.9,0.7 1.3,-1.8 2.6,-3.2 3.7,-4.3 2.4,-2.5 5.8,-5.9 11.3,-8.3 2.8,-1.2 6.1,-2.5 8.7,-1.3 1,0.5 2.1,1.5 2.6,2.8 0.7,-0.4 1.3,-0.9 1.7,-1.5 0.6,-1 0.6,-2.1 0.5,-2.6 -0.2,-1.7 -1.6,-3 -2.8,-3.6 -2.6,-1.3 -5.9,0.1 -8.7,1.3 -5.5,2.3 -8.9,5.8 -11.3,8.3 -1.8,1.9 -4.3,4.7 -6.6,8.5 0,0 0,0 0,0 0,0 0,0 0,0 z"
             style="fill:#f96291" />
          <path
             id="XMLID_8_-8"
             class="st2"
             d="m 787.4,647.7 c 0.9,-1 1.7,-2.7 1.4,-4.4 -0.1,-0.4 -0.4,-1.5 -1.4,-2.2 -1,-0.8 -2.4,-1.1 -3.9,-0.8 3,-0.7 4.9,-3.4 4.5,-6 0,0 0,0 0,0 0,0 0,0 0,0 -0.5,-2.6 -3.3,-4.5 -6.3,-4.1 1.5,-0.2 2.7,-1 3.4,-2.1 0.6,-1 0.6,-2.1 0.5,-2.6 -0.2,-1.7 -1.6,-3 -2.8,-3.6 -2.6,-1.3 -5.9,0.1 -8.7,1.3 -5.5,2.3 -8.9,5.8 -11.3,8.3 -1.8,1.9 -4.3,4.7 -6.6,8.6 0,0 0,0 0,0 0,0 0,0 0,0 3.5,2.8 6.8,4.6 9.1,5.7 3.1,1.5 7.5,3.5 13.5,3.8 3,0.1 6.6,0.2 8.6,-1.9 z"
             style="fill:none;stroke:#3d0938;stroke-width:4;stroke-linecap:round;stroke-linejoin:round;stroke-miterlimit:10" />
          <path
             id="XMLID_57_-5"
             class="st16"
             d="m 756.1,640.1 c 0,0 -45.5,4.1 -92.1,-29.6 -15.9,-11.5 -26.3,-18.9 -33.1,-23.5 -3.3,-3 -7.1,-5.6 -11.3,-7.5 -1.5,-0.9 -1.4,-0.7 -1.4,-0.7 v 0 c -5.6,-2.4 -11.9,-3.8 -18.4,-3.8 -25.6,0 -46.4,20.8 -46.4,46.4 0,17.4 9.6,32.6 23.8,40.5 v 0 c 0,0 0.1,0.1 0.3,0.1 1.8,1 3.7,1.8 5.6,2.6 21,8.8 95.2,33.3 173,-24.5 z"
             style="fill:#f1cb9c" />
          <path
             id="XMLID_95_"
             class="st17"
             d="m 599.8,580.4 c 6.5,0 12.8,1.4 18.4,3.8 v 0 c 0,0 -0.1,-0.2 1.4,0.7 4.1,2 7.9,4.5 11.3,7.5 6.8,4.7 17.1,12 33.1,23.5 36.2,26.1 74,27.2 88.1,27.4 2.1,-1.5 1.9,-0.6 4,-2.2 0,0 -45.5,4.1 -92.1,-29.6 -15.9,-11.5 -26.3,-18.9 -33.1,-23.5 -3.3,-3 -7.1,-5.6 -11.3,-7.5 -1.5,-0.9 -1.4,-0.7 -1.4,-0.7 v 0 c -5.6,-2.4 -11.9,-3.8 -18.4,-3.8 -25.6,0 -46.4,20.8 -46.4,46.4 0,0.7 0,1.3 0.1,1.9 1.3,-24.5 21.5,-43.9 46.3,-43.9 z"
             style="fill:#f8e4c1" />
          <path
             id="XMLID_68_-9"
             class="st12"
             d="m 744.8,640 c -72.5,45.3 -139.2,23.3 -158.9,14.9 -1.9,-0.7 -3.8,-1.6 -5.6,-2.6 -0.2,-0.1 -0.3,-0.1 -0.3,-0.1 v 0 c -14.2,-7.9 -23.8,-23.1 -23.8,-40.5 0,-2.8 0.3,-5.5 0.7,-8.2 -2.3,5.5 -3.6,11.5 -3.6,17.8 0,17.4 9.6,32.6 23.8,40.5 v 0 c 0,0 0.1,0.1 0.3,0.1 1.8,1 3.7,1.8 5.6,2.6 21,8.9 95.2,33.3 173,-24.5 0.1,0.1 -4.1,0.4 -11.2,0 z"
             style="fill:#d4907f" />
          <path
             id="XMLID_112_-2"
             class="st2"
             d="m 756.1,640.1 c 0,0 -45.5,4.1 -92.1,-29.6 -15.9,-11.5 -26.3,-18.9 -33.1,-23.5 -3.3,-3 -7.1,-5.6 -11.3,-7.5 -1.5,-0.9 -1.4,-0.7 -1.4,-0.7 v 0 c -5.6,-2.4 -11.9,-3.8 -18.4,-3.8 -25.6,0 -46.4,20.8 -46.4,46.4 0,17.4 9.6,32.6 23.8,40.5 v 0 c 0,0 0.1,0.1 0.3,0.1 1.8,1 3.7,1.8 5.6,2.6 21,8.8 95.2,33.3 173,-24.5 z"
             style="fill:none;stroke:#3d0938;stroke-width:4;stroke-linecap:round;stroke-linejoin:round;stroke-miterlimit:10" />
          <path
             id="XMLID_63_"
             class="st18"
             d="m 723.2,682.9 c -9.1,-3 -28.8,-11.1 -47.1,-29.4 -24.9,-24.9 -41.1,-30.3 -48.6,-31.3 0,0 0,0 0,0 -2.6,-0.5 -5.2,-0.7 -7.9,-0.7 -23.8,0 -43.2,19.3 -43.2,43.2 0,15.1 7.8,28.4 19.5,36.1 v 0 c 0,0 0.4,0.2 1,0.6 0.2,0.1 0.3,0.2 0.5,0.3 4.4,2.7 18,10.6 29,12.1 12.2,0 0,-11.8 0,-11.8 0,0 9.8,8.5 20.3,8.1 15.5,-0.5 3.7,-11.7 3.7,-11.7 0,0 10.5,9.5 23.5,5.4 8.2,-2.6 4,-6.7 -0.2,-9.5 6.3,3.1 17.2,7.2 23.9,2.2 4.7,-3.5 -0.5,-7.3 -4.6,-9.5 5.5,2.3 15.4,5.7 22.8,4.1 3.5,-0.8 6,-1.7 7.9,-2.6 2.4,-1.1 2.1,-4.7 -0.5,-5.6 z"
             style="fill:#efab89" />
          <path
             id="XMLID_101_-7"
             class="st12"
             d="m 627.3,704.7 c -11,-1.5 -24.6,-9.4 -29,-12.1 -0.2,-0.1 -0.3,-0.2 -0.5,-0.3 -0.6,-0.4 -1,-0.6 -1,-0.6 v 0 c -11.7,-7.7 -19.5,-21 -19.5,-36.1 0,-0.1 0,-0.2 0,-0.3 -0.7,3 -1,6.1 -1,9.3 0,15.1 7.8,28.4 19.5,36.1 v 0 c 0,0 0.4,0.2 1,0.6 0.2,0.1 0.3,0.2 0.5,0.3 4.4,2.7 18,10.6 29,12.1 8.4,0 5.2,-5.6 2.5,-9.1 -0.5,0.1 -1,0.1 -1.5,0.1 z"
             style="fill:#d4907f" />
          <path
             id="XMLID_103_-3"
             class="st12"
             d="m 723.2,682.9 c -1.1,-0.4 -2.4,-0.8 -3.9,-1.4 -0.8,0.2 -2,-0.1 -2.6,0.6 -3.7,5.2 -24.3,2.7 -29.7,0.4 4.1,2.2 3.3,3.3 11.6,4.9 0.7,0.1 -1.1,0.7 -1.7,1 5.6,2 13,3.9 18.9,2.6 3.5,-0.8 6,-1.7 7.9,-2.6 2.4,-1 2.1,-4.6 -0.5,-5.5 z"
             style="fill:#d4907f" />
          <path
             id="XMLID_111_-64"
             class="st12"
             d="m 647.6,701 c -10.6,0.4 -25.5,-7.4 -25.5,-7.4 -2.3,1.7 -3.5,-0.5 7.6,10.8 3.8,2.5 10.1,5.8 16.8,5.6 11.3,-0.4 8.1,-6.4 5.5,-9.6 -1,0.4 -2.5,0.6 -4.4,0.6 z"
             style="fill:#d4907f" />
          <path
             id="XMLID_118_-7"
             class="st12"
             d="m 674.5,694.9 c -12.9,3.8 -28.2,-3.3 -28.2,-3.3 0,0 0.9,3.7 6.4,8.6 3.8,2.5 11.8,6.5 21.1,3.6 7.7,-2.4 4.6,-6.2 0.7,-8.9 z"
             style="fill:#d4907f" />
          <path
             id="XMLID_119_-9"
             class="st12"
             d="m 696,688.9 c -5.3,4.7 -23.1,1.2 -28.7,-1.5 4.2,2.7 4.2,4.9 7.5,7.4 0,0 -0.1,0 -0.1,0 6.4,3 16.5,6.4 22.8,1.7 3.6,-2.6 1.6,-5.4 -1.5,-7.6 z"
             style="fill:#d4907f" />
          <path
             id="XMLID_113_-7"
             class="st2"
             d="m 723.2,682.9 c -9.1,-3 -28.8,-11.1 -47.1,-29.4 -24.9,-24.9 -41.1,-30.3 -48.6,-31.3 0,0 0,0 0,0 -2.6,-0.5 -5.2,-0.7 -7.9,-0.7 -23.8,0 -43.2,19.3 -43.2,43.2 0,15.1 7.8,28.4 19.5,36.1 v 0 c 0,0 0.4,0.2 1,0.6 0.2,0.1 0.3,0.2 0.5,0.3 4.4,2.7 18,10.6 29,12.1 12.2,0 0,-11.8 0,-11.8 0,0 9.8,8.5 20.3,8.1 15.5,-0.5 3.7,-11.7 3.7,-11.7 0,0 10.5,9.5 23.5,5.4 8.2,-2.6 4,-6.7 -0.2,-9.5 6.3,3.1 17.2,7.2 23.9,2.2 4.7,-3.5 -0.5,-7.3 -4.6,-9.5 5.5,2.3 15.4,5.7 22.8,4.1 3.5,-0.8 6,-1.7 7.9,-2.6 2.4,-1.1 2.1,-4.7 -0.5,-5.6 z"
             style="fill:none;stroke:#3d0938;stroke-width:4;stroke-linecap:round;stroke-linejoin:round;stroke-miterlimit:10" />
          <path
             id="XMLID_30_-2"
             class="st2"
             d="m 581.1,601.4 c 0,0 0.6,11 10.8,11 8.9,0 11.4,-4.2 11.4,-4.2"
             style="fill:none;stroke:#3d0938;stroke-width:4;stroke-linecap:round;stroke-linejoin:round;stroke-miterlimit:10" />
          <line
             id="XMLID_58_-2"
             class="st2"
             x1="577.70001"
             y1="608.09998"
             x2="582.70001"
             y2="606.90002"
             style="fill:none;stroke:#3d0938;stroke-width:4;stroke-linecap:round;stroke-linejoin:round;stroke-miterlimit:10" />
          <line
             id="XMLID_59_-1"
             class="st2"
             x1="582.70001"
             y1="613.70001"
             x2="585.09998"
             y2="610.09998"
             style="fill:none;stroke:#3d0938;stroke-width:4;stroke-linecap:round;stroke-linejoin:round;stroke-miterlimit:10" />
          <line
             id="XMLID_60_-6"
             class="st2"
             x1="590.29999"
             y1="612.40002"
             x2="590.29999"
             y2="616.5"
             style="fill:none;stroke:#3d0938;stroke-width:4;stroke-linecap:round;stroke-linejoin:round;stroke-miterlimit:10" />
          <line
             id="XMLID_61_-3"
             class="st2"
             x1="598.59998"
             y1="611.40002"
             x2="600.5"
             y2="616.5"
             style="fill:none;stroke:#3d0938;stroke-width:4;stroke-linecap:round;stroke-linejoin:round;stroke-miterlimit:10" />
          <path
             id="XMLID_69_-0"
             class="st19"
             d="m 605.8,641.8 c 0,0 3.4,3.9 7.2,0"
             style="fill:none;stroke:#3d0938;stroke-width:3;stroke-linecap:round;stroke-linejoin:round;stroke-miterlimit:10" />
          <path
             id="XMLID_70_-2"
             class="st19"
             d="m 594.4,659.6 c 0,0 6.9,2.8 9.7,-3.7"
             style="fill:none;stroke:#3d0938;stroke-width:3;stroke-linecap:round;stroke-linejoin:round;stroke-miterlimit:10" />
          <path
             id="XMLID_71_-1"
             class="st19"
             d="m 595.1,676.5 c 0,0 4.9,1.9 6.8,-2.6"
             style="fill:none;stroke:#3d0938;stroke-width:3;stroke-linecap:round;stroke-linejoin:round;stroke-miterlimit:10" />
          <path
             id="XMLID_74_-56"
             class="st19"
             d="m 636,655 c 0,0 4.2,3.2 7.3,-0.6"
             style="fill:none;stroke:#3d0938;stroke-width:3;stroke-linecap:round;stroke-linejoin:round;stroke-miterlimit:10" />
          <path
             id="XMLID_77_-5"
             class="st19"
             d="m 648.5,679.5 c 0,0 4.2,3.2 7.3,-0.6"
             style="fill:none;stroke:#3d0938;stroke-width:3;stroke-linecap:round;stroke-linejoin:round;stroke-miterlimit:10" />
          <path
             id="XMLID_78_-0"
             class="st19"
             d="m 657.6,666 c 0,0 4.2,3.2 7.3,-0.6"
             style="fill:none;stroke:#3d0938;stroke-width:3;stroke-linecap:round;stroke-linejoin:round;stroke-miterlimit:10" />
          <path
             id="XMLID_75_-03"
             class="st19"
             d="m 631.3,668.2 c 0,0 4.2,3.2 7.3,-0.6"
             style="fill:none;stroke:#3d0938;stroke-width:3;stroke-linecap:round;stroke-linejoin:round;stroke-miterlimit:10" />
          <path
             id="XMLID_9_-4"
             class="st19"
             d="m 667.5,603 c 0,0 4.2,3.2 7.3,-0.6"
             style="fill:none;stroke:#3d0938;stroke-width:3;stroke-linecap:round;stroke-linejoin:round;stroke-miterlimit:10" />
          <path
             id="XMLID_7_-66"
             class="st19"
             d="m 696,625.6 c 0,0 4.2,3.2 7.3,-0.6"
             style="fill:none;stroke:#3d0938;stroke-width:3;stroke-linecap:round;stroke-linejoin:round;stroke-miterlimit:10" />
          <path
             id="XMLID_6_-02"
             class="st19"
             d="m 696.1,615.2 c 0,0 4.9,1.9 6.8,-2.7"
             style="fill:none;stroke:#3d0938;stroke-width:3;stroke-linecap:round;stroke-linejoin:round;stroke-miterlimit:10" />
          <path
             id="XMLID_3_-5"
             class="st19"
             d="m 681.3,613 c 0,0 5.2,0.6 5.9,-4.3"
             style="fill:none;stroke:#3d0938;stroke-width:3;stroke-linecap:round;stroke-linejoin:round;stroke-miterlimit:10" />
          <path
             id="XMLID_76_-89"
             class="st19"
             d="m 617.6,681.1 c 0,0 5,1.7 6.7,-2.8"
             style="fill:none;stroke:#3d0938;stroke-width:3;stroke-linecap:round;stroke-linejoin:round;stroke-miterlimit:10" />
          <path
             id="XMLID_72_-5"
             class="st19"
             d="m 615.9,653.5 c 0,0 5.4,3.9 9.2,-1.1"
             style="fill:none;stroke:#3d0938;stroke-width:3;stroke-linecap:round;stroke-linejoin:round;stroke-miterlimit:10" />
          <path
             id="XMLID_73_-0"
             class="st19"
             d="m 613,666.1 c 0,0 5.4,3.9 9.2,-1.1"
             style="fill:none;stroke:#3d0938;stroke-width:3;stroke-linecap:round;stroke-linejoin:round;stroke-miterlimit:10" />
          <path
             id="XMLID_79_-6"
             class="st2"
             d="m 620.6,694.3 c 0,0 0.8,2.7 5.7,7.6"
             style="fill:none;stroke:#3d0938;stroke-width:4;stroke-linecap:round;stroke-linejoin:round;stroke-miterlimit:10" />
          <path
             id="XMLID_80_-0"
             class="st2"
             d="m 650.3,698.4 c 0,0 -2.1,-1.3 -5.3,-6"
             style="fill:none;stroke:#3d0938;stroke-width:4;stroke-linecap:round;stroke-linejoin:round;stroke-miterlimit:10" />
          <path
             id="XMLID_81_-8"
             class="st2"
             d="m 673.7,694.3 c 0,0 -4.3,-3 -7.8,-6.9"
             style="fill:none;stroke:#3d0938;stroke-width:4;stroke-linecap:round;stroke-linejoin:round;stroke-miterlimit:10" />
          <path
             id="XMLID_110_-3"
             class="st2"
             d="m 693,687.1 c 0,0 -6.7,-2.8 -8.5,-4.6"
             style="fill:none;stroke:#3d0938;stroke-width:4;stroke-linecap:round;stroke-linejoin:round;stroke-miterlimit:10" />
          <path
             id="XMLID_2_-78"
             class="st11"
             d="m 523.5,503.2 v 0 21.5 c -0.5,-0.1 -1.1,-0.2 -1.7,-0.2 -3.9,0 -7.1,2.7 -7.1,6.1 0,3.4 3.2,6.1 7.1,6.1 3.9,0 7.1,-2.7 7.1,-6.1 v -23.7 l 15.6,-6.6 v 17.1 c -0.5,-0.1 -1.1,-0.2 -1.7,-0.2 -3.9,0 -7.1,2.7 -7.1,6.1 0,3.4 3.2,6.1 7.1,6.1 3.9,0 7.1,-2.7 7.1,-6.1 V 498 495.9 492 Z"
             style="fill:#f0406f" />
          <path
             id="XMLID_123_-2"
             class="st20"
             d="m 523.5,503.2 v 0 21.5 c -0.5,-0.1 -1.1,-0.2 -1.7,-0.2 -3.9,0 -7.1,2.7 -7.1,6.1 0,3.4 3.2,6.1 7.1,6.1 3.9,0 7.1,-2.7 7.1,-6.1 v -23.7 l 15.6,-6.6 v 17.1 c -0.5,-0.1 -1.1,-0.2 -1.7,-0.2 -3.9,0 -7.1,2.7 -7.1,6.1 0,3.4 3.2,6.1 7.1,6.1 3.9,0 7.1,-2.7 7.1,-6.1 V 498 495.9 492 Z"
             style="fill:none;stroke:#3d0938;stroke-width:2;stroke-linecap:round;stroke-linejoin:round;stroke-miterlimit:10" />
          <path
             id="XMLID_121_"
             class="st21"
             d="m 522.2,415.5 v 0 l -7.2,25.7 c -0.3,1.2 -1.6,1.8 -2.8,1.5 0,0 0,0 0,0 -5.1,-1.4 -10.3,1 -11.5,5.4 -1.2,4.4 1.9,9.1 7,10.5 5.1,1.4 10.3,-1 11.5,-5.4 l 8.2,-29.6 c 0.2,-0.8 1,-1.5 1.8,-1.6 l 18,-2.3 c 1.6,-0.2 2.8,1.2 2.4,2.8 l -4.7,16.8 c -0.3,1.2 -1.6,1.8 -2.8,1.5 0,0 0,0 0,0 -5.1,-1.4 -10.3,1 -11.5,5.4 -1.2,4.4 1.9,9.1 7,10.5 5.1,1.4 10.3,-1 11.5,-5.4 l 9.2,-33 0.7,-2.7 0.5,-1.9 c 0.4,-1.5 -0.8,-3 -2.4,-2.8 z"
             style="fill:#21e8a6" />
          <path
             id="XMLID_120_-1"
             class="st20"
             d="m 522.2,415.5 v 0 l -7.2,25.7 c -0.3,1.2 -1.6,1.8 -2.8,1.5 0,0 0,0 0,0 -5.1,-1.4 -10.3,1 -11.5,5.4 -1.2,4.4 1.9,9.1 7,10.5 5.1,1.4 10.3,-1 11.5,-5.4 l 8.2,-29.6 c 0.2,-0.8 1,-1.5 1.8,-1.6 l 18,-2.3 c 1.6,-0.2 2.8,1.2 2.4,2.8 l -4.7,16.8 c -0.3,1.2 -1.6,1.8 -2.8,1.5 0,0 0,0 0,0 -5.1,-1.4 -10.3,1 -11.5,5.4 -1.2,4.4 1.9,9.1 7,10.5 5.1,1.4 10.3,-1 11.5,-5.4 l 9.2,-33 0.7,-2.7 0.5,-1.9 c 0.4,-1.5 -0.8,-3 -2.4,-2.8 z"
             style="fill:none;stroke:#3d0938;stroke-width:2;stroke-linecap:round;stroke-linejoin:round;stroke-miterlimit:10" />
          <path
             id="XMLID_122_-05"
             class="st3"
             d="m 536.5,548.1 -0.8,1.2 c -0.8,1.2 -1.9,2.1 -3.1,2.8 l -6.5,3.7 0.9,3.1 v 0 l 3.5,11.5 c -0.4,0 -0.7,0.1 -1.1,0.2 -2.1,0.6 -3.4,2.6 -2.9,4.5 0.5,1.8 2.7,2.8 4.9,2.2 2,-0.6 2.5,-1.2 2.2,-2.9 l 0.1,-1 -3.5,-12.5 4.4,-2.6 c 1.4,-0.8 2.6,-1.9 3.5,-3.3 l 0.4,-0.6 z"
             style="fill:#e38980" />
          <path
             id="XMLID_125_-8"
             class="st20"
             d="m 537.5,548.1 -0.8,1.2 c -0.8,1.2 -1.9,2.1 -3.1,2.8 l -6.5,3.7 0.9,3.1 v 0 l 3.5,11.5 c -0.4,0 -0.7,0.1 -1.1,0.2 -2.1,0.6 -3.4,2.6 -2.9,4.5 0.5,1.8 2.7,2.8 4.9,2.2 2,-0.6 1.2,-1.4 0.9,-3.2 v 0 l -3.8,-12.6 6.1,-3.2 c 1.4,-0.8 2.6,-1.9 3.5,-3.3 l 0.4,-0.6 z"
             style="fill:none;stroke:#3d0938;stroke-width:2;stroke-linecap:round;stroke-linejoin:round;stroke-miterlimit:10" />
        </g>
      </g>
    </g>
  </g>
</svg>
