<?xml version="1.0" encoding="UTF-8" standalone="no"?>
<!-- Created with Inkscape (http://www.inkscape.org/) -->

<svg
   width="53.40411mm"
   height="79.347839mm"
   viewBox="0 0 53.40411 79.347838"
   version="1.1"
   id="svg1847"
   xmlns="http://www.w3.org/2000/svg"
   xmlns:svg="http://www.w3.org/2000/svg">
  <defs
     id="defs1844" />
  <g
     id="layer10"
     style="display:inline"
     transform="translate(-102.31638,-100.63101)">
    <g
       id="g1287"
       transform="matrix(0.111654,0,0,0.111654,74.4922,83.7331)"
       style="display:inline">
      <path
         id="XMLID_386_"
         class="st1"
         d="m 686.9,850 v 0 c 0,6.6 -5.4,12 -12,12 H 298.4 c -6.6,0 -12,-5.4 -12,-12 v 0 c 0,-6.6 5.4,-12 12,-12 h 113.4 c 6.6,0 12,-5.4 12,-12 v 0 c 0,-6.6 -5.4,-12 -12,-12 h -11.3 c -6.6,0 -12,-5.4 -12,-12 v 0 c 0,-6.6 5.4,-12 12,-12 H 633 c 6.6,0 12,5.4 12,12 v 0 c 0,6.6 -5.4,12 -12,12 h -26.1 c -6.6,0 -12,5.4 -12,12 v 0 c 0,6.6 5.4,12 12,12 h 68 c 6.6,0 12,5.4 12,12 z"
         style="opacity:0.45;fill:#898386" />
      <path
         id="XMLID_385_"
         class="st2"
         d="m 727.5,403.1 v 0 c 0,-13.4 -10.8,-24.2 -24.2,-24.2 H 602.7 c -13.4,0 -24.2,-10.8 -24.2,-24.2 v 0 c 0,-13.4 10.8,-24.2 24.2,-24.2 h 23.7 c 13.4,0 24.2,-10.8 24.2,-24.2 v 0 c 0,-13.4 -10.8,-24.2 -24.2,-24.2 H 362.8 c -13.4,0 -24.2,10.8 -24.2,24.2 v 0 c 0,13.4 10.8,24.2 24.2,24.2 h 25.4 c 13.4,0 24.2,10.8 24.2,24.2 v 0 c 0,13.4 -10.8,24.2 -24.2,24.2 h -80.9 c -13.4,0 -24.2,10.8 -24.2,24.2 v 0 c 0,13.4 10.8,24.2 24.2,24.2 h 7 c 13.4,0 24.2,10.8 24.2,24.2 v 0 c 0,13.4 -10.8,24.2 -24.2,24.2 h -40.9 c -13.4,0 -24.2,10.8 -24.2,24.2 v 0 c 0,13.4 10.8,24.2 24.2,24.2 H 366 c 13.4,0 24.2,10.8 24.2,24.2 v 0 c 0,13.4 -10.8,24.2 -24.2,24.2 h -37.1 c -13.4,0 -24.2,10.8 -24.2,24.2 v 0 c 0,13.4 10.8,24.2 24.2,24.2 H 374 c 13.4,0 24.2,10.8 24.2,24.2 v 0 c 0,13.4 -10.8,24.2 -24.2,24.2 h -2.9 c -13.4,0 -24.2,10.8 -24.2,24.2 v 0 c 0,13.4 10.8,24.2 24.2,24.2 h 242.2 c 13.4,0 24.2,-10.8 24.2,-24.2 v 0 c 0,-13.4 -10.8,-24.2 -24.2,-24.2 h -20.8 c -13.4,0 -24.2,-10.8 -24.2,-24.2 v 0 c 0,-13.4 10.8,-24.2 24.2,-24.2 h 110.8 c 13.4,0 24.2,-10.8 24.2,-24.2 v 0 c 0,-13.4 -10.8,-24.2 -24.2,-24.2 h -28.4 c -13.4,0 -24.2,-10.8 -24.2,-24.2 v 0 c 0,-13.4 10.8,-24.2 24.2,-24.2 h 17.5 c 13.4,0 24.2,-10.8 24.2,-24.2 v 0 c 0,-13.4 -10.8,-24.2 -24.2,-24.2 h -55.7 c -13.4,0 -24.2,-10.8 -24.2,-24.2 v 0 c 0,-13.4 10.8,-24.2 24.2,-24.2 h 66.6 c 13.4,0 24.2,-10.8 24.2,-24.2 z M 485.9,475.8 H 465 c -13.4,0 -24.2,-10.8 -24.2,-24.2 v 0 c 0,-13.4 10.8,-24.2 24.2,-24.2 h 20.9 c 13.4,0 24.2,10.8 24.2,24.2 v 0 c 0.1,13.3 -10.8,24.2 -24.2,24.2 z"
         style="opacity:0.35;fill:#a9dbed" />
      <path
         id="XMLID_594_"
         class="st7"
         d="m 505.2,408.5 c 0.4,13.9 -0.5,20.5 -0.5,20.5 0.9,0.9 1.1,1 2.2,1 -1.4,0.4 -3,0.8 -3,4.5 0,13 -0.3,76.4 -2.2,90.9 -11.9,-1.9 -25.9,0.1 -34.2,-0.8 -11.3,-1.3 -8.5,-11.8 -6.8,-14.6 32.6,-53.1 34.4,-77.5 34.4,-77.5 0,0 0.5,-2.7 1.2,-4.1 0.5,-3.1 1.1,-8.1 0.2,-14 -0.4,-2.8 -2.4,-9.2 -4.6,-14.2 -0.1,-0.1 -0.2,-0.2 -0.4,-0.3 -3.7,-2.5 -6.3,-6.6 -7,-11.5 0,0 0,-0.1 0,-0.2 -0.3,-2.5 1.3,-4.7 3.6,-4.9 l 2.8,-0.3 c -0.3,1.6 0.5,9.8 8.2,13.1 6,2.5 12.9,0.1 15,-2.2 0.4,1.9 -2,5.1 -5.1,7.3 -2.4,1.7 -3.8,4.4 -3.8,7.3 z"
         style="opacity:0.51;fill:#db485f" />
      <rect
         id="XMLID_557_"
         x="500"
         y="336.20001"
         class="st8"
         width="19.5"
         height="31.799999"
         style="fill:#ffa578" />
      <rect
         id="XMLID_553_"
         x="500"
         y="336.20001"
         class="st9"
         width="9.8000002"
         height="16.700001"
         style="fill:#f49971" />
      <path
         id="XMLID_544_"
         class="st10"
         d="m 500,348.8 c 4.1,0.1 11.9,-0.4 19.5,-3.9 v -8.7 H 500 Z"
         style="fill:#ed8c6b" />
      <path
         id="XMLID_535_"
         class="st8"
         d="m 596.4,402.3 33.9,-61.9 -15.8,-8.6 -30.2,55.2 c -1,1.8 -3.3,2.2 -4.8,0.9 l -41,-35.1 c -3.8,-3.2 -9.5,-2.8 -12.7,1 v 0 c -3.2,3.8 -2.8,9.5 1,12.7 l 46.8,40.1 4,3.4 c 5,4.2 12.6,2.9 15.9,-2.7 z"
         style="fill:#ffa578" />
      <path
         id="XMLID_527_"
         class="st8"
         d="m 596.4,402.3 33.9,-61.9 -15.8,-8.6 -30.2,55.2 c -1,1.8 -3.3,2.2 -4.8,0.9 l -41,-35.1 c -3.8,-3.2 -9.5,-2.8 -12.7,1 v 0 c -3.2,3.8 -2.8,9.5 1,12.7 l 46.8,40.1 4,3.4 c 5,4.2 12.6,2.9 15.9,-2.7 z"
         style="fill:#ffa578" />
      <path
         id="XMLID_522_"
         class="st8"
         d="m 538.1,389.8 -47.7,2.4 c -0.4,0 -0.8,-0.3 -0.8,-0.7 l -1.7,-33.3 c -0.1,-2.8 2,-5.2 4.9,-5.4 l 35.7,-1.8 c 4.6,-0.2 8.6,3.3 8.8,8 l 1.5,30.1 c 0,0.3 -0.3,0.7 -0.7,0.7 z"
         style="fill:#ffa578" />
      <path
         id="XMLID_519_"
         class="st9"
         d="m 576.8,393 c 4.3,3.7 11,2.5 13.7,-2.5 l 30.3,-55.3 -6.3,-3.4 -30.2,55.2 c -1,1.8 -3.3,2.2 -4.8,0.9 l -41,-35.1 c -2.9,-2.5 -6.2,-2.6 -12.8,-1.7 0,0 3.4,-0.4 7,2.9 12.8,11.6 44.1,39 44.1,39 z"
         style="fill:#f49971" />
      <path
         id="XMLID_505_"
         class="st8"
         d="m 496.2,354.7 c -4,-2.9 -9.6,-2.1 -12.6,1.9 l -40.7,55.5 c -0.8,1.2 -1.4,2.4 -1.6,3.8 -0.5,2.3 -0.1,4.8 1.4,7 l 28.9,41.9 c 2.8,4.1 8.4,5.1 12.5,2.3 v 0 c 4.1,-2.8 5.1,-8.4 2.3,-12.5 l -25.3,-36.7 37,-50.5 c 3,-4.2 2.1,-9.8 -1.9,-12.7 z"
         style="fill:#ffa578" />
      <path
         id="XMLID_496_"
         class="st9"
         d="m 461.8,416.9 29.6,-39.4 -1.8,-4.6 c -0.4,-1 -1.7,-1.1 -2.3,-0.3 l -29.6,40.3 -2.1,2.8 c -0.9,1.2 -0.9,2.8 -0.1,4 l 2,2.9 28.9,42 c 2,-3 2,-7 -0.1,-10.1 l -24.6,-35.7 c -0.3,-0.6 -0.3,-1.4 0.1,-1.9 z"
         style="fill:#f49971" />
      <path
         id="XMLID_493_"
         class="st11"
         d="m 469,522.5 c -2.8,0 -9,6.9 -11,11.8 -2,4.9 22.2,19 51.3,23.4 29.1,4.4 76.2,9 95.9,4.2 19.7,-4.8 36.7,-21 32.1,-26.4 -2.3,-2.5 -38.3,-13 -38.3,-13 z"
         style="fill:#ac3942" />
      <path
         id="XMLID_464_"
         class="st12"
         d="m 564,794 c 0,0 -1.6,10.8 -2.7,22.4 -1.7,17.7 10.1,5.6 10.1,5.6 0,0 13.3,-10.7 14.8,-32 1.5,-21.3 -21,-2.2 -22.2,4 z"
         style="fill:#ff4c63" />
      <path
         id="XMLID_457_"
         class="st12"
         d="m 432.9,775.8 c 0,0 -5.2,21 -1.3,35.3 0.6,2.3 3.3,3.6 5.5,2.5 8.8,-4.1 16,-17.7 17.8,-25.3 2,-8.8 -12.5,-26.7 -22,-12.5 z"
         style="fill:#ff4c63" />
      <ellipse
         id="XMLID_454_"
         transform="matrix(0.9983,-0.0588253,0.0588253,0.9983,-13.6881,30.246)"
         class="st11"
         cx="506.89999"
         cy="247.60001"
         rx="68"
         ry="62.400002"
         style="fill:#ac3942" />
      <circle
         id="XMLID_445_"
         class="st11"
         cx="506.60001"
         cy="191.39999"
         r="35"
         style="fill:#ac3942" />
      <path
         id="XMLID_441_"
         class="st13"
         d="m 553.3,271 c 0,0 0.5,21.7 -5.2,32.7 -5.7,11 -11.6,23 -6.6,32.5 7.1,13.5 27,6.3 27,6.3 -5.5,0.3 -22.1,1 -22.7,-9.5 -0.6,-10.5 15,-37.4 14.8,-39.4 0,-2 -0.3,-23 -7.3,-22.6 z"
         style="fill:#cd3b43" />
      <path
         id="XMLID_428_"
         class="st11"
         d="m 519.9,152.5 c 0,0 -29.4,-1.2 -46.3,30.1 0.9,-12.8 12.1,-36.8 46.3,-30.1 z"
         style="fill:#ac3942" />
      <path
         id="XMLID_423_"
         class="st13"
         d="m 473.2,180.8 c 5.9,-18.4 25.6,-28.6 44,-22.7 11.1,3.6 19.3,12.2 22.6,22.5 v 0 c -6.5,-6.5 -23.2,-8.1 -38.4,7 -10.1,10.1 -20.7,17.8 -24,23.3 -5.6,-8.6 -7.5,-19.6 -4.2,-30.1 z"
         style="fill:#cd3b43" />
      <path
         id="XMLID_415_"
         class="st11"
         d="m 461.7,280.4 c 0,0 0.5,21.7 -5.2,32.7 -5.7,11 -11.2,18.2 -6.6,30.4 4.6,12.3 28.9,9.5 29.6,8.5 -10.3,0.8 -27.7,-5.3 -26.4,-15.8 2.1,-15.8 16.1,-31.2 16,-33.2 -0.1,-2 -0.4,-23 -7.4,-22.6 z"
         style="fill:#ac3942" />
      <path
         id="XMLID_412_"
         class="st8"
         d="m 512.3,342.7 v 0 c -14,0.8 -32.4,-8.5 -43.2,-25.6 -12.8,-19.4 -20.9,-49.7 -6.9,-69.3 29.6,-1.7 59.2,-3.5 88.8,-5.2 16.1,17.8 11.6,48.9 1.3,69.7 -8.8,18.1 -26,29.6 -40,30.4 z"
         style="fill:#ffa578" />
      <path
         id="XMLID_408_"
         class="st9"
         d="m 460.4,307 -1.8,0.3 c -2.7,0.4 -5.2,-1.4 -5.6,-4.1 l -3.1,-19.3 c -0.4,-2.7 1.4,-5.2 4.1,-5.6 l 1.8,-0.3 c 2.7,-0.4 5.2,1.4 5.6,4.1 l 3.1,19.3 c 0.4,2.6 -1.4,5.1 -4.1,5.6 z"
         style="fill:#f49971" />
      <path
         id="XMLID_405_"
         class="st10"
         d="m 555.8,307 1.8,0.3 c 2.7,0.4 5.2,-1.4 5.6,-4.1 l 3.1,-19.3 c 0.4,-2.7 -1.4,-5.2 -4.1,-5.6 l -1.8,-0.3 c -2.7,-0.4 -5.2,1.4 -5.6,4.1 l -3.1,19.3 c -0.4,2.6 1.5,5.1 4.1,5.6 z"
         style="fill:#ed8c6b" />
      <path
         id="XMLID_402_"
         class="st8"
         d="m 512.3,342.7 v 0 c -14,0.8 -32.4,-8.5 -43.2,-25.6 -12.8,-19.4 -20.9,-49.7 -6.9,-69.3 29.6,-1.7 59.2,-3.5 88.8,-5.2 16.1,17.8 11.6,48.9 1.3,69.7 -8.8,18.1 -26,29.6 -40,30.4 z"
         style="fill:#ffa578" />
      <path
         id="XMLID_399_"
         class="st9"
         d="m 551,242.6 c -6.3,0.4 -77.9,11.4 -84.3,11.8 2,11.8 57.2,1.2 61.6,8.5 8.5,14 4.7,32.7 1.2,47.2 -4,16.5 -16.1,30.2 -28.8,31.3 4,1.1 8,1.6 11.7,1.4 v 0 c 14,-0.8 31.2,-12.3 39.9,-30.5 10.3,-20.8 14.8,-51.9 -1.3,-69.7 z"
         style="fill:#f49971" />
      <path
         id="XMLID_396_"
         class="st13"
         d="m 564.7,279.8 c 7,-10.5 10.8,-23 10,-36.2 -2,-34.4 -34.1,-60.5 -71.6,-58.3 -19.8,1.2 -37.2,10 -48.9,23.2 -7.9,8.9 -9.3,21.7 -3.6,32.1 0.5,1 1.1,1.9 1.7,2.8 0,0 8.6,15.5 35.5,13.9 24.6,-1.4 63.5,-8.1 76.9,22.5 z"
         style="fill:#cd3b43" />
      <path
         id="XMLID_395_"
         class="st14"
         d="m 502.3,315.5 c 0,0 0.4,0.1 1,0.3 0.6,0.2 1.5,0.4 2.5,0.7 0.5,0.1 1,0.3 1.6,0.4 0.5,0.2 1.1,0.3 1.7,0.4 0.6,0.1 1.1,0.3 1.7,0.4 0.6,0.1 1.1,0.2 1.7,0.3 0.6,0.1 1.1,0.1 1.7,0.2 0.6,0.1 1.1,0 1.7,0.1 0.6,0.1 1.1,-0.1 1.7,-0.1 0.6,0 1.1,-0.1 1.6,-0.1 0.5,-0.1 1,0 1.4,-0.1 0.4,-0.1 0.8,-0.1 1.1,-0.2 0.3,0 0.6,-0.1 0.8,-0.1 0.2,0 0.3,0 0.3,0 0,0 0,0.1 -0.1,0.2 -0.1,0.1 -0.2,0.4 -0.4,0.7 -0.2,0.3 -0.4,0.6 -0.8,1 -0.3,0.4 -0.7,0.7 -1.2,1.1 -0.5,0.4 -1,0.8 -1.6,1.1 -0.3,0.2 -0.6,0.3 -1,0.5 -0.2,0.1 -0.3,0.2 -0.5,0.2 l -0.5,0.1 c -0.7,0.2 -1.5,0.4 -2.3,0.4 -0.4,0 -0.8,0 -1.2,0.1 -0.4,0 -0.8,-0.1 -1.2,-0.1 -0.8,-0.1 -1.6,-0.3 -2.4,-0.5 -0.8,-0.2 -1.5,-0.6 -2.1,-0.9 -0.6,-0.4 -1.3,-0.8 -1.8,-1.2 -0.5,-0.4 -1,-0.9 -1.4,-1.3 -0.8,-0.9 -1.3,-1.7 -1.6,-2.4 -0.3,-0.7 -0.4,-1.2 -0.4,-1.2 z"
         style="fill:#e24249" />
      <ellipse
         id="XMLID_390_"
         transform="matrix(0.9994,-0.0334862,0.0334862,0.9994,-12.614,16.9616)"
         class="st8"
         cx="500.10001"
         cy="385.10001"
         rx="15"
         ry="17.4"
         style="fill:#ffa578" />
      <ellipse
         id="XMLID_387_"
         transform="matrix(0.9994,-0.0334862,0.0334862,0.9994,-12.5117,17.9061)"
         class="st8"
         cx="528.29999"
         cy="382.5"
         rx="15"
         ry="17.4"
         style="fill:#ffa578" />
      <path
         id="XMLID_384_"
         class="st8"
         d="m 545.2,545.9 c 0,0 -7.7,78.4 -15.2,91.4 -7.5,13 -61,98 -66,115.5 -5,17.5 -7,26 -9.5,37 -2.5,11 -27,10.5 -22.5,-10.5 4.5,-21 19,-35 23.5,-47.5 4.5,-12.5 10.5,-50 24,-73.5 13.5,-23.5 26,-28 28.5,-38 2.5,-10 -8,-68 -8,-68 z"
         style="fill:#ffa578" />
      <path
         id="XMLID_381_"
         class="st9"
         d="m 437.2,795.2 c 6.3,3.6 15.5,1.2 17.2,-5.2 -4,4 -10.9,6.9 -17.2,5.2 z"
         style="fill:#f49971" />
      <path
         id="XMLID_373_"
         class="st9"
         d="m 530.2,543.5 c -2.1,29.2 -2.5,79.9 -8.6,90.6 -7.6,13.2 -48.3,77.5 -65,117.2 -2.5,5.9 6.5,4.4 7.3,1.5 5,-17.5 58.5,-102.5 66,-115.5 7.5,-13 15.2,-91.4 15.2,-91.4 z"
         style="fill:#f49971" />
      <path
         id="XMLID_363_"
         class="st8"
         d="m 546.7,547.4 c 0,0 10.3,54.3 17.3,72.3 7,18 8,26 8,34 0,8 1.4,37.4 1.4,57.4 0,20 3.1,23.6 -1.4,49.3 -4.5,25.7 -8,29.8 -8,33.5 0,3.7 -1.5,11.4 2,14.9 3.5,3.5 17.2,0.4 20.2,-18.9 3,-19.3 0.2,-34.8 2,-48.5 1.8,-13.7 14.8,-53.8 11.2,-84.2 -3.6,-30.4 -9.5,-37.5 -9.5,-52 0,-14.5 -0.5,-64.4 -0.5,-64.4 z"
         style="fill:#ffa578" />
      <path
         id="XMLID_360_"
         class="st9"
         d="m 569.1,810.1 c 5.2,0.4 13.9,-4.2 16.8,-18.1 -4.5,9.7 -10,16.2 -16.8,18.1 z"
         style="fill:#f49971" />
      <path
         id="XMLID_357_-5"
         class="st9"
         d="m 599.5,657.2 c -3.5,-30.5 -9.5,-37.5 -9.5,-52 0,-14.5 -0.5,-64.4 -0.5,-64.4 l -9.6,1.5 c 0.2,18.2 0.4,48.2 0.4,59.5 0,16.7 6.9,24.8 10.9,59.9 4,35.1 -9.8,73.7 -11.3,97.6 -0.1,1.2 -0.2,5.9 0.9,7.5 2.3,3.5 6.9,3.5 6.9,-1.8 -0.1,-8.5 -0.4,-16.3 0.5,-23.5 1.8,-13.7 14.8,-53.7 11.3,-84.3 z"
         style="fill:#f49971" />
      <path
         id="XMLID_354_-5"
         class="st15"
         d="m 458.8,532.1 c -2.3,7.4 -3.2,-7.6 31.2,16 28.2,19.4 55.4,41.5 112.7,3.8 30.5,-20.1 35.4,-13.4 35.4,-13.4 0,0 0.7,-1.5 -1.1,-5 -5.3,-10.7 -14.7,-10.8 -17,-13.1 -2.3,-2.3 -39.3,-31.3 -39.3,-31.3 l -105.8,26.8 c -0.1,0 -13.7,8.8 -16.1,16.2 z"
         style="fill:#d3405c" />
      <path
         id="XMLID_353_"
         class="st16"
         d="m 627.3,332.2 -16,6.7 c -4.5,1.9 -9.6,-1.4 -9.6,-6.4 v -46.1 c 0,-2.8 1.7,-5.3 4.2,-6.4 l 16,-6.7 c 4.5,-1.9 9.6,1.4 9.6,6.4 v 46.1 c 0.1,2.8 -1.6,5.4 -4.2,6.4 z"
         style="fill:#76b276" />
      <path
         id="XMLID_352_"
         class="st17"
         d="m 631.5,332.2 -16,6.7 c -4.5,1.9 -9.6,-1.4 -9.6,-6.4 v -46.1 c 0,-2.8 1.7,-5.3 4.2,-6.4 l 16,-6.7 c 4.5,-1.9 9.6,1.4 9.6,6.4 v 46.1 c 0,2.8 -1.6,5.4 -4.2,6.4 z"
         style="fill:#99cc99" />
      <circle
         id="XMLID_349_-0"
         class="st18"
         cx="625.40002"
         cy="333.70001"
         r="17.5"
         style="fill:#f79b72" />
      <circle
         id="XMLID_346_-7"
         class="st8"
         cx="622.59998"
         cy="331.79999"
         r="11"
         style="fill:#ffa578" />
      <path
         id="XMLID_343_"
         class="st14"
         d="m 453.6,229.3 c 0,0 14.3,3.7 15.1,16.6 0.4,7 -5.5,18.4 -19.8,21.5 -12.5,2.7 -22.8,6.1 -28.9,16 0.5,-8 3.5,-18 20.2,-24 16.7,-6 21.2,-14.5 13.4,-30.1 z"
         style="fill:#e24249" />
      <path
         id="XMLID_340_"
         class="st9"
         d="m 509.8,373.8 c 0,0 4.3,2.2 5.4,8.1 0.5,-5.1 2.3,-8.5 3.3,-9.1 -1.4,0.4 -3.2,2.3 -3.7,4.6 -1.1,-2.4 -5,-3.6 -5,-3.6 z"
         style="fill:#f49971" />
      <path
         id="XMLID_337_"
         class="st12"
         d="m 539.9,378.4 -51.8,4.9 c -2.3,0.2 -4,2.5 -3.6,4.9 0,0.1 0,0.1 0,0.2 1.2,8.4 8.2,14.6 16,14.2 7,-0.4 12.5,-5.7 14.2,-12.6 2.8,6.7 9.4,11.1 16.6,9.8 6.3,-1.1 11.3,-6.5 12.6,-13.3 0.2,-1.2 0.3,-2.4 0.3,-3.6 0,-2.7 -2,-4.7 -4.3,-4.5 z"
         style="fill:#ff4c63" />
      <path
         id="XMLID_336_"
         class="st12"
         d="m 542,425.5 c 0,0 -4,-10 -4,-14.2 0,-11 3,-22.4 3,-22.4 h -26.3 l -25,5.6 c 0,0 6.1,14.9 6.8,19.9 1.5,9.9 -0.8,16.4 -0.8,16.4 0,0 -2.4,26.1 -35,79.2 -1.7,2.8 -4.5,13.3 6.8,14.6 13.9,1.6 43.4,-5.1 53.1,11.8 13.7,23.8 68.6,-21.1 82.4,-4.4 11.3,13.7 24.6,0.3 32.2,-10.2 3.9,-5.3 2.9,-12.8 -2.3,-16.8 -5.9,-4.7 -14.8,-11.5 -26.6,-19.9 -30,-21.3 -64.3,-59.6 -64.3,-59.6 z"
         style="fill:#ff4c63" />
      <path
         id="XMLID_333_"
         class="st19"
         d="m 482.2,497.2 c 2.3,-12 15.7,-58.3 17.7,-68.8 0.1,-0.4 1,-0.7 1.1,-0.9 0,-0.4 -0.8,-0.8 -0.8,-1.2 0.5,-6 -0.1,-13.1 -0.6,-17.8 -0.4,-2.9 1.1,-6.8 3.9,-7.5 2.4,-0.6 8.3,-3.6 9.6,-6.7 -3.4,4.8 -15.8,6.8 -21.6,1.1 -4.1,-4.1 -4.4,-8.8 -4.7,-11.7 -1.5,0.8 -2.5,2.6 -2.3,4.5 0,0.1 0,0.1 0,0.2 0.7,4.9 3.4,9 7,11.5 0.1,0.1 0.3,0.2 0.4,0.3 2.2,5 4.2,11.4 4.6,14.2 0.9,5.9 0.3,10.9 -0.2,14 -0.5,1.8 -1.2,5.8 -1.2,5.8 0,0 -3.7,20.6 -34.4,75.8 -1.6,2.9 -4.5,13.3 6.8,14.6 2.8,0.3 7,0.3 10.8,0.2 1.1,-6.5 2.7,-21.7 3.9,-27.6 z"
         style="fill:#ed4a61" />
      <path
         id="XMLID_332_"
         class="st20"
         d="m 538.7,281.2 c -1.2,-0.7 -2.6,-0.7 -3.8,0 -1.7,-2.3 -4.1,-3.6 -6.4,-3.1 -2.7,0.6 -4.5,3.3 -4.8,6.7 1.3,-1.5 2.8,-2.8 4.9,-3.3 3,-0.7 5.4,0.9 6.2,1.3 0.1,0 0.2,0.1 0.3,0 1.5,-0.9 3.3,-1 4.5,-0.3 0.3,0.2 0.6,0.4 0.8,0.6 -0.4,-0.8 -0.9,-1.5 -1.7,-1.9 z"
         style="opacity:0.69;fill:#422725" />
      <path
         id="XMLID_331_"
         class="st20"
         d="m 482.4,284.5 c 1.1,-0.8 2.6,-1 3.8,-0.5 1.4,-2.5 3.6,-4.1 6,-3.8 2.7,0.2 4.9,2.7 5.6,6.1 -1.4,-1.4 -3.1,-2.5 -5.3,-2.7 -3.1,-0.3 -5.3,1.5 -6,2 -0.1,0.1 -0.2,0.1 -0.3,0.1 -1.6,-0.7 -3.4,-0.6 -4.5,0.2 -0.3,0.2 -0.5,0.4 -0.7,0.7 0.2,-0.8 0.7,-1.6 1.4,-2.1 z"
         style="opacity:0.69;fill:#422725" />
      <circle
         id="XMLID_327_"
         class="st8"
         cx="488.39999"
         cy="463.5"
         r="17.5"
         style="fill:#ffa578" />
      <circle
         id="XMLID_324_"
         class="st8"
         cx="488.39999"
         cy="463.5"
         r="17.5"
         style="fill:#ffa578" />
      <path
         id="XMLID_321_"
         class="st18"
         d="m 491.6,446.3 c -5.4,-1 -10.7,0.6 -14.6,4 0.4,0 0.7,0.1 1.1,0.1 9.2,1.7 15.3,10.5 13.6,19.8 -0.8,4.3 -3.2,8 -6.4,10.4 9.5,1.7 18.6,-4.5 20.3,-14 1.7,-9.4 -4.5,-18.5 -14,-20.3 z"
         style="fill:#f79b72" />
      <path
         id="XMLID_320_"
         class="st21"
         d="m 606.3,485.1 c -28.9,-20.6 -61.9,-56.9 -64.2,-59.4 -0.1,-0.1 -0.2,-0.2 -0.2,-0.3 -0.5,-1.4 -3.9,-10.2 -3.9,-14.1 0,-5.8 0.8,-11.7 1.6,-16 0,-0.2 0.1,-0.4 0.2,-0.5 0.6,-0.7 1.1,-1.4 1.6,-2.2 0,0 0,0 0,0 v 0 c 1.1,-1.8 2,-3.9 2.4,-6.2 0.2,-1.2 0.3,-2.4 0.3,-3.6 0,-2.6 -2,-4.5 -4.3,-4.3 l -3.2,0.3 c 0.3,0.6 0.5,1.3 0.7,2 0,0 0.3,1.2 0.5,2.3 0.2,1.7 -0.6,6.5 -3.8,9.5 -3.7,3.5 -9.9,4.2 -15.5,1.6 0,0 1.6,1.5 4,2.9 1.8,1 4.5,2 5.3,2.1 2.5,0.4 4.4,2.3 4.7,4.8 0.4,3.3 0.6,6.7 0.6,8.3 0,2.1 0.2,6.7 1,11.3 0.1,0.5 -1.1,1.2 -1,1.7 0.1,0.4 1.2,-0.1 1.2,0.2 0.3,1.4 0.8,3.3 1.2,4.6 1.6,4.8 42.3,69.4 68,102.6 0,0 0,0.1 0.1,0.1 11.3,12.5 24.3,-0.9 31.8,-11.3 3.7,-5.2 2.6,-12.4 -2.4,-16.3 -5.8,-4.7 -14.8,-11.6 -26.7,-20.1 z"
         style="opacity:0.68;fill:#db485f" />
      <path
         id="XMLID_317_"
         class="st14"
         d="m 561.6,240.8 c -6.5,14.8 -34.1,5.3 -59.2,2.9 -36.3,-3.5 -44.6,-24.3 -38.1,-39.1 6.5,-14.8 38.6,-24.7 61.7,-14.5 23.1,10.1 42.1,35.9 35.6,50.7 z"
         style="fill:#e24249" />
      <ellipse
         id="XMLID_314_"
         transform="matrix(0.2636,-0.9646,0.9646,0.2636,170.559,637.507)"
         class="st22"
         cx="502.79999"
         cy="207"
         rx="13.6"
         ry="23.4"
         style="opacity:0.87;fill:#ef5964" />
      <ellipse
         id="XMLID_311_"
         transform="matrix(0.8292,-0.559,0.559,0.8292,-10.9075,306.906)"
         class="st22"
         cx="496.70001"
         cy="171.3"
         rx="13.4"
         ry="7"
         style="opacity:0.87;fill:#ef5964" />
      <circle
         id="XMLID_310_"
         class="st16"
         cx="620.79999"
         cy="291.79999"
         r="3.3"
         style="fill:#76b276" />
      <ellipse
         id="XMLID_309_"
         transform="matrix(0.9891,-0.1474,0.1474,0.9891,-114.022,72.7502)"
         class="st23"
         cx="434"
         cy="805.90002"
         rx="1.1"
         ry="4.1999998"
         style="fill:#ffa6b5" />
      <ellipse
         id="XMLID_308_"
         transform="matrix(0.00619472,-1,1,0.00619472,-257.73,1377.84)"
         class="st23"
         cx="564.29999"
         cy="818.59998"
         rx="4.1999998"
         ry="1.1"
         style="fill:#ffa6b5" />
    </g>
  </g>
</svg>
