<?xml version="1.0" encoding="UTF-8" standalone="no"?>
<!-- Created with Inkscape (http://www.inkscape.org/) -->

<svg
   width="29.76918mm"
   height="45.580551mm"
   viewBox="0 0 29.769181 45.580552"
   version="1.1"
   id="svg2469"
   xmlns="http://www.w3.org/2000/svg"
   xmlns:svg="http://www.w3.org/2000/svg">
  <defs
     id="defs2466" />
  <g
     id="layer2"
     style="display:inline"
     transform="translate(-142.41207,-21.347153)">
    <g
       id="g2890"
       transform="translate(33.8763,-61.1829)">
      <g
         id="g1424"
         style="display:inline">
        <line
           id="XMLID_53_-9"
           class="st5"
           x1="108.88193"
           y1="127.76445"
           x2="137.9588"
           y2="127.76445"
           style="fill:none;stroke:#a83727;stroke-width:0.692307;stroke-linecap:round;stroke-linejoin:round;stroke-miterlimit:10" />
        <path
           id="XMLID_28_-8"
           class="st6"
           d="m 123.98574,115.09524 c -2.09999,-1.33846 -5.80383,-3.6923 -7.40768,-8.5846 -1.11923,-3.41538 -1.1423,-7.707682 0.0577,-8.111532 1.39615,-0.46154 3.83077,4.476922 4.71923,4.049992 0.70384,-0.33461 -0.76154,-3.392302 -0.9577,-8.573062 -0.13846,-3.53077 0.36924,-6.56538 1.96154,-9.26537 0.72692,-1.23462 1.25769,-2.14615 1.84615,-2.07692 2.41154,0.27692 1.73077,16.61536 4.30384,16.9269 1.21154,0.15 2.18077,-3.36923 3.54231,-3.08077 1.15384,0.24231 1.92692,3.0923 2.13461,4.938462 0.0115,0.0923 0.0231,0.16154 0.0231,0.21923 0.6,5.98845 -2.89615,10.30383 -4.07307,11.76921 -1.76539,2.16923 -2.95385,2.60769 -3.87692,2.61923 -0.96923,-0.0115 -1.70769,-0.46154 -2.27308,-0.83077 z"
           style="fill:#6dcca3;stroke-width:0.115384" />
        <path
           id="XMLID_41_-1"
           class="st7"
           d="m 123.36267,92.318348 c 0.40384,4.26922 2.82692,10.765372 3.18461,16.269212 0.23077,3.58845 0.0115,6.74999 -0.34615,9.34614"
           style="fill:none;stroke:#465172;stroke-width:0.692307;stroke-linecap:round;stroke-linejoin:round;stroke-miterlimit:10" />
        <path
           id="XMLID_25_-29"
           class="st8"
           d="m 134.49727,127.76446 h -17.88459 v 0 c -1.8,-3.18462 -1.73077,-7.09615 0.17307,-10.21153 l 2.63077,-4.30384 h 12.26537 l 2.54999,3.98076 c 1.89231,2.94231 2.11154,6.66923 0.6,9.81922 z"
           style="fill:#2359b2;stroke-width:0.115384" />
        <path
           id="XMLID_44_-3"
           class="st7"
           d="m 129.0742,102.11449 c 0,0 -0.0461,1.96154 -2.74615,4.51153"
           style="fill:none;stroke:#465172;stroke-width:0.692307;stroke-linecap:round;stroke-linejoin:round;stroke-miterlimit:10" />
        <path
           id="XMLID_47_-9"
           class="st7"
           d="m 120.54729,106.62602 c 0,0 1.81153,3.6923 6.0923,3.6923"
           style="fill:none;stroke:#465172;stroke-width:0.692307;stroke-linecap:round;stroke-linejoin:round;stroke-miterlimit:10" />
        <path
           id="XMLID_48_-0"
           class="st9"
           d="m 129.9165,116.29524 c 0,0 2.72308,1.77692 2.72308,6.03461"
           style="opacity:0.67;fill:none;stroke:#1e2a54;stroke-width:0.692307;stroke-linecap:round;stroke-linejoin:round;stroke-miterlimit:10" />
      </g>
    </g>
  </g>
</svg>
