<?xml version="1.0" encoding="UTF-8" standalone="no"?>
<!-- Created with Inkscape (http://www.inkscape.org/) -->

<svg
   width="31.079454mm"
   height="61.652966mm"
   viewBox="0 0 31.079455 61.652967"
   version="1.1"
   id="svg2469"
   xmlns="http://www.w3.org/2000/svg"
   xmlns:svg="http://www.w3.org/2000/svg">
  <defs
     id="defs2466" />
  <g
     id="layer3"
     style="display:inline"
     transform="translate(-230.52707,-8.2580157)">
    <g
       id="g2655"
       transform="translate(33.8763,-61.1829)">
      <g
         id="g1505"
         style="display:inline">
        <g
           id="g1308"
           transform="matrix(0.120463,0,0,0.120463,151.959,36.4461)"
           style="display:inline">
          <ellipse
             id="XMLID_118_-8"
             class="st2"
             cx="500"
             cy="766.70001"
             rx="118"
             ry="19"
             style="opacity:0.55;fill:#221c58" />
          <path
             id="XMLID_80_-4"
             class="st3"
             d="m 522,539 h -44 c -39.8,0 -72,-32.4 -72,-72.2 V 359 h 188 v 107.8 c 0,39.8 -32.2,72.2 -72,72.2 z"
             style="fill:#5ea652" />
          <path
             id="XMLID_112_-8"
             class="st4"
             d="M 450.5,469.4 V 359 H 406 v 107.8 c 0,39.8 32.2,72.2 72,72.2 h 26.2 c -30.9,-8.1 -53.7,-36.2 -53.7,-69.6 z"
             style="fill:#4b9b56" />
          <path
             id="XMLID_1_-1"
             class="st5"
             d="m 522,539 h -44 c -39.8,0 -72,-32.4 -72,-72.2 V 359 h 188 v 107.8 c 0,39.8 -32.2,72.2 -72,72.2 z"
             style="fill:none;stroke:#041d31;stroke-width:6;stroke-linecap:round;stroke-linejoin:round;stroke-miterlimit:10" />
          <path
             id="XMLID_83_-6"
             class="st3"
             d="m 581.4,291.8 c -53.6,-11.8 -109.2,-11.8 -162.9,0 -7.3,1.6 -12.6,8.1 -12.6,15.6 v 51.4 c 61.7,15.8 126.3,15.8 188,0 v -51.4 c 0.1,-7.4 -5.1,-13.9 -12.5,-15.6 z"
             style="fill:#5ea652" />
          <path
             id="XMLID_22_-8"
             class="st6"
             d="m 581.4,291.8 c -1.8,-0.4 -3.6,-0.8 -5.4,-1.2 V 363 c 6,-1.2 12,-2.6 18,-4.2 v -51.4 c 0,-7.4 -5.2,-13.9 -12.6,-15.6 z"
             style="fill:#70ba61" />
          <path
             id="XMLID_120_-5"
             class="st4"
             d="m 450.5,312.6 c 0,-10.1 3,-19.5 8.2,-27.4 -13.5,1.5 -26.9,3.7 -40.1,6.6 -7.3,1.6 -12.6,8.1 -12.6,15.6 v 51.4 c 14.7,3.8 29.6,6.6 44.5,8.6 z"
             style="fill:#4b9b56" />
          <path
             id="XMLID_115_"
             class="st4"
             d="m 602,456 h -8 v -54 h 8 c 6.6,0 12,5.7 12,12.3 v 30 c 0,6.6 -5.4,11.7 -12,11.7 z"
             style="fill:#4b9b56" />
          <path
             id="XMLID_4_-21"
             class="st5"
             d="m 602,456 h -8 v -54 h 8 c 6.6,0 12,5.7 12,12.3 v 30 c 0,6.6 -5.4,11.7 -12,11.7 z"
             style="fill:none;stroke:#041d31;stroke-width:6;stroke-linecap:round;stroke-linejoin:round;stroke-miterlimit:10" />
          <path
             id="XMLID_116_"
             class="st7"
             d="m 398,456 h 8 v -54 h -8 c -6.6,0 -12,5.7 -12,12.3 v 30 c 0,6.6 5.4,11.7 12,11.7 z"
             style="fill:#44934c" />
          <path
             id="XMLID_11_-9"
             class="st5"
             d="m 398,456 h 8 v -54 h -8 c -6.6,0 -12,5.7 -12,12.3 v 30 c 0,6.6 5.4,11.7 12,11.7 z"
             style="fill:none;stroke:#041d31;stroke-width:6;stroke-linecap:round;stroke-linejoin:round;stroke-miterlimit:10" />
          <path
             id="XMLID_26_-9"
             class="st5"
             d="m 493.7,509.3 c 1.4,-11.3 11.7,-19.4 23,-18 2.8,0.3 5.5,1.3 7.8,2.6"
             style="fill:none;stroke:#041d31;stroke-width:6;stroke-linecap:round;stroke-linejoin:round;stroke-miterlimit:10" />
          <path
             id="XMLID_93_-6"
             class="st8"
             d="m 443,661.3 v 90 h 54 V 704 c 0,-2.8 2.3,-5 5,-5 0,0 0,0 0,0 v 0 c 0,0 0,0 0,0 2.8,0 5,2.2 5,5 v 47.3 h 54 v -90 z"
             style="fill:#2b323a" />
          <path
             id="XMLID_253_"
             class="st9"
             d="M 516.5,751.3 H 507 V 699 h 1.4 c 4.5,0 8.1,3.6 8.1,8.1 z"
             style="opacity:0.8;fill:#252c33" />
          <g
             id="XMLID_348_">
            <path
               id="XMLID_349_"
               class="st10"
               d="m 514.3,699 c 0,0 0,0 0,0 0,0 0,0 0,0 z" />
          </g>
          <g
             id="XMLID_346_"
             class="st11"
             style="opacity:0.8">
            <rect
               id="XMLID_347_"
               x="443"
               y="661.29999"
               class="st10"
               width="12.2"
               height="90" />
          </g>
          <path
             id="XMLID_75_-0"
             class="st5"
             d="m 443,661.3 v 90 h 54 V 704 c 0,-2.8 2.3,-5 5,-5 0,0 0,0 0,0 v 0 c 0,0 0,0 0,0 2.8,0 5,2.2 5,5 v 47.3 h 54 v -90 z"
             style="fill:none;stroke:#041d31;stroke-width:6;stroke-linecap:round;stroke-linejoin:round;stroke-miterlimit:10" />
          <circle
             id="XMLID_111_-6"
             class="st3"
             cx="578.79999"
             cy="680.90002"
             r="18.5"
             style="fill:#5ea652" />
          <path
             id="XMLID_272_"
             class="st4"
             d="m 577.3,682.5 c -0.7,-7.7 3.5,-14.7 9.9,-18 -3,-1.6 -6.5,-2.3 -10.1,-2 -10.2,0.9 -17.7,9.9 -16.8,20.1 0.9,10.2 9.9,17.7 20.1,16.8 2.5,-0.2 4.8,-0.9 6.9,-2 -5.5,-2.9 -9.4,-8.3 -10,-14.9 z"
             style="fill:#4b9b56" />
          <circle
             id="XMLID_123_-4"
             class="st5"
             cx="578.79999"
             cy="680.90002"
             r="18.5"
             style="fill:none;stroke:#041d31;stroke-width:6;stroke-linecap:round;stroke-linejoin:round;stroke-miterlimit:10" />
          <circle
             id="XMLID_82_-9"
             class="st12"
             cx="463.39999"
             cy="432"
             r="32"
             style="fill:#ffffff" />
          <circle
             id="XMLID_9_-9"
             class="st5"
             cx="463.39999"
             cy="432"
             r="32"
             style="fill:none;stroke:#041d31;stroke-width:6;stroke-linecap:round;stroke-linejoin:round;stroke-miterlimit:10" />
          <circle
             id="XMLID_16_-0"
             class="st13"
             cx="479.70001"
             cy="433"
             r="14"
             style="fill:#041d31" />
          <circle
             id="XMLID_49_-8"
             class="st12"
             cx="484.70001"
             cy="433"
             r="5"
             style="fill:#ffffff" />
          <path
             id="XMLID_114_"
             class="st14"
             d="m 497,751.3 h -54 v 8 c 0,3.3 2.7,6 6,6 h 42 c 3.3,0 6,-2.7 6,-6 z"
             style="fill:#534741" />
          <path
             id="XMLID_319_"
             class="st15"
             d="m 455.2,759.3 v -8 H 443 v 8 c 0,3.3 2.7,6 6,6 h 12.2 c -3.3,0 -6,-2.7 -6,-6 z"
             style="fill:#4c3e38" />
          <path
             id="XMLID_110_-9"
             class="st14"
             d="m 513,765.3 h 42 c 3.3,0 6,-2.7 6,-6 v -8 h -54 v 8 c 0,3.3 2.7,6 6,6 z"
             style="fill:#534741" />
          <path
             id="XMLID_323_"
             class="st15"
             d="m 516.5,759.3 v -8 H 507 v 8 c 0,3.3 2.7,6 6,6 h 9.5 c -3.3,0 -6,-2.7 -6,-6 z"
             style="fill:#4c3e38" />
          <path
             id="XMLID_76_-3"
             class="st5"
             d="m 497,751.3 h -54 v 8 c 0,3.3 2.7,6 6,6 h 42 c 3.3,0 6,-2.7 6,-6 z"
             style="fill:none;stroke:#041d31;stroke-width:6;stroke-linecap:round;stroke-linejoin:round;stroke-miterlimit:10" />
          <path
             id="XMLID_77_-1"
             class="st5"
             d="m 513,765.3 h 42 c 3.3,0 6,-2.7 6,-6 v -8 h -54 v 8 c 0,3.3 2.7,6 6,6 z"
             style="fill:none;stroke:#041d31;stroke-width:6;stroke-linecap:round;stroke-linejoin:round;stroke-miterlimit:10" />
          <circle
             id="XMLID_113_"
             class="st3"
             cx="425.39999"
             cy="682.5"
             r="18.700001"
             style="fill:#5ea652" />
          <path
             id="XMLID_305_"
             class="st4"
             d="m 421.2,680.9 c 0.6,-7.2 5.2,-13 11.4,-15.6 -1.7,-0.7 -3.6,-1.2 -5.6,-1.4 -10.3,-0.9 -19.4,6.7 -20.3,17 -0.9,10.3 6.7,19.4 17,20.3 3.1,0.3 6.2,-0.3 8.9,-1.4 -7.3,-3.1 -12.1,-10.6 -11.4,-18.9 z"
             style="fill:#4b9b56" />
          <circle
             id="XMLID_30_-4"
             class="st5"
             cx="425.39999"
             cy="682.5"
             r="18.700001"
             style="fill:none;stroke:#041d31;stroke-width:6;stroke-linecap:round;stroke-linejoin:round;stroke-miterlimit:10" />
          <path
             id="XMLID_19_-89"
             class="st16"
             d="m 597.4,680.5 -7.6,-86.9 C 588.4,578 576,566 561,564.1 c 0,0 0,0 0,-0.1 -39.2,-4.9 -78.8,-4.9 -118,0 0,0 0,0 0,0.1 -15.1,1.8 -27.4,14 -28.8,29.7 l -7.6,86.9 35.9,3.1 1,-11.7 c 38.8,4.9 78.1,4.9 116.9,0 l 1,11.6 z"
             style="fill:#ffad57" />
          <path
             id="XMLID_103_-6"
             class="st17"
             d="M 589.8,592.7 C 588.4,577 576,565 561,563.1 c 0,0 0,0 0,-0.1 -39.2,-4.9 -78.8,-4.9 -118,0 0,0 0,0 0,0.1 -15.1,1.8 -27.4,14 -28.8,29.7 l -7.6,86.9 1,0.1 6.6,-76 c 1.4,-15.7 13.7,-27.9 28.8,-29.7 0,0 0,0 0,-0.1 11.2,-1.4 22.4,-2.4 33.7,-3 2,7.1 8.5,12.3 16.2,12.3 h 18.2 c 7.7,0 14.2,-5.2 16.2,-12.3 11.2,0.6 22.5,1.6 33.7,3 0,0 0,0 0,0.1 15,1.9 27.4,13.9 28.8,29.6 l 6.6,76 1,-0.1 z"
             style="opacity:0.83;fill:#e89567" />
          <path
             id="XMLID_109_-7"
             class="st5"
             d="m 597.4,680.5 -7.6,-86.9 C 588.4,578 576,566 561,564.1 c 0,0 0,0 0,-0.1 -39.2,-4.9 -78.8,-4.9 -118,0 0,0 0,0 0,0.1 -15.1,1.8 -27.4,14 -28.8,29.7 l -7.6,86.9 35.9,3.1 1,-11.7 c 36.7,5.9 78,6.2 116.9,0 l 1,11.6 z"
             style="fill:none;stroke:#041d31;stroke-width:6;stroke-linecap:round;stroke-linejoin:round;stroke-miterlimit:10" />
          <line
             id="XMLID_108_"
             class="st5"
             x1="442.5"
             y1="683.79999"
             x2="449.29999"
             y2="606"
             style="fill:none;stroke:#041d31;stroke-width:6;stroke-linecap:round;stroke-linejoin:round;stroke-miterlimit:10" />
          <path
             id="XMLID_98_"
             class="st5"
             d="M 551,564.1"
             style="fill:none;stroke:#041d31;stroke-width:6;stroke-linecap:round;stroke-linejoin:round;stroke-miterlimit:10" />
          <path
             id="XMLID_92_-7"
             class="st5"
             d="M 554.7,606"
             style="fill:none;stroke:#041d31;stroke-width:6;stroke-linecap:round;stroke-linejoin:round;stroke-miterlimit:10" />
          <line
             id="XMLID_25_-3"
             class="st5"
             x1="560.5"
             y1="672.09998"
             x2="554.70001"
             y2="606"
             style="fill:none;stroke:#041d31;stroke-width:6;stroke-linecap:round;stroke-linejoin:round;stroke-miterlimit:10" />
          <path
             id="XMLID_91_-71"
             class="st13"
             d="m 583.2,284 c -27.3,-6 -55.2,-9.1 -83.2,-9.1 -27.9,0 -55.9,3 -83.2,9.1 -10.9,2.4 -18.8,12.3 -18.8,23.4 v 18.5 l 6,1 c 7.4,1.2 14.9,2.2 22.3,3.2 l 5.9,-19.3 h 7.8 l 1.1,20.9 c 6.8,0.7 13.7,1.2 20.6,1.6 l 2.3,-22.5 3.1,22.9 c 8.7,0.5 17.4,0.8 26.1,0.8 l 3.8,-21.7 3,21.8 14.5,-3.5 6.2,-29.8 17.6,32 c 7.3,-0.5 14.6,-1 21.9,-1.8 v -23.3 l 5.2,-1 8.6,22.7 c 4.4,-0.5 8.9,-1.1 13.3,-1.8 -0.5,-10.5 -1.3,-30.1 0.3,-27 1.6,3.1 7,17.7 9.8,25.4 l 4.5,-0.7 v -18.5 c 0.1,-11 -7.8,-20.9 -18.7,-23.3 z"
             style="fill:#041d31" />
          <path
             id="XMLID_15_-22"
             class="st18"
             d="m 583.2,284 c -27.3,-6 -55.2,-9.1 -83.2,-9.1 -27.9,0 -55.9,3 -83.2,9.1 -10.9,2.4 -18.8,12.3 -18.8,23.4 v 18.5 l 6,1 c 7.4,1.2 14.9,2.2 22.3,3.2 l 5.9,-19.3 h 7.8 l 1.1,20.9 c 6.8,0.7 13.7,1.2 20.6,1.6 l 2.3,-22.5 3.1,22.9 c 8.7,0.5 17.4,0.8 26.1,0.8 l 3.8,-21.7 3,21.8 14.5,-3.5 6.2,-29.8 17.6,32 c 7.3,-0.5 14.6,-1 21.9,-1.8 v -23.3 l 5.2,-1 8.6,22.7 c 4.4,-0.5 8.9,-1.1 13.3,-1.8 -0.5,-10.5 -1.3,-30.1 0.3,-27 1.6,3.1 7,17.7 9.8,25.4 l 4.5,-0.7 v -18.5 c 0.1,-11 -7.8,-20.9 -18.7,-23.3 z"
             style="fill:none;stroke:#041d31;stroke-width:2;stroke-linecap:round;stroke-linejoin:round;stroke-miterlimit:10" />
          <path
             id="XMLID_7_-15"
             class="st5"
             d="m 581.4,293.6 c -53.6,-11.6 -109.2,-11.6 -162.9,0 -7.3,1.6 -12.6,7.9 -12.6,15.3 v 50.2 c 61.7,15.5 126.3,15.5 188,0 v -50.2 c 0.1,-7.3 -5.1,-13.7 -12.5,-15.3 z"
             style="fill:none;stroke:#041d31;stroke-width:6;stroke-linecap:round;stroke-linejoin:round;stroke-miterlimit:10" />
          <path
             id="XMLID_85_-0"
             class="st19"
             d="m 436.5,381 h -0.6 c -4.2,0 -7.7,-3.4 -7.7,-7.7 v -16.6 c 0,-4.2 3.4,-7.7 7.7,-7.7 h 0.6 c 4.2,0 7.7,3.4 7.7,7.7 v 16.6 c 0,4.3 -3.5,7.7 -7.7,7.7 z"
             style="fill:#bbbe93" />
          <path
             id="XMLID_84_-9"
             class="st5"
             d="m 436.5,381 h -0.6 c -4.2,0 -7.7,-3.4 -7.7,-7.7 v -16.6 c 0,-4.2 3.4,-7.7 7.7,-7.7 h 0.6 c 4.2,0 7.7,3.4 7.7,7.7 v 16.6 c 0,4.3 -3.5,7.7 -7.7,7.7 z"
             style="fill:none;stroke:#041d31;stroke-width:6;stroke-linecap:round;stroke-linejoin:round;stroke-miterlimit:10" />
          <path
             id="XMLID_191_"
             class="st19"
             d="m 476,384.2 h -0.6 c -4.2,0 -7.7,-3.4 -7.7,-7.7 v -16.6 c 0,-4.2 3.4,-7.7 7.7,-7.7 h 0.6 c 4.2,0 7.7,3.4 7.7,7.7 v 16.6 c 0,4.3 -3.5,7.7 -7.7,7.7 z"
             style="fill:#bbbe93" />
          <path
             id="XMLID_188_"
             class="st5"
             d="m 476,384.2 h -0.6 c -4.2,0 -7.7,-3.4 -7.7,-7.7 v -16.6 c 0,-4.2 3.4,-7.7 7.7,-7.7 h 0.6 c 4.2,0 7.7,3.4 7.7,7.7 v 16.6 c 0,4.3 -3.5,7.7 -7.7,7.7 z"
             style="fill:none;stroke:#041d31;stroke-width:6;stroke-linecap:round;stroke-linejoin:round;stroke-miterlimit:10" />
          <path
             id="XMLID_210_"
             class="st19"
             d="m 516.9,382.5 h -0.6 c -4.2,0 -7.7,-3.4 -7.7,-7.7 v -16.6 c 0,-4.2 3.4,-7.7 7.7,-7.7 h 0.6 c 4.2,0 7.7,3.4 7.7,7.7 v 16.6 c 0,4.3 -3.5,7.7 -7.7,7.7 z"
             style="fill:#bbbe93" />
          <path
             id="XMLID_195_"
             class="st5"
             d="m 516.9,382.5 h -0.6 c -4.2,0 -7.7,-3.4 -7.7,-7.7 v -16.6 c 0,-4.2 3.4,-7.7 7.7,-7.7 h 0.6 c 4.2,0 7.7,3.4 7.7,7.7 v 16.6 c 0,4.3 -3.5,7.7 -7.7,7.7 z"
             style="fill:none;stroke:#041d31;stroke-width:6;stroke-linecap:round;stroke-linejoin:round;stroke-miterlimit:10" />
          <path
             id="XMLID_217_"
             class="st19"
             d="m 559.4,382.5 h -0.6 c -4.2,0 -7.7,-3.4 -7.7,-7.7 v -16.6 c 0,-4.2 3.4,-7.7 7.7,-7.7 h 0.6 c 4.2,0 7.7,3.4 7.7,7.7 v 16.6 c 0,4.3 -3.5,7.7 -7.7,7.7 z"
             style="fill:#bbbe93" />
          <path
             id="XMLID_214_"
             class="st5"
             d="m 559.4,382.5 h -0.6 c -4.2,0 -7.7,-3.4 -7.7,-7.7 v -16.6 c 0,-4.2 3.4,-7.7 7.7,-7.7 h 0.6 c 4.2,0 7.7,3.4 7.7,7.7 v 16.6 c 0,4.3 -3.5,7.7 -7.7,7.7 z"
             style="fill:none;stroke:#041d31;stroke-width:6;stroke-linecap:round;stroke-linejoin:round;stroke-miterlimit:10" />
          <rect
             id="XMLID_14_-04"
             x="594"
             y="353"
             class="st20"
             width="16"
             height="12"
             style="fill:#8a8d91" />
          <rect
             id="XMLID_12_-0"
             x="594"
             y="353"
             class="st5"
             width="16"
             height="12"
             style="fill:none;stroke:#041d31;stroke-width:6;stroke-linecap:round;stroke-linejoin:round;stroke-miterlimit:10" />
          <path
             id="XMLID_18_-1"
             class="st21"
             d="m 619.6,375 h -3.2 c -3.5,0 -6.4,-2.9 -6.4,-6.4 v -19.2 c 0,-3.5 2.9,-6.4 6.4,-6.4 h 3.2 c 3.5,0 6.4,2.9 6.4,6.4 v 19.2 c 0,3.5 -2.9,6.4 -6.4,6.4 z"
             style="fill:#9da0a5" />
          <path
             id="XMLID_275_"
             class="st21"
             d="m 619.6,375 h -3.2 c -3.5,0 -6.4,-2.9 -6.4,-6.4 v -19.2 c 0,-3.5 2.9,-6.4 6.4,-6.4 h 3.2 c 3.5,0 6.4,2.9 6.4,6.4 v 19.2 c 0,3.5 -2.9,6.4 -6.4,6.4 z"
             style="fill:#9da0a5" />
          <path
             id="XMLID_278_"
             class="st22"
             d="m 622.4,352.2 h -8.8 c -2,0 -3.6,-1.6 -3.6,-3.6 v -2 c 0,-2 1.6,-3.6 3.6,-3.6 h 8.8 c 2,0 3.6,1.6 3.6,3.6 v 2 c 0,2 -1.6,3.6 -3.6,3.6 z"
             style="fill:#adb3bc" />
          <path
             id="XMLID_17_-37"
             class="st5"
             d="m 619.6,375 h -3.2 c -3.5,0 -6.4,-2.9 -6.4,-6.4 v -19.2 c 0,-3.5 2.9,-6.4 6.4,-6.4 h 3.2 c 3.5,0 6.4,2.9 6.4,6.4 v 19.2 c 0,3.5 -2.9,6.4 -6.4,6.4 z"
             style="fill:none;stroke:#041d31;stroke-width:6;stroke-linecap:round;stroke-linejoin:round;stroke-miterlimit:10" />
          <rect
             id="XMLID_212_"
             x="390"
             y="353"
             transform="rotate(180,398,359)"
             class="st23"
             width="16"
             height="12"
             style="fill:#686f77" />
          <rect
             id="XMLID_119_"
             x="390"
             y="353"
             transform="rotate(180,398,359)"
             class="st5"
             width="16"
             height="12"
             style="fill:none;stroke:#041d31;stroke-width:6;stroke-linecap:round;stroke-linejoin:round;stroke-miterlimit:10" />
          <path
             id="XMLID_107_-4"
             class="st24"
             d="m 380.4,375 h 3.2 c 3.5,0 6.4,-2.9 6.4,-6.4 v -19.2 c 0,-3.5 -2.9,-6.4 -6.4,-6.4 h -3.2 c -3.5,0 -6.4,2.9 -6.4,6.4 v 19.2 c 0,3.5 2.9,6.4 6.4,6.4 z"
             style="fill:#727984" />
          <path
             id="XMLID_233_"
             class="st24"
             d="m 380.4,375 h 3.2 c 3.5,0 6.4,-2.9 6.4,-6.4 v -19.2 c 0,-3.5 -2.9,-6.4 -6.4,-6.4 h -3.2 c -3.5,0 -6.4,2.9 -6.4,6.4 v 19.2 c 0,3.5 2.9,6.4 6.4,6.4 z"
             style="fill:#727984" />
          <path
             id="XMLID_274_"
             class="st22"
             d="m 378,352.2 h 8 c 2.2,0 4,-1.8 4,-4 V 347 c 0,-2.2 -1.8,-4 -4,-4 h -8 c -2.2,0 -4,1.8 -4,4 v 1.2 c 0,2.3 1.8,4 4,4 z"
             style="fill:#adb3bc" />
          <path
             id="XMLID_106_-1"
             class="st5"
             d="m 380.4,375 h 3.2 c 3.5,0 6.4,-2.9 6.4,-6.4 v -19.2 c 0,-3.5 -2.9,-6.4 -6.4,-6.4 h -3.2 c -3.5,0 -6.4,2.9 -6.4,6.4 v 19.2 c 0,3.5 2.9,6.4 6.4,6.4 z"
             style="fill:none;stroke:#041d31;stroke-width:6;stroke-linecap:round;stroke-linejoin:round;stroke-miterlimit:10" />
          <path
             id="XMLID_87_-1"
             class="st4"
             d="m 507.2,575 h -10.5 c -8.1,0 -14.8,-6.6 -14.8,-14.8 V 539 h 40 v 21.2 c 0.1,8.2 -6.5,14.8 -14.7,14.8 z"
             style="fill:#4b9b56" />
          <path
             id="XMLID_271_"
             class="st7"
             d="M 494.5,560.2 V 539 H 482 v 21.2 c 0,8.1 6.6,14.8 14.8,14.8 h 10.5 c 0.3,0 0.7,0 1,-0.1 -7.7,-0.5 -13.8,-6.8 -13.8,-14.7 z"
             style="fill:#44934c" />
          <path
             id="XMLID_23_-3"
             class="st5"
             d="m 507.2,575 h -10.5 c -8.1,0 -14.8,-6.6 -14.8,-14.8 V 539 h 40 v 21.2 c 0.1,8.2 -6.5,14.8 -14.7,14.8 z"
             style="fill:none;stroke:#041d31;stroke-width:6;stroke-linecap:round;stroke-linejoin:round;stroke-miterlimit:10" />
          <line
             id="XMLID_122_-0"
             class="st25"
             x1="531"
             y1="637.20001"
             x2="520"
             y2="660.20001"
             style="opacity:0.65;fill:none;stroke:#d8865d;stroke-width:3;stroke-linecap:round;stroke-linejoin:round;stroke-miterlimit:10" />
          <line
             id="XMLID_124_-3"
             class="st25"
             x1="534"
             y1="646.5"
             x2="528"
             y2="663.70001"
             style="opacity:0.65;fill:none;stroke:#d8865d;stroke-width:3;stroke-linecap:round;stroke-linejoin:round;stroke-miterlimit:10" />
          <g
             id="XMLID_199_">
            <path
               id="XMLID_235_"
               class="st13"
               d="m 498,637.2 c -1.7,0 -3,-1.3 -3,-3 v -20.8 c 0,-1.7 1.3,-3 3,-3 h 13.5 c 1.7,0 3,1.3 3,3 0,1.7 -1.3,3 -3,3 H 501 v 17.8 c 0,1.7 -1.3,3 -3,3 z" />
          </g>
          <g
             id="XMLID_232_">
            <path
               id="XMLID_238_"
               class="st13"
               d="m 506,627.1 c -3,0 -5.3,-0.4 -7,-1.1 -0.7,-0.4 -1.2,-1.3 -1.2,-2.1 0,-0.7 0.5,-1.7 1.2,-2.1 1.7,-0.7 4,-1.1 7,-1.1 2,0.1 4,1.7 4,3.2 0,1.5 -2,3.1 -4,3.2 z" />
          </g>
          <circle
             id="XMLID_102_-2"
             class="st12"
             cx="534.40002"
             cy="429"
             r="27"
             style="fill:#ffffff" />
          <circle
             id="XMLID_282_"
             class="st5"
             cx="534.40002"
             cy="429"
             r="27"
             style="fill:none;stroke:#041d31;stroke-width:6;stroke-linecap:round;stroke-linejoin:round;stroke-miterlimit:10" />
          <circle
             id="XMLID_52_-17"
             class="st13"
             cx="520.5"
             cy="433"
             r="11"
             style="fill:#041d31" />
          <circle
             id="XMLID_51_-56"
             class="st12"
             cx="517"
             cy="432.5"
             r="3.5"
             style="fill:#ffffff" />
        </g>
      </g>
    </g>
  </g>
</svg>
