<?xml version="1.0" encoding="UTF-8" standalone="no"?>
<!-- Created with Inkscape (http://www.inkscape.org/) -->

<svg
   width="36.991508mm"
   height="45.808182mm"
   viewBox="0 0 36.991509 45.808183"
   version="1.1"
   id="svg2469"
   xmlns="http://www.w3.org/2000/svg"
   xmlns:svg="http://www.w3.org/2000/svg">
  <defs
     id="defs2466" />
  <g
     id="layer4"
     style="display:inline"
     transform="translate(-6.0523743e-5,-81.713094)">
    <g
       id="g2900"
       transform="translate(33.8763,-61.1829)">
      <g
         id="g1745"
         style="display:inline">
        <g
           id="g1841"
           transform="matrix(0.098723,0,0,0.098723,-83.6615,114.008)">
          <line
             id="XMLID_59_"
             class="st5"
             x1="868.09241"
             y1="693.82385"
             x2="875.99243"
             y2="693.82385"
             style="fill:none;stroke:#a83727;stroke-width:6;stroke-linecap:round;stroke-linejoin:round;stroke-miterlimit:10" />
          <line
             id="XMLID_56_-7"
             class="st5"
             x1="836.59241"
             y1="693.82385"
             x2="855.09241"
             y2="693.82385"
             style="fill:none;stroke:#a83727;stroke-width:6;stroke-linecap:round;stroke-linejoin:round;stroke-miterlimit:10" />
          <line
             id="XMLID_54_-8"
             class="st5"
             x1="507.29242"
             y1="693.82385"
             x2="822.59241"
             y2="693.82385"
             style="fill:none;stroke:#a83727;stroke-width:6;stroke-linecap:round;stroke-linejoin:round;stroke-miterlimit:10" />
          <path
             id="XMLID_14_-5"
             class="st10"
             d="m 557.89242,703.62383 c 0,29.2 49.9,53 111.4,53 48.2,0 89.2,-14.5 104.7,-34.9 l -116.5,8.4 z"
             style="fill:#d6d6d6" />
          <path
             id="XMLID_15_-7"
             class="st11"
             d="m 757.99242,700.72383 c -2.9,-0.6 -6,-0.3 -8.7,0.8 -17.6,6.9 -48.4,11.5 -83.4,11.5 -54.7,0 -99,-11.2 -99,-25 0,-12.2 34.7,-22.4 80.6,-24.6 l 3.2,-16.7 c -62.9,3.9 -110.7,23.4 -110.7,46.8 0,26.2 60,47.5 134,47.5 32.4,0 62.1,-4.1 85.3,-10.9 15,-4.5 14.1,-26.2 -1.3,-29.4 z"
             style="fill:#f78a21" />
          <path
             id="XMLID_51_-4"
             class="st12"
             d="m 705.39242,710.92383 48,-10.5 c 0,0 12.6,1.3 14.9,8 4,11.4 -4.2,18.4 -4.2,18.4 0,0 -3.1,-26.4 -58.7,-15.9 z"
             style="opacity:0.26;fill:#9b463d" />
          <path
             id="XMLID_21_-1"
             class="st5"
             d="m 757.99242,700.72383 c -2.9,-0.6 -6,-0.3 -8.7,0.8 -17.6,6.9 -48.4,11.5 -83.4,11.5 -54.7,0 -99,-11.2 -99,-25 0,-12.2 34.7,-22.4 80.6,-24.6 l 3.2,-16.7 c -62.9,3.9 -110.7,23.4 -110.7,46.8 0,26.2 60,47.5 134,47.5 32.4,0 62.1,-4.1 85.3,-10.9 15,-4.5 14.1,-26.2 -1.3,-29.4 z"
             style="fill:none;stroke:#a83727;stroke-width:6;stroke-linecap:round;stroke-linejoin:round;stroke-miterlimit:10" />
          <path
             id="XMLID_27_-8"
             class="st11"
             d="m 748.59242,349.52383 c -16,-5.1 -33.7,-8 -52.2,-8 -18.4,0 -35.9,2.8 -51.9,7.8 -9.7,-22.7 -22.9,-41.2 -36.8,-52.7 -2.2,-1.8 -5.5,-1.2 -6.9,1.3 -27.7,50.1 -40.1,107.4 -34.9,169.9 4.8,69.8 31.7,146.5 57.2,225.8 h 146.8 c 25.6,-79.2 52.2,-155.1 57.2,-224 5.5,-62.9 -7.1,-120.4 -35.6,-171 -1.4,-2.5 -4.7,-3.1 -6.9,-1.3 -13.6,11.6 -26.5,29.8 -36,52.2 z"
             style="fill:#f78a21" />
          <path
             id="XMLID_55_"
             class="st12"
             d="m 708.69242,443.52383 c 0,3.7 -5.5,6.7 -12.4,6.7 -6.8,0 -12.4,-3 -12.4,-6.7 l 12.5,-2.8 z"
             style="opacity:0.26;fill:#9b463d" />
          <path
             id="XMLID_40_-59"
             class="st12"
             d="m 747.59242,692.22383 c 0,0 0,-7.9 1.5,-14.5 13.2,-58.7 4.5,-76.8 4.5,-76.8 l -27.8,91.5 z"
             style="opacity:0.26;fill:#9b463d" />
          <path
             id="XMLID_42_-7"
             class="st12"
             d="m 643.09242,692.22383 c 0,0 0,-7.9 -1.5,-14.5 -13.2,-58.7 -4.5,-76.8 -4.5,-76.8 l 27.8,91.5 z"
             style="opacity:0.26;fill:#9b463d" />
          <path
             id="XMLID_16_-5"
             class="st5"
             d="m 748.59242,349.52383 c -16,-5.1 -33.7,-8 -52.2,-8 -18.4,0 -35.9,2.8 -51.9,7.8 -9.7,-22.7 -22.9,-41.2 -36.8,-52.7 -2.2,-1.8 -5.5,-1.2 -6.9,1.3 -27.7,50.1 -40.1,107.4 -34.9,169.9 4.8,69.8 31.7,146.5 57.2,225.8 h 146.8 c 25.6,-79.2 52.2,-155.1 57.2,-224 5.5,-62.9 -7.1,-120.4 -35.6,-171 -1.4,-2.5 -4.7,-3.1 -6.9,-1.3 -13.6,11.6 -26.5,29.8 -36,52.2 z"
             style="fill:none;stroke:#a83727;stroke-width:6;stroke-linecap:round;stroke-linejoin:round;stroke-miterlimit:10" />
          <circle
             id="XMLID_6_-3"
             class="st13"
             cx="654.8924"
             cy="389.42383"
             r="8"
             style="fill:#a83727" />
          <circle
             id="XMLID_12_-8"
             class="st13"
             cx="737.8924"
             cy="389.42383"
             r="8"
             style="fill:#a83727" />
          <path
             id="XMLID_13_-8"
             class="st13"
             d="m 703.09242,416.32383 c -4.4,-0.4 -8.8,-0.4 -13.2,0 -2.1,0.2 -2.8,2.3 -1.2,3.4 1.4,0.9 2.8,1.8 4.2,2.8 2,1.4 5.3,1.4 7.3,0 1.4,-1 2.8,-1.9 4.2,-2.8 1.5,-1.1 0.7,-3.2 -1.3,-3.4 z"
             style="fill:#a83727" />
          <path
             id="XMLID_39_-3"
             class="st11"
             d="m 753.39242,603.82383 c -1.7,29.5 -15.4,60.5 -24.8,90 -9.7,0 -32.2,0 -32.2,0 l 0.2,-83.1"
             style="fill:#f78a21" />
          <path
             id="XMLID_34_-1"
             class="st11"
             d="m 639.29242,603.82383 c 1.7,29.5 18.4,60.5 27.8,90 9.7,0 29.2,0 29.2,0 l -0.2,-83.1"
             style="fill:#f78a21" />
          <path
             id="XMLID_10_-89"
             class="st5"
             d="m 714.79242,442.62383 c -1.8,1 -4,1.6 -6.2,1.6 -6.7,0 -12.1,-4.9 -12.1,-10.9"
             style="fill:none;stroke:#a83727;stroke-width:6;stroke-linecap:round;stroke-linejoin:round;stroke-miterlimit:10" />
          <path
             id="XMLID_7_-64"
             class="st5"
             d="m 677.99242,442.62383 c 1.8,1 4,1.6 6.2,1.6 6.7,0 12.1,-4.9 12.1,-10.9"
             style="fill:none;stroke:#a83727;stroke-width:6;stroke-linecap:round;stroke-linejoin:round;stroke-miterlimit:10" />
          <path
             id="XMLID_11_-3"
             class="st5"
             d="m 753.39242,603.82383 c -1.7,29.5 -18.4,60.5 -27.8,90 -9.7,0 -29.2,0 -29.2,0 l 0.2,-83.1"
             style="fill:none;stroke:#a83727;stroke-width:6;stroke-linecap:round;stroke-linejoin:round;stroke-miterlimit:10" />
          <path
             id="XMLID_30_-33"
             class="st5"
             d="m 639.29242,603.82383 c 1.7,29.5 15.4,60.5 24.8,90 9.7,0 32.2,0 32.2,0 l -0.2,-83.1"
             style="fill:none;stroke:#a83727;stroke-width:6;stroke-linecap:round;stroke-linejoin:round;stroke-miterlimit:10" />
          <path
             id="XMLID_31_-8"
             class="st12"
             d="m 763.39242,361.02383 c 7.4,-22.7 18.2,-28.5 18.2,-28.5 0,0 7.8,2.9 7.8,33.8"
             style="opacity:0.26;fill:#9b463d" />
          <path
             id="XMLID_33_-6"
             class="st12"
             d="m 629.39242,361.02383 c -7.4,-22.7 -18.2,-28.5 -18.2,-28.5 0,0 -7.8,2.9 -7.8,33.8"
             style="opacity:0.26;fill:#9b463d" />
          <line
             id="XMLID_45_-0"
             class="st5"
             x1="678.59241"
             y1="681.82385"
             x2="681.09241"
             y2="693.12384"
             style="fill:none;stroke:#a83727;stroke-width:6;stroke-linecap:round;stroke-linejoin:round;stroke-miterlimit:10" />
          <line
             id="XMLID_46_-4"
             class="st5"
             x1="714.19244"
             y1="681.82385"
             x2="711.69244"
             y2="693.12384"
             style="fill:none;stroke:#a83727;stroke-width:6;stroke-linecap:round;stroke-linejoin:round;stroke-miterlimit:10" />
          <path
             id="XMLID_19_-8"
             class="st15"
             d="m 741.29242,438.32383 c 12.1,3.2 24.6,3.8 36.6,2"
             style="opacity:0.24;fill:none;stroke:#a83727;stroke-width:2;stroke-linecap:round;stroke-linejoin:round;stroke-miterlimit:10" />
          <path
             id="XMLID_20_-8"
             class="st15"
             d="m 737.89242,445.92383 c 11,7 22.4,11.8 33.4,14.3"
             style="opacity:0.24;fill:none;stroke:#a83727;stroke-width:2;stroke-linecap:round;stroke-linejoin:round;stroke-miterlimit:10" />
          <path
             id="XMLID_35_-8"
             class="st15"
             d="m 741.29242,427.52383 c 9.9,-0.7 20.1,-3.4 30,-8.1"
             style="opacity:0.24;fill:none;stroke:#a83727;stroke-width:2;stroke-linecap:round;stroke-linejoin:round;stroke-miterlimit:10" />
          <path
             id="XMLID_50_-9"
             class="st15"
             d="m 651.49242,438.32383 c -12.1,3.2 -24.6,3.8 -36.6,2"
             style="opacity:0.24;fill:none;stroke:#a83727;stroke-width:2;stroke-linecap:round;stroke-linejoin:round;stroke-miterlimit:10" />
          <path
             id="XMLID_43_-7"
             class="st15"
             d="m 654.89242,445.92383 c -11,7 -22.4,11.8 -33.4,14.3"
             style="opacity:0.24;fill:none;stroke:#a83727;stroke-width:2;stroke-linecap:round;stroke-linejoin:round;stroke-miterlimit:10" />
          <path
             id="XMLID_36_-7"
             class="st15"
             d="m 651.49242,427.52383 c -9.9,-0.7 -20.1,-3.4 -30,-8.1"
             style="opacity:0.24;fill:none;stroke:#a83727;stroke-width:2;stroke-linecap:round;stroke-linejoin:round;stroke-miterlimit:10" />
        </g>
      </g>
    </g>
  </g>
</svg>
