<?xml version="1.0" encoding="UTF-8" standalone="no"?>
<!-- Created with Inkscape (http://www.inkscape.org/) -->

<svg
   width="47.744553mm"
   height="68.098907mm"
   viewBox="0 0 47.744553 68.098909"
   version="1.1"
   id="svg2469"
   xmlns="http://www.w3.org/2000/svg"
   xmlns:svg="http://www.w3.org/2000/svg">
  <defs
     id="defs2466" />
  <g
     id="layer7"
     style="display:inline"
     transform="translate(-290.46345,-88.55072)">
    <g
       id="g2838"
       transform="translate(33.8763,-61.1829)">
      <g
         id="g1556"
         style="display:inline">
        <g
           id="g1901"
           transform="matrix(0.0990962,0,0,0.0990962,218.009,139.824)"
           style="display:inline">
          <path
             id="XMLID_72_-0"
             class="st4"
             d="m 495.2,625.8 c 2.9,-17.4 9.8,-37.4 18,-54.1 -11.4,18.6 -21.7,45.1 -25.4,67.5 -5.7,34.1 -3.8,65.4 4.9,85.3 l 5.2,-18.8 C 491.1,685.8 490,657 495.2,625.8 Z"
             style="fill:#d1d1d1" />
          <line
             id="XMLID_23_-03"
             class="st3"
             x1="503.39999"
             y1="773"
             x2="503.39999"
             y2="784"
             style="fill:none;stroke:#00354c;stroke-width:6;stroke-linecap:round;stroke-linejoin:round;stroke-miterlimit:10" />
          <line
             id="XMLID_66_-4"
             class="st3"
             x1="765"
             y1="784.20001"
             x2="806.29999"
             y2="784.20001"
             style="fill:none;stroke:#00354c;stroke-width:6;stroke-linecap:round;stroke-linejoin:round;stroke-miterlimit:10" />
          <circle
             id="XMLID_16_-92"
             class="st6"
             cx="700.5"
             cy="192.7"
             r="51.700001"
             style="fill:#f7bf46" />
          <circle
             id="XMLID_33_-7"
             class="st6"
             cx="752.20001"
             cy="151.7"
             r="51.700001"
             style="fill:#f7bf46" />
          <circle
             id="XMLID_123_"
             class="st6"
             cx="823.90002"
             cy="170.2"
             r="47.200001"
             style="fill:#f7bf46" />
          <circle
             id="XMLID_126_"
             class="st6"
             cx="752.20001"
             cy="222"
             r="51.5"
             style="fill:#f7bf46" />
          <circle
             id="XMLID_124_"
             class="st6"
             cx="807"
             cy="222"
             r="34.299999"
             style="fill:#f7bf46" />
          <path
             id="XMLID_125_-4"
             class="st6"
             d="m 698.8,327.6 c 0,7.8 -2,12.5 -9.8,12.5 -7.8,0 -14.2,-3 -14.2,-10.8 0,-7.8 4.1,-14.8 12,-14.8 7.9,0 12,5.3 12,13.1 z"
             style="fill:#f7bf46" />
          <path
             id="XMLID_130_"
             class="st6"
             d="m 726.9,288.7 c 0,11.8 -2.9,18.8 -14.7,18.8 -11.8,0 -21.2,-4.5 -21.2,-16.3 0,-11.8 9.5,-21.3 21.3,-21.3 11.8,0 14.6,7.1 14.6,18.8 z"
             style="fill:#f7bf46" />
          <path
             id="XMLID_31_-2"
             class="st0"
             d="m 717,640.2 c 0.2,2.7 0.3,5.4 0.3,8.1 0,55.9 -45,101.3 -100.5,101.3 -46.6,0 -85.8,-32 -97.2,-75.4 4.1,52.1 47.4,93.2 100.2,93.2 55.5,0 100.5,-45.3 100.5,-101.3 0.1,-9 -1.1,-17.6 -3.3,-25.9 z"
             style="fill:#ffffff" />
          <path
             id="XMLID_17_-52"
             class="st3"
             d="m 717,640.2 c 0.2,2.7 0.3,5.4 0.3,8.1 0,55.9 -45,101.3 -100.5,101.3 -46.6,0 -85.8,-32 -97.2,-75.4 4.1,52.1 47.4,93.2 100.2,93.2 55.5,0 100.5,-45.3 100.5,-101.3 0.1,-9 -1.1,-17.6 -3.3,-25.9 z"
             style="fill:none;stroke:#00354c;stroke-width:6;stroke-linecap:round;stroke-linejoin:round;stroke-miterlimit:10" />
          <path
             id="XMLID_28_-4"
             class="st0"
             d="m 541.3,549.2 c -17,-7.6 -46.6,48.4 -53.5,90 -5.7,34.1 -3.8,65.4 4.9,85.3 z"
             style="fill:#ffffff" />
          <path
             id="XMLID_1_-4"
             class="st3"
             d="m 541.3,549.2 c -17,-7.6 -46.6,48.4 -53.5,90 -5.7,34.1 -3.8,65.4 4.9,85.3 z"
             style="fill:none;stroke:#00354c;stroke-width:6;stroke-linecap:round;stroke-linejoin:round;stroke-miterlimit:10" />
          <path
             id="XMLID_68_-38"
             class="st0"
             d="m 593.7,549.2 c 17,-7.6 46.6,48.4 53.5,90 5.7,34.1 3.8,65.4 -4.9,85.3 z"
             style="fill:#ffffff" />
          <path
             id="XMLID_56_-6"
             class="st4"
             d="m 639.9,625.8 c -2.9,-17.4 -9.8,-37.4 -18,-54.1 11.4,18.6 21.7,45.1 25.4,67.5 5.7,34.1 3.8,65.4 -4.9,85.3 l -5.2,-18.8 c 6.8,-19.9 7.8,-48.7 2.7,-79.9 z"
             style="fill:#d1d1d1" />
          <path
             id="XMLID_54_-0"
             class="st3"
             d="m 593.7,549.2 c 17,-7.6 46.6,48.4 53.5,90 5.7,34.1 3.8,65.4 -4.9,85.3 z"
             style="fill:none;stroke:#00354c;stroke-width:6;stroke-linecap:round;stroke-linejoin:round;stroke-miterlimit:10" />
          <path
             id="XMLID_18_-89"
             class="st0"
             d="M 645.3,732 C 644.2,715.4 601,535.2 589.3,526.2 h -21.1 -21.7 c -11.7,9 -55,189.1 -56,205.8 -1.3,20.7 -8.1,52.2 31.2,52.2 h 46.5 46 c 39.2,0 32.4,-31.5 31.1,-52.2 z"
             style="fill:#ffffff" />
          <path
             id="XMLID_20_-2"
             class="st4"
             d="m 495.2,706.5 c 0,0 -3.1,26.4 11.7,36.1 11.6,7.7 21.8,10.8 40.9,14.3 10.3,1.9 21.5,2.7 21.5,2.7 l 1.2,23.7 -81.4,0.6 c 0,0 -1.4,-33.3 0.6,-43.3 2,-9.9 3,-26.5 5.5,-34.1 z"
             style="fill:#d1d1d1" />
          <path
             id="XMLID_5_-2"
             class="st4"
             d="m 641.4,706.5 c 0,0 3.1,26.4 -11.7,36.1 -11.6,7.7 -21.8,10.8 -40.9,14.3 -10.3,1.9 -21.5,2.7 -21.5,2.7 l -1.2,23.7 81.4,0.6 c 0,0 1.4,-33.3 -0.6,-43.3 -2,-9.9 -3,-26.5 -5.5,-34.1 z"
             style="fill:#d1d1d1" />
          <path
             id="XMLID_64_"
             class="st6"
             d="m 603.6,562.5 c -2.5,-0.7 -4.9,-1.1 -7,-1.1 -12.2,0 -21.9,6.5 -21.9,21.5 0,15.1 21.9,33 34.1,33 3.3,0 6.4,-0.9 9.2,-2.5 -4.9,-18.4 -9.9,-36.2 -14.4,-50.9 z"
             style="fill:#f7bf46" />
          <path
             id="XMLID_58_-3"
             class="st6"
             d="m 511.1,692.1 c 13.5,0 24.5,-13.3 24.5,-29.7 0,-15.7 -10.1,-28.6 -22.9,-29.6 -5,19.6 -9.7,39 -13.5,55.5 3.6,2.4 7.6,3.8 11.9,3.8 z"
             style="fill:#f7bf46" />
          <path
             id="XMLID_46_-1"
             class="st4"
             d="m 543.4,530.5 c 0,0 7.1,5.7 23.4,5.7 13.2,0 24.8,-5.7 24.8,-5.7 l -1,-3.9 h -46.5 z"
             style="fill:#d1d1d1" />
          <path
             id="XMLID_4_-8"
             class="st3"
             d="M 645.3,732 C 644.2,715.4 601,535.2 589.3,526.2 h -21.1 -21.7 c -11.7,9 -55,189.1 -56,205.8 -1.3,20.7 -8.1,52.2 31.2,52.2 h 46.5 46 c 39.2,0 32.4,-31.5 31.1,-52.2 z"
             style="fill:none;stroke:#00354c;stroke-width:6;stroke-linecap:round;stroke-linejoin:round;stroke-miterlimit:10" />
          <path
             id="XMLID_9_-3"
             class="st0"
             d="m 643,454.2 c -1.9,-19.5 -11.5,-68.8 -22.3,-103.3 -17.2,-55.1 -37.4,-69.5 -49.1,-71 -1.2,-0.2 -3.8,-0.2 -3.8,-0.2 0,0 -2.5,0 -3.8,0.2 -11.7,1.4 -31.8,15.7 -49.1,70.9 -10.8,34.5 -20.3,83.9 -22.3,103.5 -4.3,44 16.8,68.3 44.2,71.8 7.8,1 23.2,1 31,1 7.7,0 23.1,0 31,-1 27.3,-3.6 48.5,-27.9 44.2,-71.9 z"
             style="fill:#ffffff" />
          <ellipse
             id="XMLID_49_"
             class="st4"
             cx="567.79999"
             cy="479.60001"
             rx="18.9"
             ry="14.9"
             style="fill:#d1d1d1" />
          <path
             id="XMLID_55_-4"
             class="st4"
             d="m 550.5,285.5 c 0,0 -9,33.9 -27.8,43.7 4.8,-10.8 11.3,-23.7 11.3,-23.7 0,0 11.2,-18.5 16.5,-20 z"
             style="fill:#d1d1d1" />
          <path
             id="XMLID_53_-2"
             class="st4"
             d="m 571.6,280 c 0,0 24.4,42 44.7,58.1 0,0 -4.6,-29.8 -9.1,-38.8 -4.5,-9 -26.5,-22.1 -35.6,-19.3 z"
             style="fill:#d1d1d1" />
          <path
             id="XMLID_15_-2"
             class="st6"
             d="m 519.8,441.3 c 39.3,-16.9 62.8,-50.2 52.4,-74.3 -7.3,-16.9 -29.3,-24.8 -55.3,-22.2 -0.6,1.9 -1.3,3.9 -1.9,6 -10,32 -18.9,76.7 -21.7,98.6 8.6,-1.6 17.6,-4.2 26.5,-8.1 z"
             style="fill:#f7bf46" />
          <path
             id="XMLID_14_-45"
             class="st3"
             d="m 624.1,487.1 c -11.2,16.3 -35.7,27.3 -61.8,27.3 -24.2,0 -38.7,-14.2 -47.2,-31.9"
             style="fill:none;stroke:#00354c;stroke-width:6;stroke-linecap:round;stroke-linejoin:round;stroke-miterlimit:10" />
          <ellipse
             id="XMLID_7_-1"
             class="st2"
             cx="567.79999"
             cy="477"
             rx="23.700001"
             ry="12.2"
             style="fill:#00354c" />
          <path
             id="XMLID_2_-7"
             class="st0"
             d="m 697.9,777.9 c -15.2,-14.3 -44.4,-21.4 -72.9,-19.2 -24.4,1.8 -42.5,10.1 -49.6,21.1 -1.2,1.9 0.3,4.4 2.6,4.4 h 115.5 c 4.5,0 7.2,-3.7 4.4,-6.3 z"
             style="fill:#ffffff" />
          <path
             id="XMLID_50_-5"
             class="st4"
             d="m 697.1,777.7 c -0.3,0.1 -0.7,0.2 -1.1,0.2 H 580.5 c -1.4,0 -2.6,-0.3 -3.5,-0.9 -0.3,0.3 -0.7,0.6 -1,0.9 -2.8,2.6 -0.1,6.3 4.5,6.3 H 696 c 2.3,0 3.8,-2.6 2.6,-4.4 -0.5,-0.8 -1,-1.5 -1.5,-2.1 z"
             style="fill:#d1d1d1" />
          <path
             id="XMLID_19_-7"
             class="st3"
             d="m 697.9,777.9 c -15.2,-14.3 -44.4,-21.4 -72.9,-19.2 -24.4,1.8 -42.5,10.1 -49.6,21.1 -1.2,1.9 0.3,4.4 2.6,4.4 h 115.5 c 4.5,0 7.2,-3.7 4.4,-6.3 z"
             style="fill:none;stroke:#00354c;stroke-width:6;stroke-linecap:round;stroke-linejoin:round;stroke-miterlimit:10" />
          <line
             id="XMLID_8_-1"
             class="st3"
             x1="635.40002"
             y1="773"
             x2="635.40002"
             y2="784"
             style="fill:none;stroke:#00354c;stroke-width:6;stroke-linecap:round;stroke-linejoin:round;stroke-miterlimit:10" />
          <path
             id="XMLID_25_-6"
             class="st0"
             d="m 441,777.9 c 15.2,-14.3 44.4,-21.4 72.9,-19.2 24.4,1.8 42.5,10.1 49.6,21.1 1.2,1.9 -0.3,4.4 -2.6,4.4 H 445.4 c -4.5,0 -7.2,-3.7 -4.4,-6.3 z"
             style="fill:#ffffff" />
          <path
             id="XMLID_67_-9"
             class="st4"
             d="m 562.1,777.7 c -0.3,0.1 -0.7,0.2 -1.1,0.2 H 445.5 c -1.4,0 -2.6,-0.3 -3.5,-0.9 -0.3,0.3 -0.7,0.6 -1,0.9 -2.8,2.6 -0.1,6.3 4.5,6.3 H 561 c 2.3,0 3.8,-2.6 2.6,-4.4 -0.5,-0.8 -1,-1.5 -1.5,-2.1 z"
             style="fill:#d1d1d1" />
          <path
             id="XMLID_24_-8"
             class="st3"
             d="m 441,777.9 c 15.2,-14.3 44.4,-21.4 72.9,-19.2 24.4,1.8 42.5,10.1 49.6,21.1 1.2,1.9 -0.3,4.4 -2.6,4.4 H 445.4 c -4.5,0 -7.2,-3.7 -4.4,-6.3 z"
             style="fill:none;stroke:#00354c;stroke-width:6;stroke-linecap:round;stroke-linejoin:round;stroke-miterlimit:10" />
          <path
             id="XMLID_13_-1"
             class="st3"
             d="m 643,454.2 c -1.9,-19.5 -11.5,-68.8 -22.3,-103.3 -17.2,-55.1 -37.4,-69.5 -49.1,-71 -1.2,-0.2 -3.8,-0.2 -3.8,-0.2 0,0 -2.5,0 -3.8,0.2 -11.7,1.4 -31.8,15.7 -49.1,70.9 -10.8,34.5 -20.3,83.9 -22.3,103.5 -4.3,44 16.8,68.3 44.2,71.8 7.8,1 23.2,1 31,1 7.7,0 23.1,0 31,-1 27.3,-3.6 48.5,-27.9 44.2,-71.9 z"
             style="fill:none;stroke:#00354c;stroke-width:6;stroke-linecap:round;stroke-linejoin:round;stroke-miterlimit:10" />
          <path
             id="XMLID_29_-3"
             class="st0"
             d="m 569.8,279.5 c 0,0 34.9,-7.4 44.5,-2.9 9.9,4.6 27.8,39.7 20.4,53.4 -11.3,21 -44.5,-55 -64.9,-50.5 z"
             style="fill:#ffffff" />
          <path
             id="XMLID_11_-33"
             class="st3"
             d="m 569.8,279.5 c 0,0 34.9,-7.4 44.5,-2.9 9.9,4.6 27.8,39.7 20.4,53.4 -11.3,21 -44.5,-55 -64.9,-50.5 z"
             style="fill:none;stroke:#00354c;stroke-width:6;stroke-linecap:round;stroke-linejoin:round;stroke-miterlimit:10" />
          <path
             id="XMLID_27_-7"
             class="st0"
             d="m 504.3,285.8 48.3,-1.4 c 0,0 -44.8,48.2 -65.5,58.6 -20.7,10.4 0.5,-57.3 17.2,-57.2 z"
             style="fill:#ffffff" />
          <path
             id="XMLID_12_-98"
             class="st3"
             d="m 504.3,285.8 48.3,-1.4 c 0,0 -44.8,48.2 -65.5,58.6 -20.7,10.4 0.5,-57.3 17.2,-57.2 z"
             style="fill:none;stroke:#00354c;stroke-width:6;stroke-linecap:round;stroke-linejoin:round;stroke-miterlimit:10" />
          <ellipse
             id="XMLID_3_-6"
             class="st2"
             cx="548.70001"
             cy="387.5"
             rx="5"
             ry="6.5"
             style="fill:#00354c" />
          <ellipse
             id="XMLID_6_-7"
             class="st2"
             cx="590.90002"
             cy="387.5"
             rx="5"
             ry="6.5"
             style="fill:#00354c" />
          <line
             id="XMLID_57_-0"
             class="st3"
             x1="392.29999"
             y1="784.20001"
             x2="739"
             y2="784.20001"
             style="fill:none;stroke:#00354c;stroke-width:6;stroke-linecap:round;stroke-linejoin:round;stroke-miterlimit:10" />
          <path
             id="XMLID_128_"
             class="st6"
             d="m 668.2,347 c 0,5.6 -1.4,8.9 -7,8.9 -5.6,0 -10.1,-2.1 -10.1,-7.7 0,-5.6 4.5,-10.1 10.1,-10.1 5.6,0 7,3.3 7,8.9 z"
             style="fill:#f7bf46" />
          <path
             id="XMLID_21_-4"
             class="st10"
             d="m 804.8,188 c 1.5,-1.8 2.4,-4.3 2.1,-7 -0.5,-4.2 -6.2,-6.3 -8.6,-6.8 -3.2,-0.6 -9.9,2.3 -9.9,7.8 0,0 0,0 0,0 0,1.3 -1,2.4 -2.3,2.4 h -45.5 c -1.3,0 -2.3,-1.1 -2.3,-2.3 0,-1.2 -0.2,-2.5 -0.8,-3.8 -1.3,-3 -4.6,-3.4 -7.5,-3.7 -5,-0.6 -10.3,1.9 -10.3,7.4 0,2.3 0.8,4.3 2.2,5.9 0.9,1.1 0.9,2.7 0,3.8 -1.5,1.8 -2.4,4.3 -2.1,7 0.5,4.2 4.5,6 8.3,6.4 5,0.6 10.2,-2 10.2,-7.4 0,0 0,0 0,0 0,-1.3 1,-2.4 2.3,-2.4 h 45.5 c 1.3,0 2.3,1.1 2.3,2.3 0,1.2 0.2,2.5 0.8,3.8 1.3,3 6,3.7 7.8,4.1 3.2,0.6 9.9,-2.3 9.9,-7.8 0,-2.3 -0.8,-4.3 -2.2,-5.9 -0.8,-1.1 -0.8,-2.7 0.1,-3.8 z"
             style="fill:#f6f6f4" />
        </g>
      </g>
    </g>
  </g>
</svg>
