<?xml version="1.0" encoding="UTF-8" standalone="no"?>
<!-- Created with Inkscape (http://www.inkscape.org/) -->

<svg
   width="59.079834mm"
   height="56.139011mm"
   viewBox="0 0 59.079834 56.139012"
   version="1.1"
   id="svg2469"
   xmlns="http://www.w3.org/2000/svg"
   xmlns:svg="http://www.w3.org/2000/svg">
  <defs
     id="defs2466" />
  <g
     id="layer8"
     style="display:inline"
     transform="translate(-8.3450547,-190.03141)">
    <g
       id="g2737"
       transform="translate(33.8763,-61.1829)">
      <g
         id="g1812"
         style="display:inline">
        <path
           id="XMLID_46_-6"
           class="st2"
           d="m -10.064369,255.88635 c 4.5859996,-6.89959 21.859669,-5.28584 23.341679,-0.77394 0.65044,1.99248 -2.21478,3.24396 -1.45731,5.59871 0.88921,2.76642 5.23644,2.27242 12.75353,7.92053 1.27618,0.96331 9.056741,6.80079 8.974411,14.64722 -0.0741,7.31949 -6.133891,14.48254 -12.704141,15.87399 -6.72668,1.42437 -9.3449,-4.13317 -16.1703894,-2.79112 -8.48863,1.67961 -9.49311,10.99158 -14.63075,10.99158 -9.9541796,0.008 -20.3117896,-35.15661 -13.2475396,-39.72614 2.79113,-1.80312 7.23716,1.86074 10.35762,-0.77394 3.0134196,-2.53589 0.18937,-7.07249 2.78289,-10.96689 z"
           style="fill:#e4efef;stroke-width:0.082334" />
        <path
           id="XMLID_47_-1"
           class="st2"
           d="m 10.00865,300.7419 c 1.11974,1.22678 0.41167,3.28513 -1.0456394,4.4378 -1.20208,0.95508 -3.22749,1.53965 -4.6601,0.83981 -1.78665,-0.86451 -1.96779,-3.38393 -0.35404,-4.92357 1.64668,-1.58081 4.79184,-1.75371 6.0597794,-0.35404 z"
           style="fill:#e4efef;stroke-width:0.082334" />
        <path
           id="XMLID_48_"
           class="st2"
           d="m 21.40367,256.77556 c 1.40791,0.38697 1.77842,4.33076 0.82334,5.1047 -2.59352,2.09129 -4.4131,0.0576 -3.29336,-2.79935 0.51048,-1.30911 1.58905,-2.55235 2.47002,-2.30535 z"
           style="fill:#e4efef;stroke-width:0.082334" />
        <path
           id="XMLID_50_"
           class="st2"
           d="m -14.922079,259.74781 c 1.40791,0.15644 1.77842,1.72902 0.82334,2.04189 -2.59352,0.83157 -4.4131,0.0247 -3.29336,-1.11975 0.51047,-0.5187 1.58905,-1.0127 2.47002,-0.92214 z"
           style="fill:#e4efef;stroke-width:0.082334" />
        <path
           id="XMLID_15_-0"
           class="st3"
           d="m 15.23686,293.03544 c 0,0 0.6669,0.75748 -2.85699,4.27314 0,-1.35851 0.41167,-2.89816 -1.46555,-3.49096 2.25596,-0.30464 4.32254,-0.78218 4.32254,-0.78218 z"
           style="fill:none;stroke:#272130;stroke-width:0.494004;stroke-linecap:round;stroke-linejoin:round;stroke-miterlimit:10" />
        <path
           id="XMLID_107_"
           class="st1"
           d="m 15.23686,293.03544 c 0,0 0.6669,0.75748 -2.85699,4.27314 0,-1.35851 0.41167,-2.89816 -1.46555,-3.49096 2.25596,-0.30464 4.32254,-0.78218 4.32254,-0.78218 z"
           style="fill:#372e42;stroke-width:0.082334" />
        <path
           id="XMLID_106_"
           class="st1"
           d="m -1.1887694,292.00627 c 0,0 -2.68409,0.93861 -3.9191,0.93861 -1.23501,0 -2.22302,-0.46931 -2.22302,-0.46931 l 1.23501,-0.4693 c -1.81134,0 -3.16985,-1.36675 -3.16985,-1.36675 l 1.44084,-0.32933 c -1.77018,-0.30464 -2.5523496,-2.14069 -2.5523496,-2.14069 0.32933,0 2.6840896,-0.37873 2.6840896,-0.93037 2.12421,2.12422 5.4258,4.33077 6.50438,4.76714 z"
           style="fill:#372e42;stroke-width:0.082334" />
        <path
           id="XMLID_183_"
           class="st4"
           d="m -7.6931494,287.23913 c 2.12421,2.12422 5.4258,4.33077 6.50438,4.76714 0,0 -1.88545,0.65867 -3.21926,0.87274 -0.23877,-0.2964 -0.46107,-0.55987 -0.60104,-0.69984 -0.42813,-0.42814 -2.21478,-0.68337 -2.21478,-1.19384 0,-0.51047 0.43637,-0.76571 -0.60927,-1.35028 -1.04564,-0.58457 -0.93861,-1.06211 -0.93861,-1.06211 l -0.11527,-0.65867 c 0.60927,-0.1729 1.19385,-0.40344 1.19385,-0.67514 z"
           style="opacity:0.83;fill:#2d2638;stroke-width:0.082334" />
        <path
           id="XMLID_41_"
           class="st5"
           d="m -3.2059494,290.98533 c 0,0 -0.79864,0.89744 -1.37498,0.89744"
           style="fill:none;stroke:#272130;stroke-width:0.329336;stroke-linecap:round;stroke-linejoin:round;stroke-miterlimit:10" />
        <path
           id="XMLID_42_"
           class="st5"
           d="m -6.5816494,290.98533 c 1.04565,0 1.57258,-1.18561 1.57258,-1.18561"
           style="fill:none;stroke:#272130;stroke-width:0.329336;stroke-linecap:round;stroke-linejoin:round;stroke-miterlimit:10" />
        <path
           id="XMLID_43_"
           class="st5"
           d="m -6.5816494,288.91051 c 0,0 -0.30463,0 -1.29264,0"
           style="fill:none;stroke:#272130;stroke-width:0.329336;stroke-linecap:round;stroke-linejoin:round;stroke-miterlimit:10" />
        <path
           id="XMLID_19_-6"
           class="st3"
           d="m -1.1887694,292.00627 c 0,0 -2.68409,0.93861 -3.9191,0.93861 -1.23501,0 -2.22302,-0.46931 -2.22302,-0.46931 l 1.23501,-0.4693 c -1.81134,0 -3.16985,-1.36675 -3.16985,-1.36675 l 1.44084,-0.32933 c -1.77018,-0.30464 -2.5523496,-2.14069 -2.5523496,-2.14069 0.32933,0 2.6840896,-0.37873 2.6840896,-0.93037 2.12421,2.12422 5.4258,4.33077 6.50438,4.76714 z"
           style="fill:none;stroke:#272130;stroke-width:0.494004;stroke-linecap:round;stroke-linejoin:round;stroke-miterlimit:10" />
        <ellipse
           id="XMLID_68_-3"
           class="st6"
           cx="-20.736769"
           cy="271.08524"
           rx="2.7170212"
           ry="2.9640234"
           style="fill:#ffffff;stroke-width:0.082334"
           transform="scale(-1,1)" />
        <ellipse
           id="XMLID_129_"
           class="st7"
           cx="-21.61775"
           cy="271.35693"
           rx="0.94684076"
           ry="0.97154099"
           style="fill:#1e1826;stroke-width:0.082334"
           transform="scale(-1,1)" />
        <ellipse
           id="XMLID_122_"
           class="st6"
           cx="-21.84828"
           cy="271.02759"
           rx="0.41990328"
           ry="0.42813668"
           style="fill:#ffffff;stroke-width:0.082334"
           transform="scale(-1,1)" />
        <circle
           id="XMLID_71_-2"
           class="st6"
           cx="-21.378981"
           cy="271.8674"
           style="fill:#ffffff;stroke-width:0.082334"
           r="0.15643457"
           transform="scale(-1,1)" />
        <ellipse
           id="XMLID_28_"
           class="st8"
           cx="-20.736769"
           cy="271.08524"
           rx="2.7170212"
           ry="2.9640234"
           style="fill:none;stroke:#204751;stroke-width:0.494004;stroke-linecap:round;stroke-linejoin:round;stroke-miterlimit:10"
           transform="scale(-1,1)" />
        <path
           id="XMLID_70_-0"
           class="st1"
           d="m 6.6988306,267.31431 c 0,0 -2.47002,-4.57777 -8.76857,-4.57777 0.8645,0.8645 0.8645,1.72901 0.8645,1.72901 0,0 -2.31358,-0.88921 -4.32253,-0.247 1.35851,1.35851 1.35851,2.09952 1.35851,2.09952 -1.35851,-1.35851 -4.2649,0.38697 -4.76714,0.89744 2.70056,0.988 1.91838,1.14444 1.91838,1.14444 0,0 -1.63021,-0.008 -3.1863196,1.54788 1.5808096,0.48577 3.3921596,1.18561 3.1122196,3.20279 1.67962,-1.55611 1.81958,-2.94756 13.79095,-5.79631 z"
           style="fill:#372e42;stroke-width:0.082334" />
        <path
           id="XMLID_174_"
           class="st4"
           d="m -7.8413594,271.0111 0.60928,-1.04564 c 0,0 1.48201,-0.57634 2.21478,-1.30911 0.73277,-0.73277 1.09504,-0.84804 1.80311,-1.55611 0.70808,-0.70807 1.47378,-0.85627 2.42062,-0.85627 0.94684,0 1.81135,-0.91391 2.27242,-1.37498 0.23054,-0.23054 1.52318,-0.23054 2.75819,-0.1729 1.71255,1.24324 2.45355,2.61822 2.45355,2.61822 -11.96313,2.84875 -12.10309,4.2402 -13.77447,5.78808 0.13173,-0.94684 -0.20584,-1.60552 -0.75748,-2.09129 z"
           style="opacity:0.83;fill:#2d2638;stroke-width:0.082334" />
        <path
           id="XMLID_37_-6"
           class="st5"
           d="m 3.3231306,267.61894 c 0,0 -1.53141,-2.00071 -3.05459,-2.74995"
           style="fill:none;stroke:#272130;stroke-width:0.329336;stroke-linecap:round;stroke-linejoin:round;stroke-miterlimit:10" />
        <path
           id="XMLID_38_-1"
           class="st5"
           d="m 0.8613506,268.12118 c 0,0 -1.30911,-1.53141 -4.07554,-2.51119"
           style="fill:none;stroke:#272130;stroke-width:0.329336;stroke-linecap:round;stroke-linejoin:round;stroke-miterlimit:10" />
        <path
           id="XMLID_39_"
           class="st5"
           d="m -1.7486394,269.29032 c 0,0 -1.61375,-1.86898 -4.39664,-1.97601"
           style="fill:none;stroke:#272130;stroke-width:0.329336;stroke-linecap:round;stroke-linejoin:round;stroke-miterlimit:10" />
        <path
           id="XMLID_40_-5"
           class="st5"
           d="m -3.9469594,270.6406 c 0,0 -2.32182,-1.35028 -3.92733,-1.35028"
           style="fill:none;stroke:#272130;stroke-width:0.329336;stroke-linecap:round;stroke-linejoin:round;stroke-miterlimit:10" />
        <path
           id="XMLID_21_-5"
           class="st3"
           d="m 6.6988306,267.31431 c 0,0 -2.47002,-4.57777 -8.76857,-4.57777 0.8645,0.8645 0.8645,1.72901 0.8645,1.72901 0,0 -2.31358,-0.88921 -4.32253,-0.247 1.35851,1.35851 1.35851,2.09952 1.35851,2.09952 -1.35851,-1.35851 -4.2649,0.38697 -4.76714,0.89744 2.70056,0.988 1.91838,1.14444 1.91838,1.14444 0,0 -1.63021,-0.008 -3.1863196,1.54788 1.5808096,0.48577 3.3921596,1.18561 3.1122196,3.20279 1.67962,-1.55611 1.81958,-2.94756 13.79095,-5.79631 z"
           style="fill:none;stroke:#272130;stroke-width:0.494004;stroke-linecap:round;stroke-linejoin:round;stroke-miterlimit:10" />
        <path
           id="XMLID_93_"
           class="st1"
           d="m -8.7881994,277.35905 c 0,0 -1.2597096,1.10328 -3.2357196,0.41167 -1.97602,-0.6916 -6.97369,-5.96098 -10.64579,-5.02237 0,0 1.91839,1.70431 1.48202,4.05906 -0.43637,2.36299 1.15267,4.22374 1.15267,4.22374 0,0 -1.31734,0.88097 0,2.19832 1.31735,1.31734 3.48273,0.9633 3.23573,2.71702 -0.247,1.75371 -1.53965,1.83604 -1.81135,3.37569 -0.2717,1.53965 0.32934,4.99767 -1.31734,5.76338 0,0 1.75371,3.23572 6.75138,-6.15035 2.30535,-4.37193 2.90639,-5.04707 4.3883996,-5.04707 0.49401,-1.31735 0,-6.52909 0,-6.52909 z"
           style="fill:#372e42;stroke-width:0.082334" />
        <path
           id="XMLID_172_"
           class="st4"
           d="m -8.7881994,277.35905 c 0,0 0.49401,5.21174 0,6.52909 -1.4820096,0 -2.0830496,0.67514 -4.3883996,5.04707 -0.008,0.0165 -0.0165,0.0329 -0.0247,0.0494 -0.55987,-1.41614 -0.60104,-4.28137 -0.60104,-5.23644 0,-1.29264 -1.49847,-1.95955 -1.81134,-3.78736 -0.18114,-1.05388 0.4446,-2.65939 1.0127,-3.83677 1.06211,0.77394 1.96779,1.43261 2.58529,1.64668 1.96778,0.69161 3.2274896,-0.41167 3.2274896,-0.41167 z"
           style="opacity:0.83;fill:#2d2638;stroke-width:0.082334" />
        <path
           id="XMLID_110_"
           class="st5"
           d="m -10.196109,280.13371 c 0,0 -2.00071,0.46107 -4.71773,-0.84804 -2.71703,-1.30911 -3.21103,-2.74996 -4.44604,-2.74996"
           style="fill:none;stroke:#272130;stroke-width:0.329336;stroke-linecap:round;stroke-linejoin:round;stroke-miterlimit:10" />
        <path
           id="XMLID_1_"
           class="st5"
           d="m -10.113769,281.80509 c 0,0 -2.18185,0 -4.66834,0 -2.48649,0 -4.0426,-0.75748 -4.0426,-0.75748"
           style="fill:none;stroke:#272130;stroke-width:0.329336;stroke-linecap:round;stroke-linejoin:round;stroke-miterlimit:10" />
        <path
           id="XMLID_35_"
           class="st5"
           d="m -10.113769,282.8672 c 0,0 -3.2028,-0.0494 -5.50815,1.76194"
           style="fill:none;stroke:#272130;stroke-width:0.329336;stroke-linecap:round;stroke-linejoin:round;stroke-miterlimit:10" />
        <path
           id="XMLID_36_-4"
           class="st5"
           d="m -9.7432694,283.47647 c 0,0 -4.5612996,1.24324 -7.1548196,8.4063"
           style="fill:none;stroke:#272130;stroke-width:0.329336;stroke-linecap:round;stroke-linejoin:round;stroke-miterlimit:10" />
        <path
           id="XMLID_20_-7"
           class="st3"
           d="m -8.7881994,277.35905 c 0,0 -1.2597096,1.10328 -3.2357196,0.41167 -1.97602,-0.6916 -6.97369,-5.96098 -10.64579,-5.02237 0,0 1.91839,1.70431 1.48202,4.05906 -0.43637,2.36299 1.15267,4.22374 1.15267,4.22374 0,0 -1.31734,0.88097 0,2.19832 1.31735,1.31734 3.48273,0.9633 3.23573,2.71702 -0.247,1.75371 -1.53965,1.83604 -1.81135,3.37569 -0.2717,1.53965 0.32934,4.99767 -1.31734,5.76338 0,0 1.75371,3.23572 6.75138,-6.15035 2.30535,-4.37193 2.90639,-5.04707 4.3883996,-5.04707 0.49401,-1.31735 0,-6.52909 0,-6.52909 z"
           style="fill:none;stroke:#272130;stroke-width:0.494004;stroke-linecap:round;stroke-linejoin:round;stroke-miterlimit:10" />
        <path
           id="XMLID_62_"
           class="st9"
           d="m 8.4937106,267.10024 c 0.7657,0 1.5231694,0.0329 2.2641794,0.0988 l -0.0988,0.0165 c 0.0988,0 0.1976,0 0.2964,0 0.75747,0.0741 1.49848,0.1729 2.21479,0.31287 v 25.99283 c -1.49848,0.27994 -3.06283,0.42814 -4.6765694,0.42814 -10.32469,0 -18.6898196,-6.01038 -18.6898196,-13.42044 0,-7.41006 8.3651296,-13.42867 18.6898196,-13.42867 z"
           style="fill:#4dc1c4;stroke-width:0.082334" />
        <path
           id="XMLID_181_"
           class="st10"
           d="m 2.3186606,267.84948 c -5.94452,2.24772 -10.00358,6.72668 -10.00358,11.88079 0,7.41006 8.9744,13.76624 19.2990794,13.76624 0.73278,0 0.29641,0.1729 1.00448,0.11527 l 0.55164,-0.0988 c -1.49848,0.27994 -3.06283,0.42814 -4.6765694,0.42814 -10.32469,0 -18.6898196,-6.01038 -18.6898196,-13.42044 0,-5.86218 5.2282096,-10.84339 12.5147696,-12.6712 z"
           style="fill:#23afab;stroke-width:0.082334" />
        <path
           id="XMLID_32_"
           class="st8"
           d="m 8.4937106,267.10024 c 0.7657,0 1.5231694,0.0329 2.2641794,0.0988 l -0.0988,0.0165 c 0.0988,0 0.1976,0 0.2964,0 0.75747,0.0741 1.49848,0.1729 2.21479,0.31287 v 25.99283 c -1.49848,0.27994 -3.06283,0.42814 -4.6765694,0.42814 -10.32469,0 -18.6898196,-6.01038 -18.6898196,-13.42044 0,-7.41006 8.3651296,-13.42867 18.6898196,-13.42867 z"
           style="fill:none;stroke:#204751;stroke-width:0.494004;stroke-linecap:round;stroke-linejoin:round;stroke-miterlimit:10" />
        <path
           id="XMLID_65_"
           class="st9"
           d="m 10.91432,267.21551 c 0,0 0,0 0,0 1.16091,0.10703 2.27242,0.28817 3.351,0.53517 4.7589,1.46554 8.63683,6.19975 8.63683,11.27975 l 2.33829,-0.247 c 1.02917,-0.10703 1.93485,0.68337 1.93485,1.72078 0,0.008 0,0.0165 0,0.0165 0,6.81725 -7.08896,12.45713 -16.26097,13.30517 -2.6346794,-3.63093 -4.2154894,-8.26633 -4.2154894,-13.30517 0,-5.04707 1.58081,-9.67424 4.2154894,-13.30517 z"
           style="fill:#4dc1c4;stroke-width:0.082334" />
        <path
           id="XMLID_60_"
           class="st10"
           d="m 21.37897,277.12852 c 0,0 -3.36746,1.41614 -6.33148,1.41614 -2.96402,0 -3.90263,-0.2223 -4.25667,-1.36674 0,0 -0.1729,0.7657 0.13174,1.36674 0.30463,0.60104 1.50671,2.44532 7.72293,1.17738 6.20798,-0.89744 3.91909,-0.65867 3.91909,-0.65867 0,0 0.13997,-2.42062 -1.18561,-1.93485 z"
           style="fill:#23afab;stroke-width:0.082334" />
        <path
           id="XMLID_34_-6"
           class="st10"
           d="m 19.70759,279.73027 c 0,0 -2.79935,1.35851 -5.64811,1.35851 -1.66314,0 -3.02165,-0.5928 -3.58153,-0.95507 -1.6878394,-1.10328 -0.5433994,-3.63093 0,-2.77466 0.30464,0.47754 0.76571,1.76195 1.07035,2.07482 0.30463,0.31287 4.60247,0.69984 5.14587,0.69984 0.5434,0 3.01342,-0.40344 3.01342,-0.40344 z"
           style="fill:#23afab;stroke-width:0.082334" />
        <path
           id="XMLID_33_-5"
           class="st8"
           d="m 10.91432,267.21551 c 0,0 0,0 0,0 1.16091,0.10703 2.27242,0.28817 3.351,0.53517 4.7589,1.46554 8.63683,6.19975 8.63683,11.27975 l 2.33829,-0.247 c 1.02917,-0.10703 1.93485,0.68337 1.93485,1.72078 0,0.008 0,0.0165 0,0.0165 0,6.81725 -7.08896,12.45713 -16.26097,13.30517 -2.6346794,-3.63093 -4.2154894,-8.26633 -4.2154894,-13.30517 0,-5.04707 1.58081,-9.67424 4.2154894,-13.30517 z"
           style="fill:none;stroke:#204751;stroke-width:0.494004;stroke-linecap:round;stroke-linejoin:round;stroke-miterlimit:10" />
        <path
           id="XMLID_24_-6"
           class="st11"
           d="m 16.406,279.96081 c 0.51871,-0.0494 0.99624,-0.10704 1.42438,-0.16467 0.0247,-0.13997 0.0329,-0.27994 0.0329,-0.4199 0,-1.04565 -0.60104,-1.93485 -1.42438,-2.23949 0.24701,0.38697 0.39521,0.87274 0.39521,1.39145 0,0.53517 -0.15644,1.0374 -0.42814,1.43261 z"
           style="fill:#ffffff;stroke:#ffffff;stroke-width:0.329336;stroke-linecap:round;stroke-linejoin:round;stroke-miterlimit:10" />
        <path
           id="XMLID_23_-9"
           class="st11"
           d="m 21.77418,279.28567 c 0.69984,-0.0906 1.35027,-0.18114 1.92661,-0.2717 0.0247,-0.18937 0.0329,-0.37874 0.0329,-0.57634 -0.0412,-1.42438 -0.88098,-2.60999 -2.01719,-3.00519 0.35404,0.5187 0.57634,1.16914 0.59281,1.88545 0.0165,0.73277 -0.18114,1.41614 -0.53517,1.96778 z"
           style="fill:#ffffff;stroke:#ffffff;stroke-width:0.329336;stroke-linecap:round;stroke-linejoin:round;stroke-miterlimit:10" />
        <path
           id="XMLID_30_-3"
           class="st8"
           d="m 9.6299106,278.18239 c 0,-0.7657 2.1406894,-1.64668 2.1406894,-1.64668"
           style="fill:none;stroke:#204751;stroke-width:0.494004;stroke-linecap:round;stroke-linejoin:round;stroke-miterlimit:10" />
        <ellipse
           id="XMLID_66_"
           class="st6"
           cx="-16.694166"
           cy="270.77237"
           rx="3.2933593"
           ry="3.4580271"
           style="fill:#ffffff;stroke-width:0.082334"
           transform="scale(-1,1)" />
        <ellipse
           id="XMLID_29_-7"
           class="st8"
           cx="-16.694166"
           cy="270.77237"
           rx="3.2933593"
           ry="3.4580271"
           style="fill:none;stroke:#204751;stroke-width:0.494004;stroke-linecap:round;stroke-linejoin:round;stroke-miterlimit:10"
           transform="scale(-1,1)" />
        <ellipse
           id="XMLID_27_-4"
           class="st7"
           cx="-16.95764"
           cy="271.7439"
           rx="1.3173437"
           ry="1.3585106"
           style="fill:#1e1826;stroke-width:0.082334"
           transform="scale(-1,1)" />
        <ellipse
           id="XMLID_67_"
           class="st6"
           cx="-17.278746"
           cy="271.29105"
           rx="0.58457124"
           ry="0.6010381"
           style="fill:#ffffff;stroke-width:0.082334"
           transform="scale(-1,1)" />
        <ellipse
           id="XMLID_69_-5"
           class="st6"
           cx="-16.62007"
           cy="272.46844"
           rx="0.21406834"
           ry="0.22230175"
           style="fill:#ffffff;stroke-width:0.082334"
           transform="scale(-1,1)" />
        <path
           id="XMLID_26_"
           class="st11"
           d="m 18.71959,275.4489 c -0.0247,-0.0247 -0.0494,-0.0494 -0.0741,-0.0741 0.3458,0.16467 0.68337,0.38697 0.97154,0.65044 1.09504,0.99624 1.41614,2.38769 0.92214,3.50743 l -1.44908,0.1976 c 0.88921,-1.33381 0.79041,-3.07106 -0.3705,-4.28136 z"
           style="fill:#ffffff;stroke:#ffffff;stroke-width:0.329336;stroke-linecap:round;stroke-linejoin:round;stroke-miterlimit:10" />
        <path
           id="XMLID_25_-2"
           class="st11"
           d="m 14.34765,278.22356 c -0.008,-0.008 -0.0165,-0.0247 -0.0329,-0.0329 0.1482,0.0906 0.28817,0.1976 0.40343,0.32934 0.41991,0.47753 0.41991,1.07857 0.0659,1.53141 l -0.72454,0.008 c 0.56811,-0.52694 0.71631,-1.25971 0.28817,-1.83605 z"
           style="fill:#ffffff;stroke:#ffffff;stroke-width:0.329336;stroke-linecap:round;stroke-linejoin:round;stroke-miterlimit:10" />
        <path
           id="XMLID_92_"
           class="st1"
           d="m 2.4668606,281.68982 c 0,0 3.72149,3.26866 2.69232,6.52908 0,0 -0.55164,1.58905 -2.36299,1.86899 -1.75371,0.26346 -2.11598,-0.57634 -2.52765,-0.98801 1.66315,-0.66691 0.92214,-2.82406 0.55164,-3.20279 0.7657,0 1.64668,-0.65044 1.95955,-1.35028 0.30463,-0.69984 0.13173,-1.36675 -0.31287,-2.85699 z"
           style="fill:#372e42;stroke-width:0.082334" />
        <path
           id="XMLID_160_"
           class="st4"
           d="m 5.1591806,288.22714 c 0,0 -0.52694,1.52318 -2.25595,1.84428 0.83981,-2.00072 1.19384,-4.5119 1.34204,-6.26562 0.78218,1.21855 1.41615,2.81583 0.91391,4.42134 z"
           style="opacity:0.83;fill:#2d2638;stroke-width:0.082334" />
        <path
           id="XMLID_17_-5"
           class="st3"
           d="m 2.4668606,281.68982 c 0,0 3.72149,3.26866 2.69232,6.52908 0,0 -0.55164,1.58905 -2.36299,1.86899 -1.75371,0.26346 -2.11598,-0.57634 -2.52765,-0.98801 1.66315,-0.66691 0.92214,-2.82406 0.55164,-3.20279 0.7657,0 1.64668,-0.65044 1.95955,-1.35028 0.30463,-0.69984 0.13173,-1.36675 -0.31287,-2.85699 z"
           style="fill:none;stroke:#272130;stroke-width:0.494004;stroke-linecap:round;stroke-linejoin:round;stroke-miterlimit:10" />
        <path
           id="XMLID_31_-4"
           class="st8"
           d="m 10.47795,277.35905 c 0,0 -0.0988,3.09576 4.33901,2.74996 5.01413,-0.39521 9.64954,-1.24325 9.64954,-1.24325"
           style="fill:none;stroke:#204751;stroke-width:0.494004;stroke-linecap:round;stroke-linejoin:round;stroke-miterlimit:10" />
        <circle
           id="XMLID_109_"
           class="st12"
           cx="-17.221113"
           cy="287.85666"
           r="1.943082"
           style="opacity:0.78;fill:#6d87ac;stroke-width:0.082334"
           transform="scale(-1,1)" />
        <circle
           id="XMLID_118_"
           class="st12"
           cx="-12.379861"
           cy="272.37787"
           r="0.60927147"
           style="opacity:0.78;fill:#6d87ac;stroke-width:0.082334"
           transform="scale(-1,1)" />
        <circle
           id="XMLID_125_"
           class="st12"
           cx="-10.848459"
           cy="270.08075"
           r="0.91390723"
           style="opacity:0.78;fill:#6d87ac;stroke-width:0.082334"
           transform="scale(-1,1)" />
        <circle
           id="XMLID_158_"
           class="st12"
           cx="-11.548288"
           cy="281.54987"
           r="0.46107027"
           style="opacity:0.78;fill:#6d87ac;stroke-width:0.082334"
           transform="scale(-1,1)" />
        <circle
           id="XMLID_120_"
           class="st13"
           cx="-10.782587"
           cy="273.7446"
           r="0.30463573"
           style="opacity:0.39;fill:#6d87ac;stroke-width:0.082334"
           transform="scale(-1,1)" />
        <circle
           id="XMLID_112_"
           class="st12"
           cx="-2.8044221"
           cy="272.69073"
           r="1.943082"
           style="opacity:0.78;fill:#6d87ac;stroke-width:0.082334"
           transform="scale(-1,1)" />
        <circle
           id="XMLID_159_"
           class="st13"
           cx="3.2059538"
           cy="275.85236"
           r="2.420619"
           style="opacity:0.39;fill:#6d87ac;stroke-width:0.082334"
           transform="scale(-1,1)" />
        <circle
           id="XMLID_156_"
           class="st12"
           cx="7.5778866"
           cy="280.05139"
           r="0.98800778"
           style="opacity:0.78;fill:#6d87ac;stroke-width:0.082334"
           transform="scale(-1,1)" />
        <circle
           id="XMLID_111_"
           class="st12"
           cx="-12.980905"
           cy="289.63507"
           r="0.72453904"
           style="opacity:0.78;fill:#6d87ac;stroke-width:0.082334"
           transform="scale(-1,1)" />
        <path
           id="XMLID_162_"
           class="st5"
           d="m 4.3605406,286.41579 c 0,0 -0.82334,-0.5187 -1.17738,-0.88097"
           style="fill:none;stroke:#272130;stroke-width:0.329336;stroke-linecap:round;stroke-linejoin:round;stroke-miterlimit:10" />
        <path
           id="XMLID_164_"
           class="st5"
           d="m 4.3605406,287.4532 c 0,0 -1.64668,-0.35404 -2.05835,-0.76571"
           style="fill:none;stroke:#272130;stroke-width:0.329336;stroke-linecap:round;stroke-linejoin:round;stroke-miterlimit:10" />
        <path
           id="XMLID_168_"
           class="st5"
           d="m 4.0065006,288.22714 c 0,0 -1.09504,0.43637 -1.91838,0.68337"
           style="fill:none;stroke:#272130;stroke-width:0.329336;stroke-linecap:round;stroke-linejoin:round;stroke-miterlimit:10" />
        <path
           id="XMLID_170_"
           class="st5"
           d="m 14.05948,293.82585 c 0,0 -0.48577,1.25971 -1.07034,1.53141"
           style="fill:none;stroke:#272130;stroke-width:0.329336;stroke-linecap:round;stroke-linejoin:round;stroke-miterlimit:10" />
      </g>
    </g>
  </g>
</svg>
