<?xml version="1.0" encoding="UTF-8" standalone="no"?>
<!-- Created with Inkscape (http://www.inkscape.org/) -->

<svg
   width="46.318417mm"
   height="55.616863mm"
   viewBox="0 0 46.318416 55.616863"
   version="1.1"
   id="svg1847"
   xmlns="http://www.w3.org/2000/svg"
   xmlns:svg="http://www.w3.org/2000/svg">
  <defs
     id="defs1844" />
  <g
     id="layer1"
     style="display:inline"
     transform="translate(-157.26312,-151.80753)">
    <g
       id="g1914"
       transform="matrix(0.0985079,0,0,0.0985079,129.294,137.564)">
      <ellipse
         id="XMLID_1193_"
         class="st2"
         cx="519.02765"
         cy="661.88568"
         rx="235.10001"
         ry="47.299999"
         style="opacity:0.64;fill:#68cce9" />
      <path
         id="XMLID_1211_"
         class="st3"
         d="m 406.32762,654.28571 c 3.30001,-10.7 13.4,-16.4 29.80001,-21.2 10.39999,-3 23.6,-4.4 44.3,-8.6 10.1,-2 17.2,-6 17.2,-6 v 11.5 c 0,0 -68.5,13.5 -79.2,31.2 -5.2,8.7 -3.60001,30 20.89999,32.2 -7.5,1.1 -19.8,-0.8 -26.39999,-7.5 -8.2,-8.3 -10.4,-19.4 -6.60001,-31.6 z"
         style="fill:#282323;stroke:#000000;stroke-width:4;stroke-linecap:round;stroke-linejoin:round;stroke-miterlimit:10" />
      <path
         id="XMLID_1210_"
         class="st4"
         d="m 497.62763,629.98571 c 0,0 -41,7.6 -62.9,17 -19.2,8.3 -18.6,16.9 -19.1,25.7 -0.30001,5.1 3.3,17.7 17.89999,19.9 17.4,2.6 37.9,-0.2 64.1,-16.9 0,-40.9 0,-45.7 1e-5,-45.7 z"
         style="fill:#442c2a" />
      <path
         id="XMLID_53_"
         class="st5"
         d="m 415.62763,672.68571 c 0.39999,-7.1 0.1,-14.1 10.1,-20.9 -0.4,2.5 -0.5,4.9 -0.6,7.4 -0.30001,5.1 12,-1.5 26.6,0.6 15.2,2.3 24.2,19.7 45.9,8 0,2.5 0,5.1 0,7.8 -26.2,16.7 -46.7,19.4 -64.1,16.9 -14.6,-2.1 -18.2,-14.8 -17.9,-19.8 z"
         style="opacity:0.37;fill:#442c2a" />
      <path
         id="XMLID_47_"
         class="st6"
         d="m 497.62763,629.98571 c 0,0 -41,7.6 -62.9,17 -19.2,8.3 -18.6,16.9 -19.1,25.7 -0.30001,5.1 3.3,17.7 17.89999,19.9 17.4,2.6 37.9,-0.2 64.1,-16.9 0,-40.9 0,-45.7 1e-5,-45.7 z"
         style="fill:none;stroke:#000000;stroke-width:4;stroke-linecap:round;stroke-linejoin:round;stroke-miterlimit:10" />
      <path
         id="XMLID_46_"
         class="st6"
         d="m 459.62763,653.48571 c -3.30001,1.8 -2.5,19.3 5.5,21.7"
         style="fill:none;stroke:#000000;stroke-width:4;stroke-linecap:round;stroke-linejoin:round;stroke-miterlimit:10" />
      <path
         id="XMLID_45_"
         class="st6"
         d="m 472.12763,652.18571 c -3.4,4.8 -1,16.1 5.1,18.9"
         style="fill:none;stroke:#000000;stroke-width:4;stroke-linecap:round;stroke-linejoin:round;stroke-miterlimit:10" />
      <path
         id="XMLID_44_"
         class="st6"
         d="m 483.62763,648.18571 c -3.4,4.8 -1,16.1 5.1,18.9"
         style="fill:none;stroke:#000000;stroke-width:4;stroke-linecap:round;stroke-linejoin:round;stroke-miterlimit:10" />
      <path
         id="XMLID_77_"
         class="st7"
         d="m 601.62762,596.38571 c -21.6,15 -52.3,23.6 -84.4,23.6 -32,0 -62.8,-8.6 -84.4,-23.6 -9.89999,-6.9 -26.5,-21.3 -26.5,-40.5 0,-19.2 16.60001,-33.6 26.5,-40.5 21.60001,-15 52.30001,-23.6 84.4,-23.6 32,0 62.8,8.6 84.4,23.6 9.9,6.9 26.5,21.3 26.5,40.5 0,19.2 -16.6,33.6 -26.5,40.5 z"
         style="fill:#151e28" />
      <path
         id="XMLID_76_"
         class="st8"
         d="m 700.52763,571.88571 c -0.4,2 -0.8,3.9 -1.4,5.9 -15.6,56.9 -90.8,100.1 -181.30001,100.1 -90.69999,0 -166.09999,-43.4 -181.39999,-100.5 -0.4,-1.6 -0.8,-3.2 -1.10001,-4.8 -0.39999,-3 -0.3,-6 0.30001,-9 3.69999,-16.8 24.1,-26.5 45.6,-21.7 14.1,3.1 25.1,11.8 30,22.1 0.5,2.2 1.3,4.4 2.2,6.5 5.2,12 15.6,21 22.6,26 20.9,15 50.8,23.6 81.79999,23.6 31.10001,0 60.90001,-8.6 81.80001,-23.6 7.1,-5.1 17.6,-14.2 22.7,-26.2 0.8,-1.9 1.5,-4 2,-6 4.8,-10.4 15.9,-19.1 30.1,-22.3 21.5,-4.8 41.9,5 45.6,21.7 0.7,2.6 0.8,5.4 0.5,8.2 z"
         style="fill:#2a3749" />
      <path
         id="XMLID_1209_"
         class="st9"
         d="m 700.02763,563.48571 c -0.1,-0.5 -0.20001,-0.9 -0.4,-1.4 -0.3,1.6 -0.7,3.3 -1.2,4.9 -15.4,56.9 -90.70001,100.1 -181.10001,100.1 -90.69999,0 -166.1,-43.4 -181.39999,-100.5 -0.2,-0.6 -0.3,-1.2 -0.5,-1.9 -0.4,2.6 -0.5,5.2 -0.10001,7.7 0.30001,1.6 0.7,3.2 1.10001,4.8 15.3,57.1 90.7,100.5 181.39999,100.5 90.5,0 165.70001,-43.2 181.3,-100.1 0.5,-1.9 1,-3.9 1.4,-5.9 0.3,-2.6 0.2,-5.4 -0.49999,-8.2 z"
         style="opacity:0.67;fill:#151e28" />
      <path
         id="XMLID_56_"
         class="st6"
         d="m 700.52763,571.88571 c -0.4,2 -0.8,3.9 -1.4,5.9 -15.6,56.9 -90.8,100.1 -181.30001,100.1 -90.69999,0 -166.09999,-43.4 -181.39999,-100.5 -0.4,-1.6 -0.8,-3.2 -1.10001,-4.8 -0.39999,-3 -0.3,-6 0.30001,-9 3.69999,-16.8 24.1,-26.5 45.6,-21.7 14.1,3.1 25.1,11.8 30,22.1 0.5,2.2 1.3,4.4 2.2,6.5 5.2,12 15.6,21 22.6,26 20.9,15 50.8,23.6 81.79999,23.6 31.10001,0 60.90001,-8.6 81.80001,-23.6 7.1,-5.1 17.6,-14.2 22.7,-26.2 0.8,-1.9 1.5,-4 2,-6 4.8,-10.4 15.9,-19.1 30.1,-22.3 21.5,-4.8 41.9,5 45.6,21.7 0.7,2.6 0.8,5.4 0.5,8.2 z"
         style="fill:none;stroke:#000000;stroke-width:4;stroke-linecap:round;stroke-linejoin:round;stroke-miterlimit:10" />
      <ellipse
         id="XMLID_75_"
         class="st10"
         cx="519.02765"
         cy="558.88568"
         rx="90.099998"
         ry="30.6"
         style="fill:#9b2121" />
      <ellipse
         id="XMLID_31_"
         class="st6"
         cx="519.02765"
         cy="558.88568"
         rx="90.099998"
         ry="30.6"
         style="fill:none;stroke:#000000;stroke-width:4;stroke-linecap:round;stroke-linejoin:round;stroke-miterlimit:10" />
      <g
         id="XMLID_89_"
         transform="translate(26.8276,-58.9143)">
        <path
           id="XMLID_69_"
           class="st11"
           d="M 594.8,551 H 387.2 C 371.3,551 359,537.1 361,521.3 l 9.2,-73.5 c 2.6,-21 20.4,-36.7 41.6,-36.7 h 158.6 c 21.1,0 38.9,15.7 41.6,36.7 l 9.2,73.5 C 623,537.1 610.7,551 594.8,551 Z" />
        <path
           id="XMLID_24_"
           class="st6"
           d="M 594.8,551 H 387.2 C 371.3,551 359,537.1 361,521.3 l 9.2,-73.5 c 2.6,-21 20.4,-36.7 41.6,-36.7 h 158.6 c 21.1,0 38.9,15.7 41.6,36.7 l 9.2,73.5 C 623,537.1 610.7,551 594.8,551 Z" />
        <path
           id="XMLID_90_"
           class="st6"
           d="M 415,473.2" />
        <g
           id="XMLID_1191_">
          <line
             id="XMLID_1189_"
             class="st6"
             x1="409.70001"
             y1="473.20001"
             x2="407.70001"
             y2="498.29999" />
          <line
             id="XMLID_1192_"
             class="st6"
             x1="573.79999"
             y1="473.20001"
             x2="575.79999"
             y2="498.29999" />
        </g>
      </g>
      <path
         id="XMLID_1202_"
         class="st11"
         d="m 621.62762,492.08571 h -207.6 c -15.89999,0 -28.2,-13.9 -26.2,-29.7 l 9.2,-73.5 c 2.60001,-21 20.4,-36.7 41.60001,-36.7 h 158.59999 c 21.1,0 38.9,15.7 41.6,36.7 l 9.20001,73.5 c 1.79999,15.8 -10.5,29.7 -26.40001,29.7 z"
         style="fill:#f1534d" />
      <g
         id="XMLID_4_"
         class="st12"
         transform="translate(26.8276,-58.9143)"
         style="opacity:0.24">
        <path
           id="XMLID_1208_"
           class="st10"
           d="m 370.1,455.6 c 2.6,-21 20.4,-36.7 41.6,-36.7 h 158.6 c 21.1,0 38.9,15.7 41.6,36.7 l 9.1,72.9 c 0.3,-2.3 0.4,-4.7 0.1,-7.2 l -9.2,-73.5 c -2.6,-21 -20.4,-36.7 -41.6,-36.7 H 411.7 c -21.1,0 -38.9,15.7 -41.6,36.7 l -9.2,73.5 c -0.3,2.4 -0.3,4.8 0.1,7.2 z" />
        <path
           id="XMLID_8_"
           class="st10"
           d="m 420.9,418.9 c 0,0 12.3,2.2 13.3,9 0.8,5.5 0.7,9.1 2.8,11.3 2.1,2.2 7,6.7 16.9,6.7 -5.5,-5.5 -5.6,-24.8 -7.1,-24.8 -1.4,0 -5,-9.6 -5,-9.6 l -4.8,-2.2 c 0.1,0 -17.6,2.2 -16.1,9.6 z" />
        <path
           id="XMLID_10_"
           class="st10"
           d="m 552.3,418.9 c 0,0 -12.3,2.2 -13.3,9 -0.8,5.5 -0.7,9.1 -2.8,11.3 -2.1,2.1 -7,6.7 -16.9,6.7 5.5,-5.5 5.6,-24.8 7.1,-24.8 1.4,0 5,-9.6 5,-9.6 l 4.8,-2.2 c -0.1,0 17.6,2.2 16.1,9.6 z" />
      </g>
      <path
         id="XMLID_1201_"
         class="st6"
         d="m 621.62762,492.08571 h -207.6 c -15.89999,0 -28.2,-13.9 -26.2,-29.7 l 9.2,-73.5 c 2.60001,-21 20.4,-36.7 41.60001,-36.7 h 158.59999 c 21.1,0 38.9,15.7 41.6,36.7 l 9.20001,73.5 c 1.79999,15.8 -10.5,29.7 -26.40001,29.7 z"
         style="fill:none;stroke:#000000;stroke-width:4;stroke-linecap:round;stroke-linejoin:round;stroke-miterlimit:10" />
      <path
         id="XMLID_1200_"
         class="st6"
         d="M 441.82762,414.28571"
         style="fill:none;stroke:#000000;stroke-width:4;stroke-linecap:round;stroke-linejoin:round;stroke-miterlimit:10" />
      <g
         id="XMLID_1195_"
         transform="translate(26.8276,-58.9143)">
        <line
           id="XMLID_1199_"
           class="st6"
           x1="409.70001"
           y1="473.20001"
           x2="407.70001"
           y2="498.29999" />
        <line
           id="XMLID_1196_"
           class="st6"
           x1="573.79999"
           y1="473.20001"
           x2="575.79999"
           y2="498.29999" />
      </g>
      <path
         id="XMLID_80_"
         class="st10"
         d="m 491.12763,310.38571 -32.9,-1.7 -15.4,1.7 c 0,0 -10.3,7.7 -10.3,9.8 0,2.1 1,19.2 1,19.2 0,0 24.3,3.3 26.9,5.8 2.6,2.5 18,16.9 18,16.9 l 14.89999,-5.8 7.80001,-20.8 z"
         style="fill:#9b2121" />
      <path
         id="XMLID_72_"
         class="st11"
         d="m 485.32762,297.68571 h -38 c -15.3,0 -27.8,12.4 -27.8,27.8 v 0 c 0,15.3 12.4,27.8 27.8,27.8 h 5 c 8.10001,0 14.60001,6.5 14.60001,14.6 v 1.5 c 0,9.7 7.89999,17.6 17.6,17.6 v 0 c 0,0 0,-18 0,-18 0.2,0 0.4,0.2 0.4,0.4 v -1.5 c 0,-18 -14.60001,-32.6 -32.60001,-32.6 h -5 c -5.39999,0 -9.8,-4.4 -9.8,-9.8 0,-5.4 4.4,-9.8 9.8,-9.8 h 38 z"
         style="fill:#f1534d" />
      <path
         id="XMLID_81_"
         class="st6"
         d="m 483.02762,356.58571 c -4.6,-12.4 -16.6,-21.4 -30.6,-21.4 h -5 c -5.4,0 -9.8,-4.4 -9.8,-9.8 0,-5.4 4.4,-9.8 9.8,-9.8 h 38 v -18 h -38 c -15.3,0 -27.8,12.4 -27.8,27.8 v 0 c 0,15.3 12.4,27.8 27.8,27.8 h 5 c 8.1,0 14.6,6.5 14.6,14.6 v 1.5 c 0,9.7 7.9,17.6 17.60001,17.6"
         style="fill:none;stroke:#000000;stroke-width:4;stroke-linecap:round;stroke-linejoin:round;stroke-miterlimit:10" />
      <path
         id="XMLID_82_"
         class="st10"
         d="m 534.62762,310.38571 32.90001,-1.7 15.4,1.7 c 0,0 10.29999,7.7 10.29999,9.8 0,2.1 -1,19.2 -1,19.2 0,0 -24.29999,3.3 -26.9,5.8 -2.6,2.6 -18,16.9 -18,16.9 l -14.89999,-5.8 -7.80001,-20.8 z"
         style="fill:#9b2121" />
      <path
         id="XMLID_79_"
         class="st11"
         d="m 540.42763,297.68571 h 38 c 15.29999,0 27.79999,12.4 27.79999,27.8 v 0 c 0,15.3 -12.4,27.8 -27.79999,27.8 h -5 c -8.10001,0 -14.60001,6.5 -14.60001,14.6 v 1.5 c 0,9.7 -7.89999,17.6 -17.6,17.6 v 0 c 0,0 0,-18 0,-18 -0.2,0 -0.4,0.2 -0.4,0.4 v -1.5 c 0,-18 14.60001,-32.6 32.60001,-32.6 h 5 c 5.39999,0 9.79999,-4.4 9.79999,-9.8 0,-5.4 -4.4,-9.8 -9.79999,-9.8 h -38 z"
         style="fill:#f1534d" />
      <path
         id="XMLID_71_"
         class="st6"
         d="m 542.82762,356.58571 c 4.60001,-12.4 16.60001,-21.4 30.60001,-21.4 h 5 c 5.39999,0 9.79999,-4.4 9.79999,-9.8 0,-5.4 -4.4,-9.8 -9.79999,-9.8 h -38 v -18 h 38 c 15.29999,0 27.79999,12.4 27.79999,27.8 v 0 c 0,15.3 -12.4,27.8 -27.79999,27.8 h -5 c -8.10001,0 -14.60001,6.5 -14.60001,14.6 v 1.5 c 0,9.7 -7.89999,17.6 -17.6,17.6"
         style="fill:none;stroke:#000000;stroke-width:4;stroke-linecap:round;stroke-linejoin:round;stroke-miterlimit:10" />
      <circle
         id="XMLID_74_"
         class="st13"
         cx="514.7276"
         cy="333.78574"
         r="39"
         style="fill:#f46262" />
      <path
         id="XMLID_2426_"
         class="st11"
         d="m 477.42763,322.28571 c 10.8,6.9 23.6,11 37.29999,11 13.70001,0 26.50001,-4 37.30001,-11 -4.9,-16 -19.70001,-27.6 -37.30001,-27.6 -17.49999,0.1 -32.39999,11.7 -37.29999,27.6 z"
         style="fill:#f1534d" />
      <circle
         id="XMLID_23_"
         class="st6"
         cx="514.7276"
         cy="333.78574"
         r="39"
         style="fill:none;stroke:#000000;stroke-width:4;stroke-linecap:round;stroke-linejoin:round;stroke-miterlimit:10" />
      <path
         id="XMLID_70_"
         class="st14"
         d="m 514.72762,356.38571 v 0 c -12.7,0 -23,-10.3 -23,-23 v -17.2 c 0,-3.2 2.6,-5.8 5.8,-5.8 h 34.5 c 3.2,0 5.8,2.6 5.8,5.8 v 17.2 c -0.1,12.7 -10.39999,23 -23.1,23 z"
         style="fill:#ffc897" />
      <path
         id="XMLID_2425_"
         class="st15"
         d="m 532.02762,310.38571 h -34.5 c -3.2,0 -5.8,2.8 -5.8,6.2 v 14.1 c 7.2,2.7 14.9,4.2 23,4.2 8.1,0 15.8,-1.5 23,-4.2 v -14.1 c 0,-3.4 -2.6,-6.2 -5.7,-6.2 z"
         style="fill:#e5a973" />
      <path
         id="XMLID_15_"
         class="st6"
         d="m 514.72762,356.38571 v 0 c -12.7,0 -23,-10.3 -23,-23 v -17.2 c 0,-3.2 2.6,-5.8 5.8,-5.8 h 34.5 c 3.2,0 5.8,2.6 5.8,5.8 v 17.2 c -0.1,12.7 -10.39999,23 -23.1,23 z"
         style="fill:none;stroke:#000000;stroke-width:4;stroke-linecap:round;stroke-linejoin:round;stroke-miterlimit:10" />
      <path
         id="XMLID_25_"
         class="st6"
         d="M 492.52762,345.28571"
         style="fill:none;stroke:#000000;stroke-width:4;stroke-linecap:round;stroke-linejoin:round;stroke-miterlimit:10" />
      <rect
         id="XMLID_30_"
         x="518.2276"
         y="615.48572"
         class="st16"
         width="21.4"
         height="68.300003"
         style="fill:#607691" />
      <rect
         id="XMLID_33_"
         x="518.2276"
         y="615.48572"
         class="st6"
         width="21.4"
         height="68.300003"
         style="fill:none;stroke:#000000;stroke-width:4;stroke-linecap:round;stroke-linejoin:round;stroke-miterlimit:10" />
      <path
         id="XMLID_54_"
         class="st6"
         d="m 413.32762,570.28571 c -0.89999,-2.1 -1.6,-4.2 -2.19999,-6.5 1.1,2.2 1.8,4.3 2.19999,6.5 z"
         style="fill:none;stroke:#000000;stroke-width:4;stroke-linecap:round;stroke-linejoin:round;stroke-miterlimit:10" />
      <path
         id="XMLID_51_"
         class="st6"
         d="m 622.42763,570.08571 c 0.39999,-2.1 1.1,-4.1 2,-6 -0.5,2.1 -1.20001,4.1 -2,6 z"
         style="fill:none;stroke:#000000;stroke-width:4;stroke-linecap:round;stroke-linejoin:round;stroke-miterlimit:10" />
      <path
         id="XMLID_73_"
         class="st17"
         d="M 622.12762,565.28571 H 413.62763 c -7.4,0 -13.7,-5.5 -14.7,-12.9 l -13,-101.8 c -1.10001,-8.8 5.8,-16.7 14.7,-16.7 h 234.49999 c 8.9,0 15.8,7.8 14.7,16.7 l -13,101.8 c -1,7.3 -7.29999,12.9 -14.7,12.9 z"
         style="fill:#b5b5b5" />
      <path
         id="XMLID_1188_"
         class="st18"
         d="m 636.72762,545.98571 c -0.9,7.4 -7.2,12.9 -14.7,12.9 H 413.62763 c -7.4,0 -13.7,-5.5 -14.7,-12.9 l -12.8,-100.3 c -0.30001,1.6 -0.4,3.2 -0.2,4.9 l 13,101.8 c 0.89999,7.4 7.2,12.9 14.7,12.9 h 208.49999 c 7.4,0 13.7,-5.5 14.7,-12.9 l 13,-101.8 c 0.20001,-1.7 0.10001,-3.3 -0.2,-4.9 z"
         style="opacity:0.21;fill:#7e7e7e" />
      <path
         id="XMLID_91_"
         class="st18"
         d="m 386.02762,451.48571 c 1.2,-6.8 7.2,-12.2 14.5,-12.2 h 234.50001 c 7.4,0 13.29999,5.3 14.5,12.2 l 0.1,-1 c 1.1,-8.8 -5.8,-16.7 -14.7,-16.7 h -234.3 c -8.9,0 -15.80001,7.8 -14.7,16.7 z"
         style="opacity:0.21;fill:#7e7e7e" />
      <path
         id="XMLID_29_"
         class="st6"
         d="M 622.12762,565.28571 H 413.62763 c -7.4,0 -13.7,-5.5 -14.7,-12.9 l -13,-101.8 c -1.10001,-8.8 5.8,-16.7 14.7,-16.7 h 234.49999 c 8.9,0 15.8,7.8 14.7,16.7 l -13,101.8 c -1,7.3 -7.29999,12.9 -14.7,12.9 z"
         style="fill:none;stroke:#000000;stroke-width:4;stroke-linecap:round;stroke-linejoin:round;stroke-miterlimit:10" />
      <path
         id="XMLID_1190_"
         class="st19"
         d="m 527.72762,493.38571 c -4.5,0 -8.1,-3.6 -8.1,-8.1 0,-0.3 0,-0.6 0.1,-0.9 -0.8,-0.1 -1.6,-0.2 -2.4,-0.2 -7.3,0 -13.3,6 -13.3,13.3 0,7.3 6,13.3 13.3,13.3 7.3,0 13.3,-6 13.3,-13.3 0,-1.5 -0.3,-3 -0.69999,-4.4 -0.70001,0.1 -1.4,0.3 -2.20001,0.3 z"
         style="opacity:0.66;fill:#b5b5b5" />
      <path
         id="XMLID_36_"
         class="st3"
         d="m 630.92763,654.28571 c -3.3,-10.7 -13.4,-16.4 -29.8,-21.2 -10.4,-3 -23.6,-4.4 -44.3,-8.6 -10.1,-2 -17.2,-6 -17.2,-6 v 11.5 c 0,0 68.5,13.5 79.2,31.2 5.2,8.7 3.6,30 -20.9,32.2 7.5,1.1 19.8,-0.8 26.4,-7.5 8.2,-8.3 10.4,-19.4 6.6,-31.6 z"
         style="fill:#282323;stroke:#000000;stroke-width:4;stroke-linecap:round;stroke-linejoin:round;stroke-miterlimit:10" />
      <path
         id="XMLID_52_"
         class="st4"
         d="m 539.62762,629.98571 c 0,0 41,7.6 62.9,17 19.2,8.3 18.6,16.9 19.1,25.7 0.3,5.1 -3.3,17.7 -17.9,19.9 -17.4,2.6 -37.9,-0.2 -64.1,-16.9 0,-40.9 0,-45.7 0,-45.7 z"
         style="fill:#442c2a" />
      <path
         id="XMLID_1212_"
         class="st5"
         d="m 621.62762,672.68571 c -0.4,-7.1 -0.1,-14.1 -10.1,-20.9 0.4,2.5 0.5,4.9 0.6,7.4 0.3,5.1 -3.3,17.7 -17.9,19.9 -15.2,2.3 -32.9,0.4 -54.6,-11.3 0,2.5 0,5.1 0,7.8 26.2,16.7 46.7,19.4 64.1,16.9 14.70001,-2.1 18.20001,-14.8 17.9,-19.8 z"
         style="opacity:0.37;fill:#442c2a" />
      <path
         id="XMLID_34_"
         class="st6"
         d="m 539.62762,629.98571 c 0,0 41,7.6 62.9,17 19.2,8.3 18.6,16.9 19.1,25.7 0.3,5.1 -3.3,17.7 -17.9,19.9 -17.4,2.6 -37.9,-0.2 -64.1,-16.9 0,-40.9 0,-45.7 0,-45.7 z"
         style="fill:none;stroke:#000000;stroke-width:4;stroke-linecap:round;stroke-linejoin:round;stroke-miterlimit:10" />
      <path
         id="XMLID_37_"
         class="st6"
         d="m 577.62762,653.48571 c 3.3,1.8 2.5,19.3 -5.5,21.7"
         style="fill:none;stroke:#000000;stroke-width:4;stroke-linecap:round;stroke-linejoin:round;stroke-miterlimit:10" />
      <path
         id="XMLID_38_"
         class="st6"
         d="m 565.12762,652.18571 c 3.4,4.8 1,16.1 -5.1,18.9"
         style="fill:none;stroke:#000000;stroke-width:4;stroke-linecap:round;stroke-linejoin:round;stroke-miterlimit:10" />
      <path
         id="XMLID_40_"
         class="st6"
         d="m 553.62762,648.18571 c 3.4,4.8 1,16.1 -5.1,18.9"
         style="fill:none;stroke:#000000;stroke-width:4;stroke-linecap:round;stroke-linejoin:round;stroke-miterlimit:10" />
      <line
         id="XMLID_83_"
         class="st20"
         x1="479.62762"
         y1="376.78574"
         x2="479.62762"
         y2="429.98572"
         style="fill:none;stroke:#000000;stroke-width:6;stroke-linecap:round;stroke-linejoin:round;stroke-miterlimit:10" />
      <line
         id="XMLID_84_"
         class="st20"
         x1="547.12762"
         y1="376.78574"
         x2="547.12762"
         y2="414.28574"
         style="fill:none;stroke:#000000;stroke-width:6;stroke-linecap:round;stroke-linejoin:round;stroke-miterlimit:10" />
      <circle
         id="XMLID_27_"
         cx="547.12762"
         cy="417.28574"
         r="8.3000002" />
      <circle
         id="XMLID_86_"
         class="st21"
         cx="547.12762"
         cy="416.28574"
         r="3.4000001"
         style="fill:#7e7e7e" />
      <path
         id="XMLID_5_"
         class="st14"
         d="m 514.72762,327.28571 v 0 c -34.8,0 -63.1,-28.2 -63.1,-63.1 v -73.2 h 126.2 v 73.2 c 0,34.8 -28.2,63.1 -63.1,63.1 z"
         style="fill:#ffc897" />
      <path
         id="XMLID_1198_"
         class="st15"
         d="m 514.72762,318.58571 v 0 c -34.8,0 -63.1,-28.2 -63.1,-63.1 v 8.7 c 0,34.8 28.2,63.1 63.1,63.1 v 0 c 34.8,0 63.1,-28.2 63.1,-63.1 v -8.7 c 0,34.8 -28.2,63.1 -63.1,63.1 z"
         style="fill:#e5a973" />
      <path
         id="XMLID_2424_"
         class="st6"
         d="m 514.72762,327.28571 v 0 c -34.8,0 -63.1,-28.2 -63.1,-63.1 v -73.2 h 126.2 v 73.2 c 0,34.8 -28.2,63.1 -63.1,63.1 z"
         style="fill:none;stroke:#000000;stroke-width:4;stroke-linecap:round;stroke-linejoin:round;stroke-miterlimit:10" />
      <path
         id="XMLID_1197_"
         class="st15"
         d="m 578.32762,198.28571 c -0.2,-3.4 -0.39999,-6.9 -0.5,-10.3 -42,2 -84.19999,1.7 -126.1,-2 -0.3,3.9 -0.5,7.8 -0.8,11.7 1.9,1.7 3.9,3.5 5.8,5.2 1.6,0.8 3.7,1.9 5.6,2.9 8.4,4.4 20.10001,10 31.30001,12.2 4.1,0.8 8.39999,1.2 12.8,1.1 18.89999,-0.2 34.79999,-7.7 41.5,-10.8 1,-0.5 1.79999,-0.9 2.29999,-1 0.4,-0.2 0.8,-0.3 1.4,-0.3 1.2,0 2.6,0.3 4.3,0.6 2.2,0.5 4.8,1 7.7,0.8 3.3,-0.2 6.3,-1.2 9.2,-3.1 1.70001,-2.4 3.60001,-4.7 5.5,-7 z"
         style="fill:#e5a973" />
      <path
         id="XMLID_68_"
         class="st22"
         d="m 547.92763,160.28571 c 0,0 -50.5,-33.3 -92.3,3.9 -7.80001,6.9 -10.9,16.8 -10.9,25.9 v 48.2 h 7 v -35 c 0,-2.6 1.8,-4.6 4,-4.6 v 0 c 3.6,0 23.1,10.4 39.6,13.3 24.89999,4.3 47.6,-7.2 52.49999,-8.9 8.4,-3 15.20001,7.4 25.8,-4.3 h 0.4 c 2.2,0 4,2.1 4,4.6 v 35 h 7 v -48 c -0.2,-11.8 -13.8,-41.4 -37.09999,-30.1 z"
         style="fill:#231a17" />
      <g
         id="XMLID_2783_"
         class="st23"
         transform="translate(26.8276,-58.9143)"
         style="opacity:0.34">
        <rect
           id="XMLID_2784_"
           x="417.79999"
           y="290.60001"
           class="st22"
           width="7"
           height="6.5999999" />
        <rect
           id="XMLID_2785_"
           x="551"
           y="290.60001"
           class="st22"
           width="7"
           height="6.5999999" />
      </g>
      <path
         id="XMLID_3_"
         class="st6"
         d="m 547.92763,160.28571 c 0,0 -50.5,-33.3 -92.3,3.9 -7.80001,6.9 -10.9,16.8 -10.9,25.9 v 48.2 h 7 v -35 c 0,-2.6 1.8,-4.6 4,-4.6 v 0 c 3.6,0 23.1,10.4 39.6,13.3 24.89999,4.3 47.6,-7.2 52.49999,-8.9 8.4,-3 15.20001,7.4 25.8,-4.3 h 0.4 c 2.2,0 4,2.1 4,4.6 v 35 h 7 v -48 c -0.2,-11.8 -13.8,-41.4 -37.09999,-30.1 z"
         style="fill:none;stroke:#000000;stroke-width:4;stroke-linecap:round;stroke-linejoin:round;stroke-miterlimit:10" />
      <path
         id="XMLID_6_"
         class="st6"
         d="m 505.22762,192.78571 c 0,0 -54.2,3.5 -65.7,-25.3"
         style="fill:none;stroke:#000000;stroke-width:4;stroke-linecap:round;stroke-linejoin:round;stroke-miterlimit:10" />
      <path
         id="XMLID_9_"
         class="st6"
         d="m 512.92763,185.88571 c 0,0 -52.2,-3.3 -65.8,-32.1"
         style="fill:none;stroke:#000000;stroke-width:4;stroke-linecap:round;stroke-linejoin:round;stroke-miterlimit:10" />
      <path
         id="XMLID_85_"
         class="st14"
         d="m 577.82762,230.48571 v 32.8 c 7,0 12.60001,-7.3 12.60001,-16.4 v 0 c 0,-9.1 -5.60001,-16.4 -12.60001,-16.4 z"
         style="fill:#ffc897" />
      <path
         id="XMLID_1205_"
         class="st15"
         d="m 577.82762,232.28571 v 29.1 c 4.10001,-2.7 6.9,-8.2 6.9,-14.6 v 0 c 0,-6.3 -2.79999,-11.8 -6.9,-14.5 z"
         style="fill:#e5a973" />
      <path
         id="XMLID_12_"
         class="st6"
         d="m 577.82762,230.48571 v 32.8 c 7,0 12.60001,-7.3 12.60001,-16.4 v 0 c 0,-9.1 -5.60001,-16.4 -12.60001,-16.4 z"
         style="fill:none;stroke:#000000;stroke-width:4;stroke-linecap:round;stroke-linejoin:round;stroke-miterlimit:10" />
      <path
         id="XMLID_87_"
         class="st14"
         d="m 451.72762,230.48571 v 32.8 c -7,0 -12.6,-7.3 -12.6,-16.4 v 0 c -0.1,-9.1 5.6,-16.4 12.6,-16.4 z"
         style="fill:#ffc897" />
      <path
         id="XMLID_1203_"
         class="st15"
         d="m 451.72762,232.88571 c -3.6,2.9 -6.1,8.1 -6.1,14 v 0 c 0,5.9 2.4,11.1 6.1,14 z"
         style="fill:#e5a973" />
      <path
         id="XMLID_11_"
         class="st6"
         d="m 451.72762,230.48571 v 32.8 c -7,0 -12.6,-7.3 -12.6,-16.4 v 0 c -0.1,-9.1 5.6,-16.4 12.6,-16.4 z"
         style="fill:none;stroke:#000000;stroke-width:4;stroke-linecap:round;stroke-linejoin:round;stroke-miterlimit:10" />
      <path
         id="XMLID_7_"
         class="st6"
         d="m 512.12762,257.18571 -4.19999,13.7 c 0,1.5 4.89999,0.3 9.89999,1.5"
         style="fill:none;stroke:#000000;stroke-width:4;stroke-linecap:round;stroke-linejoin:round;stroke-miterlimit:10" />
      <path
         id="XMLID_16_"
         class="st24"
         d="m 535.72762,282.78571 c 1.5,10.4 -11.9,19.6 -22.4,17.7"
         style="fill:none;stroke:#000000;stroke-width:3;stroke-linecap:round;stroke-linejoin:round;stroke-miterlimit:10" />
      <g
         id="XMLID_19_"
         transform="translate(26.8276,-58.9143)">
        <ellipse
           id="XMLID_14_"
           class="st25"
           cx="465.20001"
           cy="300"
           rx="4.1999998"
           ry="4.5" />
        <ellipse
           id="XMLID_20_"
           cx="465.20001"
           cy="300"
           rx="4.1999998"
           ry="4.5" />
        <path
           id="XMLID_17_"
           class="st24"
           d="m 450.7,290.5 c 2.1,-2.5 7,-4.2 12.8,-4.2 4.6,0 8.6,1.1 11.1,2.8" />
      </g>
      <g
         id="XMLID_13_"
         transform="translate(26.8276,-58.9143)">
        <ellipse
           id="XMLID_22_"
           class="st25"
           cx="511.20001"
           cy="300"
           rx="4.1999998"
           ry="4.5" />
        <ellipse
           id="XMLID_21_"
           cx="511.20001"
           cy="300"
           rx="4.1999998"
           ry="4.5" />
        <path
           id="XMLID_18_"
           class="st24"
           d="m 525.7,290.5 c -2.1,-2.5 -7,-4.2 -12.8,-4.2 -4.6,0 -8.6,1.1 -11.1,2.8" />
      </g>
    </g>
  </g>
</svg>
