<?xml version="1.0" encoding="UTF-8" standalone="no"?>
<!-- Created with Inkscape (http://www.inkscape.org/) -->

<svg
   width="100.85649mm"
   height="71.31588mm"
   viewBox="0 0 100.85649 71.315881"
   version="1.1"
   id="svg2469"
   xmlns="http://www.w3.org/2000/svg"
   xmlns:svg="http://www.w3.org/2000/svg">
  <defs
     id="defs2466" />
  <g
     id="layer9"
     style="display:inline"
     transform="translate(-118.6701,-193.33164)">
    <g
       id="g2805"
       transform="translate(33.8763,-61.1829)">
      <g
         id="g1844"
         style="display:inline">
        <g
           id="g1312"
           transform="matrix(0.129486,0,0,0.129486,69.4876,224.126)">
          <path
             id="XMLID_2_"
             class="st2"
             d="m 399,253 c -47.4,3.2 -50.1,67.2 -138,116 -71.5,39.7 -107.2,18.1 -129.5,47.7 -57.8,76.8 82,355.3 243.5,368.3 78.4,6.3 94.6,-55.4 252,-94 127.3,-31.2 162.2,-2 208,-40 C 942.3,562 894.3,282.7 813.5,262.7 744.3,245.5 684,427.2 583.5,412.7 494.7,399.9 472.5,248 399,253 Z"
             style="opacity:0.28;fill:#333379" />
          <path
             id="XMLID_20_-74"
             class="st3"
             d="m 619.9,346.3 c 4,26.4 0,67 28.9,88.6 27.5,20.5 50.2,15.4 50.2,15.4 2.7,-9.8 37.5,-105.6 -79.1,-104 z"
             style="fill:#022266" />
          <path
             id="XMLID_8_-4"
             class="st4"
             d="m 776.2,352.5 c -24.7,10 -65.2,15.6 -79.4,48.8 -4.8,11.2 -6.6,21.1 -6.9,29.2 -6.9,15.3 -13.5,27.8 -19.9,38 -20.6,32.7 -38.3,41.2 -52.1,41.6 -28.1,0.8 -38,-32.4 -108,-92 -47.6,-40.6 -75.3,-63.5 -118,-70 -56.6,-8.6 -100.8,17.8 -107.2,21.8 -12.3,7.6 -47.5,29.2 -60.8,70.2 -26.3,81.2 54.7,156.6 63.8,164.8 38.9,35.2 81.5,45.4 105,51 15.2,3.6 68.8,15.1 135.2,-1.4 38.2,-9.5 111,-27.6 154,-96.4 22.5,-36 29.1,-73.5 29.6,-104 30.9,-1.2 87.1,-13.7 64.7,-101.6 z"
             style="fill:#32fd99" />
          <g
             id="XMLID_86_-3"
             style="opacity:0.15">
            <g
               id="XMLID_87_-0">
              <path
                 id="XMLID_91_-7"
                 class="st6"
                 d="m 776.2,352.5 c -3.3,1.4 -7,2.6 -10.8,3.9 17.8,81 -36,93.2 -66,94.4 -0.3,30.5 -6.7,68 -28.9,104.1 -42.5,69.1 -115.3,87.6 -153.4,97.4 -43.3,11 -81.2,10.1 -106.5,7.2 24.5,4 67.3,7.4 117.3,-5 38.2,-9.5 111,-27.6 154,-96.4 22.5,-36 29.1,-73.5 29.6,-104 30.9,-1.2 87.1,-13.7 64.7,-101.6 z" />
            </g>
          </g>
          <ellipse
             id="XMLID_18_-8"
             class="st7"
             cx="253.89999"
             cy="460.60001"
             rx="11"
             ry="12.6"
             style="opacity:0.2;fill:#515151" />
          <ellipse
             id="XMLID_23_-6"
             class="st7"
             cx="331.10001"
             cy="447.79999"
             rx="11.2"
             ry="12.9"
             style="opacity:0.2;fill:#515151" />
          <g
             id="XMLID_88_"
             style="opacity:0.16">
            <g
               id="XMLID_89_-8">
              <path
                 id="XMLID_90_-8"
                 class="st6"
                 d="m 271.2,389.3 c 5.4,-3.3 50.5,-28.9 107.2,-21.8 50.7,6.4 84.5,35.7 117.3,64.2 62.9,54.6 95.2,94.5 124.2,88.7 13.6,-2.7 22.3,-9.8 36.6,-32.4 0.7,-1.1 1.4,-2.2 2,-3.3 -15.7,19.5 -29.5,25.1 -40.6,25.4 -28.1,0.8 -38,-32.4 -108,-92 -47.6,-40.6 -75.3,-63.5 -118,-70 -56.6,-8.6 -100.8,17.8 -107.2,21.8 -10.4,6.4 -36.9,22.7 -53,52.1 14.8,-17.4 31.7,-27.8 39.5,-32.7 z" />
            </g>
          </g>
          <path
             id="XMLID_15_-4"
             class="st9"
             d="m 527.9,654.4 c 29.3,-7.3 78.9,-19.6 119.9,-56 -80.6,34.4 -133.2,28.3 -167.9,13.6 -82.3,-35 -104.8,-136.7 -174,-134 -18.4,0.7 -42.8,8.4 -54,28 -13.6,23.9 -0.6,52.5 1.5,57 6.7,11 17.7,26.5 34.3,41.8 37.8,34.8 79.3,44.9 105,51 15.2,3.7 68.8,15.1 135.2,-1.4 z"
             style="fill:#a6ffd0" />
          <path
             id="XMLID_26_-3"
             class="st10"
             d="m 302.5,478 c 0,0 47,112 176.5,139"
             style="opacity:0.12;fill:none;stroke:#022266;stroke-width:6;stroke-linecap:round;stroke-linejoin:round;stroke-miterlimit:10" />
          <path
             id="XMLID_58_"
             class="st11"
             d="m 536.1,644.6 c -66.4,16.5 -120,5.1 -135.2,1.4 -25.7,-6.2 -67.2,-16.2 -105,-51 -16.6,-15.3 -27.6,-30.8 -34.3,-41.8 -2.1,-4.5 -15.1,-33.1 -1.5,-57 0.2,-0.4 0.5,-0.8 0.8,-1.3 -3.5,3.2 -6.5,6.9 -8.9,11.1 -13.6,23.9 -0.6,52.5 1.5,57 6.7,11 17.7,26.5 34.3,41.8 37.8,34.8 79.3,44.9 105,51 15.2,3.6 68.8,15.1 135.2,-1.4 29.3,-7.3 78.9,-19.6 119.9,-56 -3,1.3 -6,2.5 -9,3.7 -37.1,26.1 -77.6,36.2 -102.8,42.5 z"
             style="opacity:0.08;fill:#515151" />
          <path
             id="XMLID_19_-1"
             class="st10"
             d="m 253.9,507.8 c 0,0 19.1,73.4 99.1,114.7 59,30.5 153.3,46.7 270.9,-8.5"
             style="opacity:0.12;fill:none;stroke:#022266;stroke-width:6;stroke-linecap:round;stroke-linejoin:round;stroke-miterlimit:10" />
          <path
             id="XMLID_14_-4"
             class="st10"
             d="m 269.1,488.7 c 0,0 65.4,202.3 338.3,126.8"
             style="opacity:0.12;fill:none;stroke:#022266;stroke-width:6;stroke-linecap:round;stroke-linejoin:round;stroke-miterlimit:10" />
          <path
             id="XMLID_12_-9"
             class="st12"
             d="m 527.9,654.4 c 29.3,-7.3 78.9,-19.6 119.9,-56 -80.6,34.4 -133.2,28.3 -167.9,13.6 -82.3,-35 -104.8,-136.7 -174,-134 -18.4,0.7 -42.8,8.4 -54,28 -13.6,23.9 -0.6,52.5 1.5,57 6.7,11 17.7,26.5 34.3,41.8 37.8,34.8 79.3,44.9 105,51 15.2,3.7 68.8,15.1 135.2,-1.4 z"
             style="fill:none;stroke:#022266;stroke-width:6;stroke-linecap:round;stroke-linejoin:round;stroke-miterlimit:10" />
          <ellipse
             id="XMLID_4_-2"
             class="st3"
             cx="250.8"
             cy="459.79999"
             rx="9.1000004"
             ry="11.8"
             style="fill:#022266" />
          <ellipse
             id="XMLID_6_-0"
             class="st13"
             cx="249.39999"
             cy="454.39999"
             rx="3.0999999"
             ry="4.0999999"
             style="fill:#ffffff" />
          <ellipse
             id="XMLID_11_-6"
             class="st3"
             cx="327.60001"
             cy="446.79999"
             rx="9.1000004"
             ry="11.8"
             style="fill:#022266" />
          <ellipse
             id="XMLID_10_-8"
             class="st13"
             cx="326.39999"
             cy="442"
             rx="3.3"
             ry="4.8000002"
             style="fill:#ffffff" />
          <ellipse
             id="XMLID_16_-9"
             class="st13"
             cx="328"
             cy="452.70001"
             rx="1.6"
             ry="2.4000001"
             style="fill:#ffffff" />
          <ellipse
             id="XMLID_21_-2"
             class="st13"
             cx="252.5"
             cy="464.60001"
             rx="1.6"
             ry="2.4000001"
             style="fill:#ffffff" />
          <path
             id="XMLID_22_-6"
             class="st12"
             d="m 776.2,352.5 c -24.7,10 -65.2,15.6 -79.4,48.8 -4.8,11.2 -6.6,21.1 -6.9,29.2 -6.9,15.3 -13.5,27.8 -19.9,38 -20.6,32.7 -38.3,41.2 -52.1,41.6 -28.1,0.8 -38,-32.4 -108,-92 -47.6,-40.6 -75.3,-63.5 -118,-70 -56.6,-8.6 -100.8,17.8 -107.2,21.8 -12.3,7.6 -47.5,29.2 -60.8,70.2 -26.3,81.2 54.7,156.6 63.8,164.8 38.9,35.2 81.5,45.4 105,51 15.2,3.6 68.8,15.1 135.2,-1.4 38.2,-9.5 111,-27.6 154,-96.4 22.5,-36 29.1,-73.5 29.6,-104 30.9,-1.2 87.1,-13.7 64.7,-101.6 z"
             style="fill:none;stroke:#022266;stroke-width:6;stroke-linecap:round;stroke-linejoin:round;stroke-miterlimit:10" />
          <path
             id="XMLID_7_-6"
             class="st4"
             d="m 499.9,562 c 0,0 56.3,64.9 14,142 -26,26 -48.8,-56 -48.8,-82 0,-26 8.8,-40.7 8.8,-40.7"
             style="fill:#32fd99" />
          <path
             id="XMLID_42_-4"
             class="st7"
             d="m 499.9,562 -1.3,0.9 c 13.9,23.8 33.1,72 3.3,126.4 -6.1,6.1 -12,6.3 -17.5,2.6 8.3,14.9 18.7,23 29.5,12.1 42.3,-77.1 -14,-142 -14,-142 z"
             style="opacity:0.2;fill:#515151" />
          <path
             id="XMLID_13_-9"
             class="st12"
             d="m 499.9,562 c 0,0 56.3,64.9 14,142 -26,26 -48.8,-56 -48.8,-82 0,-26 8.8,-40.7 8.8,-40.7"
             style="fill:none;stroke:#022266;stroke-width:6;stroke-linecap:round;stroke-linejoin:round;stroke-miterlimit:10" />
          <path
             id="XMLID_5_-5"
             class="st2"
             d="m 584.7,243 c 0,0 -41,-8 -41,34 0,42 66,50 84,32 18,-18 49.7,-48.9 32,-66.6 -17.7,-17.7 -75,0.6 -75,0.6 z"
             style="opacity:0.28;fill:#333379" />
          <path
             id="XMLID_27_-0"
             class="st2"
             d="m 206.5,297.4 c -2.3,-0.3 -15,-1.8 -19.9,5.1 -6.1,8.5 3.3,24.8 14.4,32.5 7.5,5.2 23.1,11.5 32.1,3.2 8.4,-7.7 6.5,-24.1 -2.1,-33.2 -9.2,-9.7 -23.1,-7.8 -24.5,-7.6 z"
             style="opacity:0.28;fill:#333379" />
        </g>
      </g>
    </g>
  </g>
</svg>
